<?xml version="1.0" standalone="no"?>
<!DOCTYPE svg PUBLIC "-//W3C//DTD SVG 1.1//EN" "http://www.w3.org/Graphics/SVG/1.1/DTD/svg11.dtd" >
<svg xmlns="http://www.w3.org/2000/svg" xmlns:xlink="http://www.w3.org/1999/xlink" version="1.1">
<metadata>
Created by FontForge 20160405 at Tue Nov  8 09:21:03 2016
 By www-data
Copyright (c) 2010 by Dino dos Santos _DSType. All rights reserved.
</metadata>
<defs>
<font id="Acta-Book" horiz-adv-x="600" >
  <font-face 
    font-family="Acta Book"
    font-weight="400"
    font-stretch="normal"
    units-per-em="1000"
    panose-1="2 0 5 3 7 0 0 2 0 4"
    ascent="750"
    descent="-250"
    x-height="500"
    cap-height="700"
    bbox="-23 -260 1660 932.038"
    underline-thickness="50"
    underline-position="-100"
    stemh="25"
    stemv="55"
    unicode-range="U+0020-FB04"
  />
<missing-glyph horiz-adv-x="546" 
d="M124 249c0 45 17 85 46 114l-74 90l8 8l74 -90c26 22 60 36 96 36c35 0 68 -14 93 -36l74 90l9 -8l-74 -89c29 -29 47 -70 47 -115s-18 -86 -47 -114l73 -86l-9 -9l-73 87c-25 -22 -58 -35 -93 -35c-36 0 -70 13 -96 35l-71 -87l-9 9l72 86c-29 29 -46 69 -46 114z
M136 249c0 -79 62 -145 138 -145c74 0 137 66 137 145s-63 146 -137 146c-76 0 -138 -67 -138 -146z" />
    <glyph glyph-name="T_h" unicode="Th" horiz-adv-x="1094" 
d="M27 537l5 163h561l71 30h12l-5 -325h5c49 59 119 105 192 105c68 0 127 -40 127 -150v-290c0 -41 9 -42 86 -47v-23h-237v23c59 5 68 6 68 47v287c0 54 -27 89 -81 89c-64 0 -120 -36 -155 -70v-306c0 -41 9 -42 86 -47v-23h-255v23c77 5 86 6 86 47v596h-260v-595
c0 -41 9 -42 86 -47v-24h-257v24c77 5 86 6 86 47v595h-71c-79 0 -106 -42 -126 -129h-24z" />
    <glyph glyph-name="ff" unicode="ff" horiz-adv-x="656" 
d="M296 500v-37h-96v-393c0 -41 9 -42 98 -47v-23h-267v23c77 5 86 6 86 47v393h-86v29l86 8v34c0 94 65 196 216 196c67 0 121 -22 152 -51c29 30 70 51 126 51c63 0 115 -34 115 -81c0 -35 -22 -49 -45 -49c-20 0 -38 9 -38 30c0 15 13 21 13 37c0 23 -21 35 -48 35
c-78 0 -92 -80 -92 -166v-36h119v-37h-119v-393c0 -41 9 -42 106 -47v-23h-275v23c77 5 86 6 86 47v393h-86v29l86 8v34c0 33 7 67 21 98c-24 42 -60 70 -118 70c-112 0 -136 -84 -136 -166v-36h96z" />
    <glyph glyph-name="ffi" unicode="ffi" horiz-adv-x="931" 
d="M832 510v-440c0 -41 9 -42 86 -47v-23h-255v23c77 5 86 6 86 47v344c0 43 -8 49 -86 49h-147v-393c0 -41 9 -42 98 -47v-23h-267v23c77 5 86 6 86 47v393h-86v29l86 8v34c0 31 7 64 23 93c-23 45 -60 75 -120 75c-112 0 -136 -84 -136 -166v-36h96v-37h-96v-393
c0 -41 9 -42 98 -47v-23h-267v23c77 5 86 6 86 47v393h-86v29l86 8v34c0 94 65 196 216 196c71 0 127 -25 157 -57c35 34 87 57 159 57c107 0 181 -55 181 -110c0 -31 -20 -52 -53 -52c-32 0 -50 16 -50 35c0 18 14 23 14 39c0 23 -22 60 -85 60c-118 0 -140 -84 -140 -166
v-36h241l63 10h12z" />
    <glyph glyph-name="f_f_j" unicode="ffj" horiz-adv-x="915" 
d="M832 510v-480c0 -155 -77 -240 -154 -240c-35 0 -51 17 -51 42c0 20 14 38 39 38c27 0 48 -16 64 -16c18 0 19 30 19 104v456c0 38 -8 47 -65 49h-168v-393c0 -41 9 -42 98 -47v-23h-267v23c77 5 86 6 86 47v393h-86v29l86 8v34c0 31 7 64 23 93c-23 45 -60 75 -120 75
c-112 0 -136 -84 -136 -166v-36h96v-37h-96v-393c0 -41 9 -42 98 -47v-23h-267v23c77 5 86 6 86 47v393h-86v29l86 8v34c0 94 65 196 216 196c71 0 127 -25 157 -57c35 34 87 57 159 57c107 0 181 -55 181 -110c0 -31 -20 -52 -53 -52c-32 0 -50 16 -50 35c0 18 14 23 14 39
c0 23 -22 60 -85 60c-118 0 -140 -84 -140 -166v-36h241l63 10h12z" />
    <glyph glyph-name="ffl" unicode="ffl" horiz-adv-x="931" 
d="M832 730v-660c0 -41 9 -42 86 -47v-23h-255v23c77 5 86 6 86 47v591c-22 25 -54 41 -97 41c-112 0 -136 -84 -136 -166v-36h119v-37h-119v-393c0 -41 9 -42 98 -47v-23h-267v23c77 5 86 6 86 47v393h-86v29l86 8v34c0 31 7 64 23 93c-23 45 -60 75 -120 75
c-112 0 -136 -84 -136 -166v-36h96v-37h-96v-393c0 -41 9 -42 98 -47v-23h-267v23c77 5 86 6 86 47v393h-86v29l86 8v34c0 94 65 196 216 196c71 0 127 -25 157 -57c35 34 87 57 159 57c49 0 91 -12 122 -30l49 30h12z" />
    <glyph glyph-name="fi" unicode="fi" horiz-adv-x="615" 
d="M516 510v-440c0 -41 9 -42 86 -47v-23h-255v23c77 5 86 6 86 47v344c0 43 -8 49 -86 49h-147v-393c0 -41 9 -42 98 -47v-23h-267v23c77 5 86 6 86 47v393h-86v29l86 8v34c0 94 65 196 216 196c107 0 181 -55 181 -110c0 -31 -20 -52 -53 -52c-32 0 -50 16 -50 35
c0 18 14 23 14 39c0 23 -22 60 -85 60c-118 0 -140 -84 -140 -166v-36h241l63 10h12z" />
    <glyph glyph-name="f_j" unicode="fj" horiz-adv-x="599" 
d="M516 510v-480c0 -155 -77 -240 -154 -240c-35 0 -51 17 -51 42c0 20 14 38 39 38c27 0 48 -16 64 -16c18 0 19 30 19 104v456c0 43 -9 49 -86 49h-147v-393c0 -41 9 -42 98 -47v-23h-267v23c77 5 86 6 86 47v393h-86v29l86 8v34c0 94 65 196 216 196
c107 0 181 -55 181 -110c0 -31 -20 -52 -53 -52c-32 0 -50 16 -50 35c0 18 14 23 14 39c0 23 -22 60 -85 60c-118 0 -140 -84 -140 -166v-36h241l63 10h12z" />
    <glyph glyph-name="fl" unicode="fl" horiz-adv-x="615" 
d="M516 730v-660c0 -41 9 -42 86 -47v-23h-255v23c77 5 86 6 86 47v591c-22 25 -54 41 -97 41c-112 0 -136 -84 -136 -166v-36h119v-37h-119v-393c0 -41 9 -42 98 -47v-23h-267v23c77 5 86 6 86 47v393h-86v29l86 8v34c0 94 65 196 216 196c49 0 91 -12 122 -30l49 30h12z
" />
    <glyph glyph-name="Tcaron_h" unicode="&#x164;h" horiz-adv-x="1094" 
d="M27 537l5 163h561l71 30h12l-5 -325h5c49 59 119 105 192 105c68 0 127 -40 127 -150v-290c0 -41 9 -42 86 -47v-23h-237v23c59 5 68 6 68 47v287c0 54 -27 89 -81 89c-64 0 -120 -36 -155 -70v-306c0 -41 9 -42 86 -47v-23h-255v23c77 5 86 6 86 47v596h-260v-595
c0 -41 9 -42 86 -47v-24h-257v24c77 5 86 6 86 47v595h-71c-79 0 -106 -42 -126 -129h-24zM178 920l114 -94l114 94h22l-125 -180h-23l-124 180h22z" />
    <glyph glyph-name="Tcommaaccent_h" unicode="&#x162;h" horiz-adv-x="1094" 
d="M285 -30c54 0 70 -42 70 -82c0 -54 -38 -103 -100 -131l-14 24c35 20 57 41 57 61c0 6 -3 13 -15 13c-35 0 -58 26 -58 57c0 35 30 58 60 58zM27 537l5 163h561l71 30h12l-5 -325h5c49 59 119 105 192 105c68 0 127 -40 127 -150v-290c0 -41 9 -42 86 -47v-23h-237v23
c59 5 68 6 68 47v287c0 54 -27 89 -81 89c-64 0 -120 -36 -155 -70v-306c0 -41 9 -42 86 -47v-23h-255v23c77 5 86 6 86 47v596h-260v-595c0 -41 9 -42 86 -47v-24h-257v24c77 5 86 6 86 47v595h-71c-79 0 -106 -42 -126 -129h-24z" />
    <glyph glyph-name=".notdef" horiz-adv-x="546" 
d="M124 249c0 45 17 85 46 114l-74 90l8 8l74 -90c26 22 60 36 96 36c35 0 68 -14 93 -36l74 90l9 -8l-74 -89c29 -29 47 -70 47 -115s-18 -86 -47 -114l73 -86l-9 -9l-73 87c-25 -22 -58 -35 -93 -35c-36 0 -70 13 -96 35l-71 -87l-9 9l72 86c-29 29 -46 69 -46 114z
M136 249c0 -79 62 -145 138 -145c74 0 137 66 137 145s-63 146 -137 146c-76 0 -138 -67 -138 -146z" />
    <glyph glyph-name="space" unicode=" " horiz-adv-x="230" 
 />
    <glyph glyph-name="exclam" unicode="!" horiz-adv-x="308" 
d="M166 168h-22c-13 176 -36 444 -36 512c0 26 10 50 47 50s47 -24 47 -50c0 -68 -25 -336 -36 -512zM94 55c0 33 26 60 60 60c33 0 60 -27 60 -60c0 -34 -27 -60 -60 -60c-34 0 -60 26 -60 60z" />
    <glyph glyph-name="quotedbl" unicode="&#x22;" horiz-adv-x="412" 
d="M117 564l-20 162c-3 23 16 34 34 34s37 -11 34 -34l-20 -162h-28zM267 564l-20 162c-3 23 16 34 34 34s37 -11 34 -34l-20 -162h-28z" />
    <glyph glyph-name="numbersign" unicode="#" horiz-adv-x="560" 
d="M39 265h142v123h-142v37h142v143h37v-143h123v143h37v-143h143v-37h-143v-123h143v-37h-143v-142h-37v142h-123v-142h-37v142h-142v37zM218 388v-123h123v123h-123z" />
    <glyph glyph-name="dollar" unicode="$" horiz-adv-x="515" 
d="M448 465h-24c-23 100 -69 149 -137 157l-11 -238c89 -43 190 -86 190 -206c0 -113 -85 -184 -208 -188l-4 -90h-31l4 91c-61 3 -122 21 -168 47l-9 164h23c23 -135 90 -170 155 -175l13 276c-87 40 -181 79 -181 191c0 93 75 162 197 166l4 90h32l-4 -91
c49 -3 103 -17 149 -41zM382 155c0 68 -50 103 -110 133l-12 -262c74 5 122 57 122 129zM144 523c0 -60 45 -94 101 -123l10 224c-64 -4 -111 -37 -111 -101z" />
    <glyph glyph-name="percent" unicode="%" horiz-adv-x="762" 
d="M515 700h41l-310 -700h-42zM411 145c2 86 62 155 149 155c82 0 143 -69 141 -155c-3 -86 -63 -155 -150 -155c-82 0 -141 69 -140 155zM468 145c0 -90 33 -138 88 -138s87 48 87 138s-32 138 -87 138s-88 -48 -88 -138zM61 555c2 86 62 155 149 155
c82 0 143 -69 141 -155c-3 -86 -63 -155 -150 -155c-82 0 -141 69 -140 155zM118 555c0 -90 33 -138 88 -138s87 48 87 138s-32 138 -87 138s-88 -48 -88 -138z" />
    <glyph glyph-name="ampersand" unicode="&#x26;" horiz-adv-x="738" 
d="M152 195c0 -87 44 -163 139 -163c46 0 110 18 154 72l-210 254c-45 -33 -83 -103 -83 -163zM408 577c0 49 -23 97 -95 97c-68 0 -100 -58 -100 -102c0 -45 22 -88 72 -151c92 53 123 104 123 156zM533 0l-66 78c-76 -74 -155 -88 -204 -88c-118 0 -195 68 -195 179
c0 101 82 166 148 212c-48 62 -83 111 -83 174c0 95 80 155 176 155c88 0 152 -48 152 -132c0 -56 -46 -124 -158 -180l193 -233c20 32 49 83 66 134c19 53 -3 68 -83 78v23h221v-23c-80 -10 -80 -25 -100 -78c-27 -68 -57 -119 -83 -157l66 -74c30 -35 48 -40 86 -45v-23
h-136z" />
    <glyph glyph-name="quotesingle" unicode="'" horiz-adv-x="262" 
d="M117 564l-20 162c-3 23 16 34 34 34s37 -11 34 -34l-20 -162h-28z" />
    <glyph glyph-name="parenleft" unicode="(" horiz-adv-x="338" 
d="M98 340c0 185 85 355 189 460h31c-95 -141 -137 -291 -137 -460s42 -319 137 -460h-31c-104 105 -189 275 -189 460z" />
    <glyph glyph-name="parenright" unicode=")" horiz-adv-x="338" 
d="M240 340c0 -185 -85 -355 -189 -460h-31c95 141 137 291 137 460s-42 319 -137 460h31c104 -105 189 -275 189 -460z" />
    <glyph glyph-name="asterisk" unicode="*" horiz-adv-x="442" 
d="M80 568c0 14 10 26 24 26c10 0 22 -11 90 -15c-52 50 -63 46 -73 55c-11 10 -10 24 0 34c9 10 25 12 35 2c7 -7 7 -30 53 -76c-2 75 -13 82 -13 93c0 14 11 23 25 23s25 -9 25 -23c0 -11 -11 -18 -13 -93c46 46 46 69 53 76c10 10 26 8 35 -2c10 -10 11 -24 0 -34
c-10 -9 -21 -5 -73 -55c68 4 80 15 90 15c14 0 24 -12 24 -26s-10 -25 -24 -25c-10 0 -22 11 -90 15c52 -50 63 -46 73 -55c11 -10 10 -25 0 -35c-9 -10 -25 -11 -35 -1c-7 7 -7 29 -53 76c2 -75 13 -82 13 -93c0 -14 -11 -23 -25 -23s-25 9 -25 23c0 11 11 18 13 93
c-46 -47 -46 -69 -53 -76c-10 -10 -26 -9 -35 1c-10 10 -11 25 0 35c10 9 21 5 73 55c-68 -4 -80 -15 -90 -15c-14 0 -24 11 -24 25z" />
    <glyph glyph-name="plus" unicode="+" horiz-adv-x="560" 
d="M298 505v-163h163v-36h-163v-162h-37v162h-162v36h162v163h37z" />
    <glyph glyph-name="comma" unicode="," horiz-adv-x="294" 
d="M142 115c55 0 70 -47 70 -87c0 -89 -54 -142 -117 -170l-10 24c52 24 82 63 82 93c0 15 -13 21 -27 21c-35 0 -58 28 -58 59c0 36 29 60 60 60z" />
    <glyph glyph-name="hyphen" unicode="-" horiz-adv-x="441" 
d="M60 286h321v-37h-321v37z" />
    <glyph glyph-name="period" unicode="." horiz-adv-x="284" 
d="M82 55c0 33 26 60 60 60c33 0 60 -27 60 -60c0 -34 -27 -60 -60 -60c-34 0 -60 26 -60 60z" />
    <glyph glyph-name="slash" unicode="/" horiz-adv-x="413" 
d="M310 710h35l-240 -720h-36z" />
    <glyph glyph-name="zero" unicode="0" horiz-adv-x="594" 
d="M58 325c0 171 90 335 239 335s239 -164 239 -335s-90 -335 -239 -335s-239 164 -239 335zM445 325c0 198 -55 299 -148 299s-148 -101 -148 -299s55 -299 148 -299s148 101 148 299z" />
    <glyph glyph-name="one" unicode="1" horiz-adv-x="421" 
d="M166 71v522l-128 -44l-12 25l197 86h28v-589c0 -41 51 -42 128 -47v-24h-342v24c77 5 129 6 129 47z" />
    <glyph glyph-name="two" unicode="2" horiz-adv-x="512" 
d="M239 624c-79 0 -107 -41 -107 -66s25 -27 25 -53c0 -23 -24 -33 -42 -33s-46 5 -46 43c0 81 82 145 190 145c101 0 191 -59 191 -186c0 -135 -97 -245 -315 -401h327v-73h-414v44c204 160 313 268 313 429c0 76 -36 151 -122 151z" />
    <glyph glyph-name="three" unicode="3" horiz-adv-x="531" 
d="M469 184c0 -127 -106 -194 -223 -194c-108 0 -198 64 -198 145c0 38 28 43 46 43s42 -10 42 -33c0 -26 -25 -28 -25 -53s36 -65 115 -66c86 -1 154 55 154 142c0 135 -74 154 -182 154v40c72 -4 158 21 158 141c0 68 -32 121 -114 121c-79 0 -107 -41 -107 -66
s25 -27 25 -53c0 -23 -24 -33 -42 -33s-46 5 -46 43c0 81 82 145 190 145c117 0 179 -65 179 -156c0 -73 -54 -133 -127 -157v-2c91 -15 155 -75 155 -161z" />
    <glyph glyph-name="four" unicode="4" horiz-adv-x="546" 
d="M417 0h-85v183h-304v26l331 451h58v-440h99v-37h-99v-183zM332 220v341l-255 -341h255z" />
    <glyph glyph-name="five" unicode="5" horiz-adv-x="531" 
d="M114 650h334v-73h-295l-5 -158c253 0 321 -124 321 -220c0 -124 -87 -209 -240 -209c-117 0 -181 62 -181 128c0 37 24 60 47 60c21 0 41 -12 41 -33c0 -25 -25 -25 -25 -53c0 -51 67 -66 108 -66c101 0 163 72 163 149c0 86 -57 178 -262 178h-15z" />
    <glyph glyph-name="six" unicode="6" horiz-adv-x="565" 
d="M416 200c0 98 -50 165 -129 165c-47 0 -102 -25 -134 -58c-18 -150 39 -281 133 -281c75 0 130 60 130 174zM507 212c0 -137 -101 -222 -221 -222c-151 0 -228 119 -228 264c0 213 147 380 353 416l11 -29c-175 -50 -246 -162 -270 -294c56 47 115 62 170 62
c114 0 185 -87 185 -197z" />
    <glyph glyph-name="seven" unicode="7" horiz-adv-x="486" 
d="M458 621l-249 -621h-105l302 577h-250c-73 0 -83 -10 -93 -89h-26l5 162h416v-29z" />
    <glyph glyph-name="eight" unicode="8" horiz-adv-x="546" 
d="M72 490c0 110 110 170 211 170s195 -58 195 -161c0 -54 -43 -114 -129 -154c77 -36 148 -80 148 -168c0 -129 -121 -187 -231 -187c-136 0 -217 78 -217 161c0 71 44 142 149 182c-68 36 -126 79 -126 157zM133 176c0 -100 58 -150 144 -150c85 0 136 56 136 122
c0 88 -97 126 -187 170c-62 -35 -93 -93 -93 -142zM397 496c0 87 -54 128 -121 128c-68 0 -118 -50 -118 -112c0 -80 80 -116 162 -153c57 35 77 84 77 137z" />
    <glyph glyph-name="nine" unicode="9" horiz-adv-x="565" 
d="M149 450c0 -98 50 -165 129 -165c47 0 102 25 134 58c18 150 -39 281 -133 281c-75 0 -130 -60 -130 -174zM58 438c0 137 101 222 221 222c151 0 228 -119 228 -264c0 -213 -147 -380 -353 -416l-11 29c175 50 246 162 270 294c-56 -47 -115 -62 -170 -62
c-114 0 -185 87 -185 197z" />
    <glyph glyph-name="colon" unicode=":" horiz-adv-x="284" 
d="M82 55c0 33 26 60 60 60c33 0 60 -27 60 -60c0 -34 -27 -60 -60 -60c-34 0 -60 26 -60 60zM82 338c0 34 26 60 60 60c33 0 60 -26 60 -60c0 -33 -27 -60 -60 -60c-34 0 -60 27 -60 60z" />
    <glyph glyph-name="semicolon" unicode=";" horiz-adv-x="294" 
d="M87 338c0 34 26 60 60 60c33 0 60 -26 60 -60c0 -33 -27 -60 -60 -60c-34 0 -60 27 -60 60zM142 115c55 0 70 -47 70 -87c0 -89 -54 -142 -117 -170l-10 24c52 24 82 63 82 93c0 15 -13 21 -27 21c-35 0 -58 28 -58 59c0 36 29 60 60 60z" />
    <glyph glyph-name="less" unicode="&#x3c;" horiz-adv-x="480" 
d="M381 474l-230 -149l230 -152v-45l-282 186v21l282 185v-46z" />
    <glyph glyph-name="equal" unicode="=" horiz-adv-x="560" 
d="M99 414h362v-36h-362v36zM99 274h362v-36h-362v36z" />
    <glyph glyph-name="greater" unicode="&#x3e;" horiz-adv-x="480" 
d="M329 325l-230 149v46l282 -185v-21l-282 -186v45z" />
    <glyph glyph-name="question" unicode="?" horiz-adv-x="491" 
d="M208 694c-79 0 -107 -41 -107 -66s25 -27 25 -53c0 -23 -24 -33 -42 -33s-46 5 -46 43c0 81 82 145 190 145c101 0 191 -59 191 -186c0 -123 -136 -190 -193 -218l-7 -158h-22l-10 168c53 35 143 93 143 207c0 76 -36 151 -122 151zM151 55c0 33 26 60 60 60
c33 0 60 -27 60 -60c0 -34 -27 -60 -60 -60c-34 0 -60 26 -60 60z" />
    <glyph glyph-name="at" unicode="@" horiz-adv-x="861" 
d="M503 135l38 191c-18 19 -43 30 -69 30c-90 0 -130 -137 -130 -230c0 -56 17 -97 59 -97c39 0 89 40 102 106zM573 347l42 28h8l-48 -258c-8 -42 -13 -87 37 -87c57 0 141 85 141 231c0 179 -134 256 -281 256c-177 0 -329 -163 -329 -358c0 -189 119 -294 297 -294
c79 0 170 26 236 79l9 -19c-72 -60 -169 -96 -272 -96c-207 0 -337 138 -337 326c0 236 197 394 396 394c168 0 313 -96 313 -284c0 -165 -105 -273 -205 -273c-57 0 -81 35 -84 74c-28 -52 -77 -76 -121 -76c-73 0 -111 61 -111 136c0 126 88 260 206 260
c37 0 75 -13 103 -39z" />
    <glyph glyph-name="A" unicode="A" horiz-adv-x="693" 
d="M360 705l231 -626c12 -34 25 -49 85 -55v-24h-256v24c80 9 92 17 76 61l-52 147h-252l-42 -126c-20 -60 -7 -72 75 -82v-24h-208v24c55 10 69 16 82 57l213 624h48zM313 596l-109 -328h227l-116 328h-2z" />
    <glyph glyph-name="B" unicode="B" horiz-adv-x="618" 
d="M346 0h-306v24c77 5 86 6 86 47v558c0 41 -9 42 -86 47v24h276c150 0 230 -70 230 -170c0 -80 -64 -142 -144 -164v-2c125 -25 174 -102 174 -179c0 -110 -80 -185 -230 -185zM211 34h117c129 0 157 76 157 156c0 88 -54 153 -189 153h-85v-309zM211 379h77
c117 0 169 58 169 141c0 80 -40 146 -153 146h-93v-287z" />
    <glyph glyph-name="C" unicode="C" horiz-adv-x="645" 
d="M387 26c136 0 184 83 204 163h24l-14 -139c-40 -25 -114 -60 -214 -60c-189 0 -337 150 -337 360s148 360 337 360c100 0 174 -35 214 -60l10 -139h-24c-20 88 -80 163 -200 163c-138 0 -246 -124 -246 -324s108 -324 246 -324z" />
    <glyph glyph-name="D" unicode="D" horiz-adv-x="742" 
d="M211 34h142c139 0 248 110 248 316s-111 316 -248 316h-142v-632zM353 0h-313v24c77 5 86 6 86 47v558c0 41 -9 42 -86 47v24h313c189 0 339 -140 339 -350s-150 -350 -339 -350z" />
    <glyph glyph-name="E" unicode="E" horiz-adv-x="599" 
d="M543 700l5 -163h-24c-20 87 -49 129 -128 129h-185v-292h100c64 0 100 20 109 100h24v-236h-24c-9 80 -45 100 -109 100h-100v-304h177c79 0 124 30 147 129h24l-10 -163h-509v24c77 5 86 6 86 47v558c0 41 -9 42 -86 47v24h503z" />
    <glyph glyph-name="F" unicode="F" horiz-adv-x="575" 
d="M126 71v558c0 41 -9 42 -86 47v24h503l5 -163h-24c-20 87 -49 129 -128 129h-185v-312h100c64 0 100 20 109 100h24v-236h-24c-9 80 -45 100 -109 100h-100v-247c0 -41 9 -42 86 -47v-24h-257v24c77 5 86 6 86 47z" />
    <glyph glyph-name="G" unicode="G" horiz-adv-x="711" 
d="M385 26c67 0 118 27 153 64v153c0 41 -9 42 -86 47v24h241v-24c-61 -5 -70 -6 -70 -47v-248h-16l-34 60c-44 -33 -109 -65 -190 -65c-189 0 -333 150 -333 360s148 360 337 360c100 0 174 -35 214 -60l10 -139h-24c-20 88 -80 163 -200 163c-138 0 -246 -124 -246 -324
s106 -324 244 -324z" />
    <glyph glyph-name="H" unicode="H" horiz-adv-x="777" 
d="M566 71v267h-355v-267c0 -41 9 -42 86 -47v-24h-257v24c77 5 86 6 86 47v558c0 41 -9 42 -86 47v24h257v-24c-77 -5 -86 -6 -86 -47v-255h355v255c0 41 -9 42 -86 47v24h257v-24c-77 -5 -86 -6 -86 -47v-558c0 -41 9 -42 86 -47v-24h-257v24c77 5 86 6 86 47z" />
    <glyph glyph-name="I" unicode="I" horiz-adv-x="337" 
d="M126 71v558c0 41 -9 42 -86 47v24h257v-24c-77 -5 -86 -6 -86 -47v-558c0 -41 9 -42 86 -47v-24h-257v24c77 5 86 6 86 47z" />
    <glyph glyph-name="J" unicode="J" horiz-adv-x="379" 
d="M178 216v413c0 41 -9 42 -86 47v24h257v-24c-77 -5 -86 -6 -86 -47v-413c0 -138 -93 -226 -191 -226c-46 0 -62 19 -62 41s16 34 42 34s42 -21 75 -21c45 0 51 60 51 172z" />
    <glyph glyph-name="K" unicode="K" horiz-adv-x="717" 
d="M126 71v558c0 41 -9 42 -86 47v24h257v-24c-77 -5 -86 -6 -86 -47v-261c53 1 85 13 115 50l150 187c30 38 26 66 -61 71v24h239v-24c-62 -6 -85 -16 -115 -52l-204 -251c34 -24 82 -81 110 -116l116 -146c35 -43 74 -80 138 -87v-24h-153c-47 47 -105 124 -121 145
l-114 144c-32 39 -59 49 -100 50v-268c0 -41 9 -42 86 -47v-24h-257v24c77 5 86 6 86 47z" />
    <glyph glyph-name="L" unicode="L" horiz-adv-x="567" 
d="M126 71v558c0 41 -9 42 -86 47v24h257v-24c-77 -5 -86 -6 -86 -47v-595h167c79 0 124 30 147 129h24l-10 -163h-499v24c77 5 86 6 86 47z" />
    <glyph glyph-name="M" unicode="M" horiz-adv-x="869" 
d="M658 71l2 541l-222 -617h-46l-225 613v-537c0 -41 9 -42 100 -47v-24h-233v24c83 5 92 6 92 47v558c0 41 -9 42 -92 47v24h189l216 -584l208 584h182v-24c-77 -5 -86 -6 -86 -47v-558c0 -41 9 -42 86 -47v-24h-257v24c77 5 86 6 86 47z" />
    <glyph glyph-name="N" unicode="N" horiz-adv-x="723" 
d="M605 -5h-46l-392 632v-556c0 -41 9 -42 100 -47v-24h-233v24c83 5 92 6 92 47v558c0 41 -9 42 -92 47v24h189l341 -551v480c0 41 -9 42 -100 47v24h233v-24c-83 -5 -92 -6 -92 -47v-634z" />
    <glyph glyph-name="O" unicode="O" horiz-adv-x="778" 
d="M389 -10c-189 0 -339 150 -339 360s150 360 339 360s339 -150 339 -360s-150 -360 -339 -360zM389 674c-139 0 -248 -118 -248 -324s109 -324 248 -324s248 118 248 324s-109 324 -248 324z" />
    <glyph glyph-name="P" unicode="P" 
d="M320 666h-109v-330h83c147 0 189 76 189 164c0 80 -36 166 -163 166zM40 700h301c150 0 233 -80 233 -190c0 -100 -68 -210 -278 -210h-85v-229c0 -41 9 -42 86 -47v-24h-257v24c77 5 86 6 86 47v558c0 41 -9 42 -86 47v24z" />
    <glyph glyph-name="Q" unicode="Q" horiz-adv-x="778" 
d="M50 350c0 210 150 360 339 360s339 -150 339 -360c0 -205 -143 -352 -325 -359c119 -87 193 -112 233 -112c36 0 54 15 73 40l19 -13c-23 -56 -50 -106 -110 -106c-50 0 -133 36 -277 194c-166 22 -291 164 -291 356zM389 674c-139 0 -248 -118 -248 -324
s109 -324 248 -324s248 118 248 324s-109 324 -248 324z" />
    <glyph glyph-name="R" unicode="R" horiz-adv-x="678" 
d="M40 700h291c150 0 233 -80 233 -190c0 -88 -54 -181 -206 -202c44 -27 75 -64 99 -98l87 -124c37 -51 76 -57 116 -62v-24h-148c-25 26 -57 68 -74 98l-59 90c-28 43 -61 91 -98 116h-70v-233c0 -41 9 -42 86 -47v-24h-257v24c77 5 86 6 86 47v558c0 41 -9 42 -86 47v24z
M310 666h-99v-326h73c147 0 189 72 189 160c0 80 -36 166 -163 166z" />
    <glyph glyph-name="S" unicode="S" horiz-adv-x="538" 
d="M470 501h-24c-27 117 -83 172 -168 172c-77 0 -133 -39 -133 -112c0 -173 344 -145 344 -373c0 -122 -91 -198 -225 -198c-72 0 -149 20 -204 50l-10 174h24c27 -160 113 -187 188 -187c89 0 143 58 143 139c0 186 -344 147 -344 366c0 100 78 178 215 178
c61 0 129 -15 184 -45z" />
    <glyph glyph-name="T" unicode="T" horiz-adv-x="581" 
d="M27 537l5 163h517l5 -163h-24c-20 87 -47 129 -126 129h-71v-595c0 -41 9 -42 86 -47v-24h-257v24c77 5 86 6 86 47v595h-71c-79 0 -106 -42 -126 -129h-24z" />
    <glyph glyph-name="U" unicode="U" horiz-adv-x="755" 
d="M118 270v359c0 41 -9 42 -86 47v24h257v-24c-77 -5 -86 -6 -86 -47v-349c0 -154 62 -241 195 -241c130 0 198 88 198 241v349c0 41 -9 42 -94 47v24h227v-24c-83 -5 -92 -6 -92 -47v-359c0 -180 -101 -280 -264 -280c-177 0 -255 107 -255 280z" />
    <glyph glyph-name="V" unicode="V" horiz-adv-x="675" 
d="M324 -5l-231 626c-12 34 -25 49 -85 55v24h256v-24c-80 -9 -92 -17 -76 -61l181 -511h2l163 490c20 60 7 72 -75 82v24h208v-24c-55 -10 -69 -16 -82 -57l-213 -624h-48z" />
    <glyph glyph-name="W" unicode="W" horiz-adv-x="1001" 
d="M668 -5l-147 494l-169 -494h-48l-211 626c-11 34 -25 49 -85 55v24h256v-24c-80 -9 -91 -17 -76 -61l162 -495h2l149 436l-19 65c-10 35 -26 49 -85 55v24h255v-24c-80 -9 -89 -16 -76 -61l139 -495h2l143 474c19 61 7 72 -75 82v24h208v-24c-55 -10 -70 -16 -82 -57
l-193 -624h-50z" />
    <glyph glyph-name="X" unicode="X" horiz-adv-x="676" 
d="M444 106l-119 200l-138 -206c-33 -50 -15 -66 73 -76v-24h-242v24c54 10 77 16 101 51l186 266l-153 260c-27 47 -46 65 -120 75v24h273v-24c-71 -5 -84 -26 -59 -70l115 -199l129 196c26 39 22 67 -65 73v24h219v-24c-65 -10 -74 -24 -107 -73l-155 -231l170 -291
c29 -49 46 -47 106 -57v-24h-286v24c79 11 105 26 72 82z" />
    <glyph glyph-name="Y" unicode="Y" horiz-adv-x="647" 
d="M296 71v175l-195 375c-16 31 -34 50 -93 55v24h256v-24c-80 -9 -89 -19 -68 -61l161 -321h2l135 300c26 58 19 72 -63 82v24h208v-24c-55 -10 -76 -17 -94 -57l-164 -358v-190c0 -41 9 -42 86 -47v-24h-257v24c77 5 86 6 86 47z" />
    <glyph glyph-name="Z" unicode="Z" horiz-adv-x="572" 
d="M535 678l-404 -644h252c74 0 122 43 138 129h24l-10 -163h-508v22l406 644h-233c-74 0 -108 -35 -129 -129h-24l5 163h483v-22z" />
    <glyph glyph-name="bracketleft" unicode="[" horiz-adv-x="328" 
d="M308 -64v-36h-218v900h218v-36h-138v-828h138z" />
    <glyph glyph-name="backslash" unicode="\" horiz-adv-x="413" 
d="M69 710h35l241 -720h-36z" />
    <glyph glyph-name="bracketright" unicode="]" horiz-adv-x="328" 
d="M20 764v36h218v-900h-218v36h138v828h-138z" />
    <glyph glyph-name="asciicircum" unicode="^" horiz-adv-x="500" 
d="M250 614l-134 -144h-22l144 230h23l145 -230h-22z" />
    <glyph glyph-name="underscore" unicode="_" horiz-adv-x="481" 
d="M60 -30h361v-36h-361v36z" />
    <glyph glyph-name="grave" unicode="`" horiz-adv-x="347" 
d="M240 550l-125 91c-14 10 -19 21 -19 32c0 20 18 38 40 37c11 -1 23 -8 31 -19l84 -131z" />
    <glyph glyph-name="a" unicode="a" horiz-adv-x="511" 
d="M407 363v-287c0 -22 13 -32 32 -32c17 0 36 8 58 22l5 -20c-35 -26 -85 -56 -125 -56c-43 0 -53 28 -53 62v18h-2c-50 -48 -102 -80 -162 -80c-77 0 -116 50 -116 112s44 136 280 156v94c0 80 -38 121 -103 121c-60 0 -99 -35 -99 -66c0 -25 25 -27 25 -53
c0 -19 -18 -33 -44 -33c-23 0 -44 13 -44 43c0 46 65 146 199 146c102 0 149 -62 149 -147zM324 97v135c-148 -19 -196 -53 -196 -113c0 -45 30 -72 71 -72c43 0 85 24 125 50z" />
    <glyph glyph-name="b" unicode="b" horiz-adv-x="578" 
d="M172 439h5c37 40 97 71 157 71c129 0 205 -110 205 -260c0 -164 -110 -260 -235 -260c-41 0 -115 11 -161 60l-35 -55h-14v642c0 43 -9 44 -86 49v23l157 21h12zM296 458c-49 0 -90 -25 -119 -50v-243c0 -113 67 -143 116 -143c108 0 157 95 157 226
c0 143 -71 210 -154 210z" />
    <glyph glyph-name="c" unicode="c" horiz-adv-x="484" 
d="M292 478c-100 0 -169 -90 -169 -210c0 -146 80 -219 188 -219c62 0 100 18 129 37l10 -21c-20 -18 -78 -75 -175 -75c-155 0 -236 120 -236 255c0 170 121 265 246 265c110 0 167 -65 167 -127c0 -35 -22 -51 -47 -51c-21 0 -39 9 -39 30c0 18 16 28 16 46
c0 44 -29 70 -90 70z" />
    <glyph glyph-name="d" unicode="d" horiz-adv-x="583" 
d="M282 42c49 0 90 25 119 50v243c0 113 -67 143 -116 143c-108 0 -157 -95 -157 -226c0 -143 71 -210 154 -210zM484 730v-647c0 -43 9 -44 86 -49v-23l-151 -21h-12l-1 71h-5c-37 -40 -97 -71 -157 -71c-129 0 -205 110 -205 260c0 164 111 260 233 260
c35 0 95 -9 129 -36v163c0 43 -9 44 -86 49v23l157 21h12z" />
    <glyph glyph-name="e" unicode="e" horiz-adv-x="497" 
d="M285 510c83 0 173 -39 173 -156c0 -18 -4 -42 -9 -60h-326c-1 -8 -1 -16 -1 -24c0 -146 81 -221 189 -221c62 0 100 18 129 37l10 -21c-20 -18 -78 -75 -175 -75c-155 0 -236 120 -236 255c0 170 121 265 246 265zM280 478c-78 0 -135 -57 -153 -147h240c5 19 6 38 6 53
c-2 66 -41 94 -93 94z" />
    <glyph glyph-name="f" unicode="f" horiz-adv-x="340" 
d="M319 500v-37h-119v-393c0 -41 9 -42 106 -47v-23h-275v23c77 5 86 6 86 47v393h-86v29l86 8v34c0 94 53 196 178 196c63 0 115 -34 115 -81c0 -35 -22 -49 -45 -49c-20 0 -38 9 -38 30c0 15 13 21 13 37c0 23 -21 35 -48 35c-78 0 -92 -80 -92 -166v-36h119z" />
    <glyph glyph-name="g" unicode="g" horiz-adv-x="534" 
d="M250 157c-25 0 -49 3 -71 10c-23 -18 -36 -33 -36 -55c0 -24 20 -30 63 -33l156 -9c84 -4 148 -48 148 -118c0 -120 -143 -162 -284 -162s-202 42 -202 106c0 43 39 80 94 115c-25 8 -51 27 -51 68c0 33 26 64 84 98c-60 28 -101 81 -101 156c0 106 84 177 200 177
c46 0 85 -12 115 -31l135 21v-57h-94c26 -32 39 -70 39 -107c0 -112 -79 -179 -195 -179zM137 342c0 -101 55 -153 118 -153c78 0 103 61 103 136c0 95 -47 153 -113 153c-71 0 -108 -50 -108 -136zM324 -7l-175 12c-44 -42 -55 -63 -55 -93c0 -55 47 -90 143 -90
c79 0 189 17 189 100c0 48 -48 67 -102 71z" />
    <glyph glyph-name="h" unicode="h" horiz-adv-x="618" 
d="M31 0v23c77 5 86 6 86 47v567c0 43 -9 44 -86 49v23l157 21h12l-5 -325h5c49 59 119 105 192 105c68 0 127 -40 127 -150v-290c0 -41 9 -42 86 -47v-23h-237v23c59 5 68 6 68 47v287c0 54 -27 89 -81 89c-64 0 -120 -36 -155 -70v-306c0 -41 9 -42 86 -47v-23h-255z" />
    <glyph glyph-name="i" unicode="i" horiz-adv-x="299" 
d="M94 629c0 33 27 57 62 57c34 0 61 -24 61 -57c0 -35 -27 -57 -61 -57c-35 0 -62 22 -62 57zM200 510v-440c0 -41 9 -42 86 -47v-23h-255v23c77 5 86 6 86 47v327c0 43 -9 44 -86 49v23l157 41h12z" />
    <glyph glyph-name="j" unicode="j" horiz-adv-x="281" 
d="M191 510v-480c0 -155 -77 -240 -154 -240c-35 0 -51 17 -51 42c0 20 14 38 39 38c27 0 48 -16 64 -16c18 0 19 30 19 104v439c0 43 -9 44 -86 49v23l157 41h12zM85 629c0 33 27 57 62 57c34 0 61 -24 61 -57c0 -35 -27 -57 -61 -57c-35 0 -62 22 -62 57z" />
    <glyph glyph-name="k" unicode="k" horiz-adv-x="592" 
d="M200 730v-453c75 0 79 7 119 53l76 90c33 39 12 48 -58 57v23h216v-23c-71 -10 -87 -24 -114 -57l-110 -130l190 -238c11 -14 25 -26 69 -31v-21h-140l-169 219c-19 23 -37 29 -79 30v-179c0 -41 9 -42 86 -47v-23h-255v23c77 5 86 6 86 47v567c0 43 -9 44 -86 49v23
l157 21h12z" />
    <glyph glyph-name="l" unicode="l" horiz-adv-x="299" 
d="M200 730v-660c0 -41 9 -42 86 -47v-23h-255v23c77 5 86 6 86 47v567c0 43 -9 44 -86 49v23l157 21h12z" />
    <glyph glyph-name="m" unicode="m" horiz-adv-x="917" 
d="M31 0v23c77 5 86 6 86 47v327c0 43 -9 44 -86 49v23l157 41h12l-5 -105h5c49 59 109 105 182 105c61 0 109 -33 123 -104h5c50 59 108 104 181 104c68 0 127 -40 127 -150v-290c0 -41 9 -42 86 -47v-23h-227v23c49 5 58 6 58 47v287c0 54 -26 89 -80 89
c-55 0 -108 -33 -146 -69v-307c0 -41 9 -42 86 -47v-23h-227v23c49 5 58 6 58 47v287c0 54 -26 89 -80 89c-58 0 -111 -36 -146 -70v-306c0 -41 9 -42 86 -47v-23h-255z" />
    <glyph glyph-name="n" unicode="n" horiz-adv-x="618" 
d="M31 0v23c77 5 86 6 86 47v327c0 43 -9 44 -86 49v23l157 41h12l-5 -105h5c49 59 119 105 192 105c68 0 127 -40 127 -150v-290c0 -41 9 -42 86 -47v-23h-237v23c59 5 68 6 68 47v287c0 54 -27 89 -81 89c-64 0 -120 -36 -155 -70v-306c0 -41 9 -42 86 -47v-23h-255z" />
    <glyph glyph-name="o" unicode="o" horiz-adv-x="552" 
d="M276 -10c-144 0 -237 115 -237 260s93 260 237 260s237 -115 237 -260s-93 -260 -237 -260zM276 478c-92 0 -148 -78 -148 -228s56 -228 148 -228s148 78 148 228s-56 228 -148 228z" />
    <glyph glyph-name="p" unicode="p" horiz-adv-x="592" 
d="M186 439h5c37 40 97 71 157 71c129 0 205 -110 205 -260c0 -164 -111 -260 -233 -260c-35 0 -95 9 -129 36v-156c0 -41 9 -42 86 -47v-23h-255v23c77 5 86 6 86 47v527c0 43 -9 44 -86 49v23l157 41h12zM310 458c-49 0 -90 -25 -119 -50v-243c0 -113 67 -143 116 -143
c108 0 157 95 157 226c0 143 -71 210 -154 210z" />
    <glyph glyph-name="q" unicode="q" horiz-adv-x="574" 
d="M282 42c49 0 90 25 119 50v243c0 113 -67 143 -116 143c-108 0 -157 -95 -157 -226c0 -143 71 -210 154 -210zM401 -130l5 191h-5c-37 -40 -97 -71 -157 -71c-129 0 -205 110 -205 260c0 164 110 260 235 260c41 0 115 -11 161 -60l35 55h14v-635c0 -41 9 -42 86 -47v-23
h-255v23c77 5 85 6 86 47z" />
    <glyph glyph-name="r" unicode="r" horiz-adv-x="420" 
d="M31 0v23c77 5 86 6 86 47v327c0 43 -9 44 -86 49v23l157 41h12l-5 -115h5c53 76 101 115 156 115c30 0 55 -18 55 -51c0 -24 -17 -46 -44 -46c-24 0 -36 15 -62 15c-34 0 -69 -24 -105 -66v-292c0 -41 9 -42 106 -47v-23h-275z" />
    <glyph glyph-name="s" unicode="s" horiz-adv-x="426" 
d="M365 350h-24c-10 78 -68 128 -127 128c-60 0 -95 -29 -95 -78c0 -123 268 -90 268 -260c0 -95 -75 -150 -185 -150c-54 0 -111 15 -151 35l-12 135h24c26 -117 91 -138 140 -138c67 0 105 38 105 92c0 125 -264 93 -264 260c0 80 67 136 172 136c47 0 101 -12 141 -31z
" />
    <glyph glyph-name="t" unicode="t" horiz-adv-x="360" 
d="M191 463v-341c0 -65 21 -84 62 -84c34 0 57 10 87 22l3 -18c-50 -40 -92 -52 -138 -52c-66 0 -97 35 -97 120v353h-86v29l86 8l61 150h22v-150h137v-37h-137z" />
    <glyph glyph-name="u" unicode="u" horiz-adv-x="609" 
d="M427 124v273c0 43 -9 44 -106 49v23l177 41h12v-427c0 -43 9 -44 86 -49v-23l-151 -21h-12l-1 105h-5c-49 -59 -119 -105 -192 -105c-68 0 -127 40 -127 150v257c0 43 -9 44 -86 49v23l157 41h12v-367c0 -54 27 -89 81 -89c64 0 120 36 155 70z" />
    <glyph glyph-name="v" unicode="v" horiz-adv-x="546" 
d="M260 -5l-188 428c-14 33 -18 49 -68 54v23h243v-23c-82 -9 -90 -19 -74 -58l132 -322h2l121 322c18 48 -4 49 -70 58v23h184v-23c-42 -6 -56 -10 -70 -48l-167 -434h-45z" />
    <glyph glyph-name="w" unicode="w" horiz-adv-x="844" 
d="M578 -5l-145 395l-148 -395h-45l-168 428c-13 34 -18 49 -68 54v23h243v-23c-82 -9 -88 -18 -74 -58l112 -322h2l143 408h52l141 -408h2l101 322c16 49 -4 49 -70 58v23h184v-23c-42 -6 -57 -10 -70 -48l-147 -434h-45z" />
    <glyph glyph-name="x" unicode="x" horiz-adv-x="562" 
d="M340 88l-77 120l-99 -134c-22 -29 -18 -46 44 -51v-23h-186v23c55 9 70 12 95 45l127 170l-122 192c-20 31 -31 38 -90 47v23h234v-23c-50 -9 -69 -13 -39 -59l74 -116l80 112c30 41 19 58 -33 63v23h182v-23c-53 -10 -67 -15 -93 -49l-117 -156l129 -203
c20 -31 40 -37 90 -46v-23h-242v23c61 9 71 21 43 65z" />
    <glyph glyph-name="y" unicode="y" horiz-adv-x="546" 
d="M472 429l-161 -418c-71 -185 -185 -221 -250 -221c-36 0 -53 18 -53 41c0 22 15 39 41 39c23 0 38 -8 64 -8c70 0 108 41 149 130l-190 431c-14 33 -18 49 -68 54v23h243v-23c-82 -9 -90 -19 -74 -58l132 -322h2l121 322c18 48 -4 49 -70 58v23h184v-23
c-42 -6 -56 -10 -70 -48z" />
    <glyph glyph-name="z" unicode="z" horiz-adv-x="476" 
d="M128 32h197c55 0 78 25 98 121h26l-14 -153h-408v22l302 446h-173c-55 0 -69 -33 -89 -121h-26l9 153h380v-22z" />
    <glyph glyph-name="braceleft" unicode="{" horiz-adv-x="371" 
d="M97 348c64 -18 131 -45 132 -128c1 -55 -13 -143 -13 -181c0 -94 58 -111 135 -113v-26c-136 0 -230 37 -230 141c0 69 24 117 24 188c0 75 -44 92 -125 102v36c81 9 125 28 125 101c0 69 -24 122 -24 191c0 104 94 141 230 141v-26c-77 -2 -135 -22 -135 -113
c0 -38 14 -129 13 -184c-1 -83 -68 -111 -132 -129z" />
    <glyph glyph-name="bar" unicode="|" horiz-adv-x="235" 
d="M99 -100v920h37v-920h-37z" />
    <glyph glyph-name="braceright" unicode="}" horiz-adv-x="371" 
d="M274 348c-64 18 -130 46 -132 129c-1 55 13 146 13 184c0 91 -58 111 -135 113v26c136 0 230 -37 230 -141c0 -69 -23 -122 -23 -191c0 -73 44 -92 124 -101v-36c-80 -10 -124 -27 -124 -102c0 -71 23 -119 23 -188c0 -104 -94 -141 -230 -141v26c77 2 135 19 135 113
c0 38 -14 126 -13 181c2 83 68 110 132 128z" />
    <glyph glyph-name="asciitilde" unicode="~" horiz-adv-x="540" 
d="M110 519l-16 11c22 45 56 111 101 111c36 0 121 -40 171 -40c25 0 44 10 64 40l16 -11c-24 -47 -51 -101 -96 -101c-42 0 -121 40 -168 40c-33 0 -46 -16 -72 -50z" />
    <glyph glyph-name="Euro" unicode="&#x20ac;" horiz-adv-x="683" 
d="M49 414h66c35 148 157 247 307 247c93 0 162 -32 199 -55l9 -131h-23c-19 82 -73 150 -185 150c-105 0 -192 -77 -218 -211h190l-12 -36h-183c-2 -17 -3 -34 -3 -52s1 -36 3 -52h195l-12 -36h-178c26 -135 113 -212 218 -212c126 0 170 75 188 150h24l-13 -130
c-37 -24 -106 -56 -199 -56c-150 0 -272 99 -307 248h-66v36h59c-2 17 -3 34 -3 52s1 35 3 52h-59v36z" />
    <glyph glyph-name="quotesinglbase" unicode="&#x201a;" horiz-adv-x="294" 
d="M142 115c55 0 70 -47 70 -87c0 -89 -54 -142 -117 -170l-10 24c52 24 82 63 82 93c0 15 -13 21 -27 21c-35 0 -58 28 -58 59c0 36 29 60 60 60z" />
    <glyph glyph-name="florin" unicode="&#x192;" horiz-adv-x="340" 
d="M249 463l-46 -433c-16 -155 -102 -240 -179 -240c-32 0 -47 15 -47 37s17 43 43 43c27 0 47 -16 62 -16c18 0 23 30 31 104l53 505h-87l4 29l87 8l3 34c10 94 74 196 199 196c60 0 106 -31 106 -75c0 -39 -24 -55 -50 -55c-18 0 -35 8 -35 27s17 23 17 43
c0 21 -19 32 -44 32c-78 0 -101 -80 -109 -166l-4 -36h119l-5 -37h-118z" />
    <glyph glyph-name="quotedblbase" unicode="&#x201e;" horiz-adv-x="462" 
d="M142 115c55 0 70 -47 70 -87c0 -89 -54 -142 -117 -170l-10 24c52 24 82 63 82 93c0 15 -13 21 -27 21c-35 0 -58 28 -58 59c0 36 29 60 60 60zM310 115c55 0 70 -47 70 -87c0 -89 -54 -142 -117 -170l-10 24c52 24 82 63 82 93c0 15 -13 21 -27 21c-35 0 -58 28 -58 59
c0 36 29 60 60 60z" />
    <glyph glyph-name="ellipsis" unicode="&#x2026;" horiz-adv-x="636" 
d="M82 55c0 33 26 60 60 60c33 0 60 -27 60 -60c0 -34 -27 -60 -60 -60c-34 0 -60 26 -60 60zM258 55c0 33 26 60 60 60c33 0 60 -27 60 -60c0 -34 -27 -60 -60 -60c-34 0 -60 26 -60 60zM434 55c0 33 26 60 60 60c33 0 60 -27 60 -60c0 -34 -27 -60 -60 -60
c-34 0 -60 26 -60 60z" />
    <glyph glyph-name="dagger" unicode="&#x2020;" 
d="M311 360h-22c-37 79 -85 139 -120 139c-38 0 -33 -70 -81 -70c-18 0 -36 14 -36 35c0 42 51 66 97 66c51 0 100 -31 138 -76c-11 73 -34 160 -34 206c0 24 10 50 47 50s47 -26 47 -50c0 -46 -24 -133 -34 -206c37 45 86 76 138 76c46 0 97 -24 97 -66
c0 -21 -18 -35 -36 -35c-48 0 -43 70 -81 70c-35 0 -83 -60 -120 -139zM311 -10h-22c0 76 -36 232 -36 300c0 24 10 50 47 50s47 -26 47 -50c0 -68 -36 -224 -36 -300z" />
    <glyph glyph-name="daggerdbl" unicode="&#x2021;" 
d="M311 360h-22c-37 79 -85 139 -120 139c-38 0 -33 -70 -81 -70c-18 0 -36 14 -36 35c0 42 51 66 97 66c51 0 100 -31 138 -76c-11 73 -34 160 -34 206c0 24 10 50 47 50s47 -26 47 -50c0 -46 -24 -133 -34 -206c37 45 86 76 138 76c46 0 97 -24 97 -66
c0 -21 -18 -35 -36 -35c-48 0 -43 70 -81 70c-35 0 -83 -60 -120 -139zM311 340h-22c-37 -79 -85 -139 -120 -139c-38 0 -33 70 -81 70c-18 0 -36 -14 -36 -35c0 -42 51 -66 97 -66c51 0 100 31 138 76c-11 -73 -34 -160 -34 -206c0 -24 10 -50 47 -50s47 26 47 50
c0 46 -24 133 -34 206c37 -45 86 -76 138 -76c46 0 97 24 97 66c0 21 -18 35 -36 35c-48 0 -43 -70 -81 -70c-35 0 -83 60 -120 139z" />
    <glyph glyph-name="circumflex" unicode="&#x2c6;" horiz-adv-x="441" 
d="M220 633l-101 -83h-23l113 162h23l113 -162h-22z" />
    <glyph glyph-name="perthousand" unicode="&#x2030;" horiz-adv-x="1097" 
d="M515 700h41l-310 -700h-42zM411 145c2 86 62 155 149 155c82 0 143 -69 141 -155c-3 -86 -63 -155 -150 -155c-82 0 -141 69 -140 155zM468 145c0 -90 33 -138 88 -138s87 48 87 138s-32 138 -87 138s-88 -48 -88 -138zM61 555c2 86 62 155 149 155
c82 0 143 -69 141 -155c-3 -86 -63 -155 -150 -155c-82 0 -141 69 -140 155zM118 555c0 -90 33 -138 88 -138s87 48 87 138s-32 138 -87 138s-88 -48 -88 -138zM746 145c2 86 62 155 149 155c82 0 143 -69 141 -155c-3 -86 -63 -155 -150 -155c-82 0 -141 69 -140 155z
M803 145c0 -90 33 -138 88 -138s87 48 87 138s-32 138 -87 138s-88 -48 -88 -138z" />
    <glyph glyph-name="Scaron" unicode="&#x160;" horiz-adv-x="538" 
d="M154 920l114 -94l114 94h22l-125 -180h-23l-124 180h22zM470 501h-24c-27 117 -83 172 -168 172c-77 0 -133 -39 -133 -112c0 -173 344 -145 344 -373c0 -122 -91 -198 -225 -198c-72 0 -149 20 -204 50l-10 174h24c27 -160 113 -187 188 -187c89 0 143 58 143 139
c0 186 -344 147 -344 366c0 100 78 178 215 178c61 0 129 -15 184 -45z" />
    <glyph glyph-name="guilsinglleft" unicode="&#x2039;" horiz-adv-x="475" 
d="M378 422l-172 -153l172 -156v-41l-281 186v21l281 185v-42z" />
    <glyph glyph-name="OE" unicode="&#x152;" horiz-adv-x="971" 
d="M915 700l5 -163h-24c-20 87 -49 129 -128 129h-185v-292h100c64 0 100 20 109 100h24v-236h-24c-9 80 -45 100 -109 100h-100v-304h177c79 0 124 30 147 129h24l-10 -163h-450c-27 -6 -54 -10 -82 -10c-189 0 -339 150 -339 360s150 360 339 360c29 0 58 -4 85 -10h441z
M389 674c-139 0 -248 -118 -248 -324s109 -324 248 -324c56 0 109 24 109 111v426c0 88 -55 111 -109 111z" />
    <glyph glyph-name="Zcaron" unicode="&#x17d;" horiz-adv-x="572" 
d="M194 920l114 -94l114 94h22l-125 -180h-23l-124 180h22zM535 678l-404 -644h252c74 0 122 43 138 129h24l-10 -163h-508v22l406 644h-233c-74 0 -108 -35 -129 -129h-24l5 163h483v-22z" />
    <glyph glyph-name="quoteleft" unicode="&#x2018;" horiz-adv-x="294" 
d="M152 453c-55 0 -70 47 -70 87c0 89 54 142 117 170l10 -24c-52 -24 -82 -63 -82 -93c0 -15 13 -21 27 -21c35 0 58 -28 58 -59c0 -36 -29 -60 -60 -60z" />
    <glyph glyph-name="quoteright" unicode="&#x2019;" horiz-adv-x="294" 
d="M142 710c55 0 70 -47 70 -87c0 -89 -54 -142 -117 -170l-10 24c52 24 82 63 82 93c0 15 -13 21 -27 21c-35 0 -58 28 -58 59c0 36 29 60 60 60z" />
    <glyph glyph-name="quotedblleft" unicode="&#x201c;" horiz-adv-x="462" 
d="M320 453c-55 0 -70 47 -70 87c0 89 54 142 117 170l10 -24c-52 -24 -82 -63 -82 -93c0 -15 13 -21 27 -21c35 0 58 -28 58 -59c0 -36 -29 -60 -60 -60zM152 453c-55 0 -70 47 -70 87c0 89 54 142 117 170l10 -24c-52 -24 -82 -63 -82 -93c0 -15 13 -21 27 -21
c35 0 58 -28 58 -59c0 -36 -29 -60 -60 -60z" />
    <glyph glyph-name="quotedblright" unicode="&#x201d;" horiz-adv-x="462" 
d="M142 710c55 0 70 -47 70 -87c0 -89 -54 -142 -117 -170l-10 24c52 24 82 63 82 93c0 15 -13 21 -27 21c-35 0 -58 28 -58 59c0 36 29 60 60 60zM310 710c55 0 70 -47 70 -87c0 -89 -54 -142 -117 -170l-10 24c52 24 82 63 82 93c0 15 -13 21 -27 21c-35 0 -58 28 -58 59
c0 36 29 60 60 60z" />
    <glyph glyph-name="bullet" unicode="&#x2022;" horiz-adv-x="339" 
d="M82 325c0 50 38 88 87 88s88 -38 88 -88c0 -48 -39 -86 -88 -86s-87 38 -87 86z" />
    <glyph glyph-name="endash" unicode="&#x2013;" horiz-adv-x="541" 
d="M60 286h421v-37h-421v37z" />
    <glyph glyph-name="emdash" unicode="&#x2014;" horiz-adv-x="641" 
d="M60 286h521v-37h-521v37z" />
    <glyph glyph-name="tilde" unicode="&#x2dc;" horiz-adv-x="513" 
d="M112 542l-16 11c19 39 51 102 93 102c36 0 109 -36 144 -36c31 0 47 5 67 35l17 -11c-19 -38 -47 -93 -89 -93s-106 36 -148 36c-33 0 -45 -12 -68 -44z" />
    <glyph glyph-name="trademark" unicode="&#x2122;" horiz-adv-x="775" 
d="M40 618l2 82h259l2 -82h-12c-10 43 -23 65 -62 65h-36v-298c0 -20 4 -21 43 -23v-12h-129v12c39 2 44 3 44 23v298h-36c-39 0 -53 -22 -63 -65h-12zM649 385l1 271l-111 -309h-22l-113 307v-269c0 -20 5 -21 50 -23v-12h-116v12c41 2 45 3 45 23v279c0 21 -4 21 -45 24
v12h94l108 -292l104 292h91v-12c-38 -3 -43 -3 -43 -24v-279c0 -20 5 -21 43 -23v-12h-128v12c38 2 42 3 42 23z" />
    <glyph glyph-name="scaron" unicode="&#x161;" horiz-adv-x="426" 
d="M365 350h-24c-10 78 -68 128 -127 128c-60 0 -95 -29 -95 -78c0 -123 268 -90 268 -260c0 -95 -75 -150 -185 -150c-54 0 -111 15 -151 35l-12 135h24c26 -117 91 -138 140 -138c67 0 105 38 105 92c0 125 -264 93 -264 260c0 80 67 136 172 136c47 0 101 -12 141 -31z
M113 712l101 -83l103 83h22l-113 -162h-23l-113 162h23z" />
    <glyph glyph-name="guilsinglright" unicode="&#x203a;" horiz-adv-x="475" 
d="M269 269l-172 153v42l281 -185v-21l-281 -186v41z" />
    <glyph glyph-name="oe" unicode="&#x153;" horiz-adv-x="893" 
d="M681 510c83 0 173 -39 173 -156c0 -18 -4 -42 -9 -60h-326c-1 -8 -1 -16 -1 -24c0 -146 81 -221 189 -221c62 0 100 18 129 37l10 -21c-20 -18 -78 -75 -175 -75c-94 0 -161 44 -199 108c-40 -66 -109 -108 -196 -108c-144 0 -237 115 -237 260s93 260 237 260
c89 0 159 -45 199 -114c46 74 125 114 206 114zM276 478c-92 0 -148 -78 -148 -228s56 -228 148 -228s148 78 148 228s-56 228 -148 228zM523 331h240c5 19 6 38 6 53c-2 66 -41 94 -93 94c-78 0 -135 -57 -153 -147z" />
    <glyph glyph-name="zcaron" unicode="&#x17e;" horiz-adv-x="476" 
d="M128 32h197c55 0 78 25 98 121h26l-14 -153h-408v22l302 446h-173c-55 0 -69 -33 -89 -121h-26l9 153h380v-22zM149 712l101 -83l103 83h22l-113 -162h-23l-113 162h23z" />
    <glyph glyph-name="Ydieresis" unicode="&#x178;" horiz-adv-x="647" 
d="M196 805c0 32 23 55 53 55c31 0 54 -23 54 -55s-23 -53 -54 -53c-30 0 -53 21 -53 53zM389 805c0 32 24 55 55 55c30 0 53 -23 53 -55s-23 -53 -53 -53c-31 0 -55 21 -55 53zM296 71v175l-195 375c-16 31 -34 50 -93 55v24h256v-24c-80 -9 -89 -19 -68 -61l161 -321h2
l135 300c26 58 19 72 -63 82v24h208v-24c-55 -10 -76 -17 -94 -57l-164 -358v-190c0 -41 9 -42 86 -47v-24h-257v24c77 5 86 6 86 47z" />
    <glyph glyph-name="exclamdown" unicode="&#xa1;" horiz-adv-x="308" 
d="M144 337h22c11 -176 36 -429 36 -497c0 -26 -10 -50 -47 -50s-47 24 -47 50c0 68 23 321 36 497zM94 450c0 34 26 60 60 60c33 0 60 -26 60 -60c0 -33 -27 -60 -60 -60c-34 0 -60 27 -60 60z" />
    <glyph glyph-name="cent" unicode="&#xa2;" horiz-adv-x="443" 
d="M245 190v40c-111 5 -196 94 -196 216s85 208 196 214v40h26v-41c53 -3 94 -22 116 -35l6 -85h-16c-11 48 -44 90 -106 96v-380c69 6 97 51 108 96h15l-7 -85c-22 -14 -63 -33 -116 -36v-40h-26zM114 446c0 -117 57 -186 131 -192v381c-74 -6 -131 -73 -131 -189z" />
    <glyph glyph-name="sterling" unicode="&#xa3;" horiz-adv-x="590" 
d="M60 342h102c-27 51 -60 99 -60 155c0 95 74 164 201 164c57 0 121 -14 172 -42l10 -153h-23c-26 108 -77 158 -156 158c-69 0 -120 -35 -120 -102c0 -65 41 -115 62 -180h150v-36h-141c2 -13 4 -26 4 -40c0 -59 -26 -128 -62 -182c87 -3 169 -30 221 -30
c38 0 73 16 95 106h26c-11 -51 -34 -180 -146 -180c-75 0 -126 51 -225 66c-30 -34 -64 -56 -94 -56c-14 0 -27 11 -27 27c0 45 67 61 107 65c30 49 41 97 41 145c0 28 -7 54 -18 79h-119v36z" />
    <glyph glyph-name="currency" unicode="&#xa4;" horiz-adv-x="546" 
d="M124 249c0 45 17 85 46 114l-74 90l8 8l74 -90c26 22 60 36 96 36c35 0 68 -14 93 -36l74 90l9 -8l-74 -89c29 -29 47 -70 47 -115s-18 -86 -47 -114l73 -86l-9 -9l-73 87c-25 -22 -58 -35 -93 -35c-36 0 -70 13 -96 35l-71 -87l-9 9l72 86c-29 29 -46 69 -46 114z
M136 249c0 -79 62 -145 138 -145c74 0 137 66 137 145s-63 146 -137 146c-76 0 -138 -67 -138 -146z" />
    <glyph glyph-name="yen" unicode="&#xa5;" horiz-adv-x="688" 
d="M175 252h128l-169 324c-15 29 -31 46 -85 51v23h241v-23c-72 -8 -82 -18 -61 -57l147 -293h2l125 274c24 53 16 67 -59 76v23h195v-23c-51 -9 -72 -16 -89 -53l-148 -322h140v-36h-142v-150c0 -37 8 -38 79 -43v-23h-243v23c70 5 79 6 79 43v150h-140v36z" />
    <glyph glyph-name="brokenbar" unicode="&#xa6;" horiz-adv-x="235" 
d="M136 820v-360h-37v360h37zM136 260v-360h-37v360h37z" />
    <glyph glyph-name="section" unicode="&#xa7;" horiz-adv-x="445" 
d="M245 684c-89 0 -131 -71 -131 -155c0 -117 84 -274 153 -360l-19 -18c-57 58 -208 259 -208 384c0 130 90 185 180 185c105 0 185 -60 185 -140c0 -40 -30 -40 -40 -40c-15 0 -35 10 -35 30c0 25 25 25 25 50s-30 64 -110 64zM200 16c89 0 131 71 131 155
c0 117 -84 274 -153 360l19 18c57 -58 208 -259 208 -384c0 -130 -90 -185 -180 -185c-105 0 -185 60 -185 140c0 40 30 40 40 40c15 0 35 -10 35 -30c0 -25 -25 -25 -25 -50s30 -64 110 -64z" />
    <glyph glyph-name="dieresis" unicode="&#xa8;" horiz-adv-x="465" 
d="M96 599c0 29 21 50 49 50s50 -21 50 -50c0 -30 -22 -49 -50 -49s-49 19 -49 49zM270 599c0 29 22 50 50 50s49 -21 49 -50c0 -30 -21 -49 -49 -49s-50 19 -50 49z" />
    <glyph glyph-name="copyright" unicode="&#xa9;" horiz-adv-x="685" 
d="M40 408c0 167 136 302 303 302s302 -135 302 -302s-135 -303 -302 -303s-303 136 -303 303zM59 408c0 -157 127 -284 284 -284s284 127 284 284s-127 284 -284 284s-284 -127 -284 -284zM353 248c68 0 92 41 102 81h12l-7 -69c-20 -13 -57 -30 -107 -30
c-94 0 -168 75 -168 180s74 180 168 180c50 0 87 -18 107 -30l5 -70h-12c-10 44 -40 82 -100 82c-69 0 -123 -62 -123 -162s54 -162 123 -162z" />
    <glyph glyph-name="ordfeminine" unicode="&#xaa;" horiz-adv-x="402" 
d="M44 354h314v-33h-314v33zM292 617v-169c0 -13 7 -18 17 -18c11 0 21 4 33 12l3 -14c-21 -16 -51 -34 -77 -34c-28 0 -36 17 -36 38v10h-1c-29 -29 -59 -48 -95 -48c-46 0 -70 30 -70 68c0 37 27 83 166 94v56c0 45 -20 69 -59 69c-34 0 -56 -20 -56 -38
c0 -15 15 -17 15 -33c0 -11 -12 -21 -28 -21c-15 0 -29 9 -29 27c0 30 41 90 123 90c63 0 94 -38 94 -89zM232 461v77c-78 -10 -106 -29 -106 -63c0 -26 17 -41 39 -41c24 0 47 12 67 27z" />
    <glyph glyph-name="guillemotleft" unicode="&#xab;" horiz-adv-x="725" 
d="M378 422l-172 -153l172 -156v-41l-281 186v21l281 185v-42zM628 422l-172 -153l172 -156v-41l-281 186v21l281 185v-42z" />
    <glyph glyph-name="logicalnot" unicode="&#xac;" horiz-adv-x="597" 
d="M501 289v-203h-43v160h-360v43h403z" />
    <glyph glyph-name="uni00AD" unicode="&#xad;" horiz-adv-x="441" 
d="M60 286h321v-37h-321v37z" />
    <glyph glyph-name="registered" unicode="&#xae;" horiz-adv-x="685" 
d="M40 408c0 167 136 302 303 302s302 -135 302 -302s-135 -303 -302 -303s-303 136 -303 303zM59 408c0 -157 127 -284 284 -284s284 127 284 284s-127 284 -284 284s-284 -127 -284 -284zM196 593h146c75 0 116 -40 116 -95c0 -44 -27 -90 -103 -101c23 -13 37 -32 50 -49
l43 -62c19 -26 38 -29 58 -31v-12h-74c-12 12 -29 34 -37 49l-29 45c-14 21 -31 45 -50 58h-35v-117c0 -20 5 -21 44 -23v-12h-129v12c39 2 43 3 43 23v279c0 21 -4 21 -43 24v12zM331 576h-50v-163h37c73 0 94 36 94 80c0 40 -18 83 -81 83z" />
    <glyph glyph-name="macron" unicode="&#xaf;" horiz-adv-x="474" 
d="M96 584h282v-34h-282v34z" />
    <glyph glyph-name="degree" unicode="&#xb0;" horiz-adv-x="252" 
d="M38 572c0 49 38 88 87 88s89 -39 89 -88s-40 -88 -89 -88s-87 39 -87 88zM68 572c0 -32 25 -57 57 -57c34 0 58 25 58 57c0 33 -24 58 -58 58c-32 0 -57 -25 -57 -58z" />
    <glyph glyph-name="plusminus" unicode="&#xb1;" horiz-adv-x="560" 
d="M99 176h162v133h-162v37h162v163h37v-163h163v-37h-163v-133h163v-37h-362v37z" />
    <glyph glyph-name="twosuperior" unicode="&#xb2;" horiz-adv-x="313" 
d="M143 782c-43 0 -59 -23 -59 -38s15 -17 15 -33c0 -14 -16 -20 -28 -20c-14 0 -30 4 -30 26c0 49 50 89 116 89c64 0 118 -37 118 -112c0 -79 -59 -145 -186 -234h194v-50h-253v28c114 89 182 157 182 255c0 44 -20 89 -69 89z" />
    <glyph glyph-name="threesuperior" unicode="&#xb3;" horiz-adv-x="317" 
d="M287 520c0 -75 -65 -116 -137 -116c-66 0 -120 40 -120 89c0 22 16 26 30 26c12 0 27 -6 27 -20c0 -16 -15 -18 -15 -33s21 -38 64 -38c48 -1 87 33 87 83c0 80 -42 91 -103 91v26c43 -2 91 14 91 83c0 40 -19 71 -65 71c-44 0 -60 -23 -60 -38s15 -17 15 -33
c0 -14 -16 -20 -27 -20c-14 0 -30 4 -30 26c0 49 50 89 116 89c73 0 110 -39 110 -94c0 -43 -33 -80 -80 -94v-1c58 -9 97 -46 97 -97z" />
    <glyph glyph-name="acute" unicode="&#xb4;" horiz-adv-x="347" 
d="M232 641l-125 -91l-11 10l84 131c7 11 19 18 31 19c21 1 40 -17 40 -37c0 -11 -5 -22 -19 -32z" />
    <glyph glyph-name="mu" unicode="&#xb5;" horiz-adv-x="609" 
d="M427 124v273c0 43 -9 44 -106 49v23l177 41h12v-427c0 -43 9 -44 86 -49v-23l-151 -21h-12l-1 105h-5c-49 -59 -119 -105 -192 -105c-23 0 -46 5 -65 15c-6 -139 -61 -215 -133 -215c-35 0 -51 17 -51 42c0 20 14 38 39 38c27 0 48 -16 64 -16c18 0 19 30 19 104v439
c0 43 -9 44 -86 49v23l157 41h12v-367c0 -54 27 -89 81 -89c64 0 120 36 155 70z" />
    <glyph glyph-name="paragraph" unicode="&#xb6;" horiz-adv-x="649" 
d="M298 71v229c-160 0 -230 110 -230 210c0 110 80 190 190 190h111v-700h-157v24c77 5 86 6 86 47zM424 0v700h157v-24c-77 -5 -86 -6 -86 -47v-558c0 -41 9 -42 86 -47v-24h-157z" />
    <glyph glyph-name="periodcentered" unicode="&#xb7;" horiz-adv-x="356" 
d="M119 248c0 34 26 60 60 60c33 0 60 -26 60 -60c0 -33 -27 -60 -60 -60c-34 0 -60 27 -60 60z" />
    <glyph glyph-name="cedilla" unicode="&#xb8;" horiz-adv-x="349" 
d="M135 0h26v-36c31 -6 92 -28 92 -85c0 -54 -68 -90 -148 -102l-9 25c32 7 92 21 92 66c0 31 -27 43 -56 51z" />
    <glyph glyph-name="onesuperior" unicode="&#xb9;" horiz-adv-x="334" 
d="M141 453v309l-107 -25l-4 15l154 54h17v-353c0 -23 12 -24 103 -27v-16h-267v16c91 3 104 4 104 27z" />
    <glyph glyph-name="ordmasculine" unicode="&#xba;" horiz-adv-x="402" 
d="M44 354h314v-33h-314v33zM202 394c-88 0 -144 69 -144 156s56 156 144 156s145 -69 145 -156s-57 -156 -145 -156zM202 684c-51 0 -81 -44 -81 -134s30 -134 81 -134s82 44 82 134s-31 134 -82 134z" />
    <glyph glyph-name="guillemotright" unicode="&#xbb;" horiz-adv-x="725" 
d="M519 269l-172 153v42l281 -185v-21l-281 -186v41zM269 269l-172 153v42l281 -185v-21l-281 -186v41z" />
    <glyph glyph-name="onequarter" unicode="&#xbc;" horiz-adv-x="850" 
d="M703 0h62v108h55v24h-55v264h-42l-198 -273v-15h178v-108zM141 353v309l-107 -25l-4 15l154 54h17v-353c0 -23 12 -24 103 -27v-16h-267v16c91 3 104 4 104 27zM558 710h35l-240 -720h-36zM703 329v-197h-146z" />
    <glyph glyph-name="onehalf" unicode="&#xbd;" horiz-adv-x="850" 
d="M141 353v309l-107 -25l-4 15l154 54h17v-353c0 -23 12 -24 103 -27v-16h-267v16c91 3 104 4 104 27zM680 372c-44 0 -60 -23 -60 -38s15 -17 15 -33c0 -14 -16 -20 -27 -20c-14 0 -30 4 -30 26c0 49 50 89 115 89s119 -37 119 -112c0 -79 -59 -145 -186 -234h194v-50
h-253v28c113 89 182 157 182 255c0 44 -20 89 -69 89zM558 710h35l-240 -720h-36z" />
    <glyph glyph-name="threequarters" unicode="&#xbe;" horiz-adv-x="850" 
d="M703 0h62v108h55v24h-55v264h-42l-198 -273v-15h178v-108zM287 420c0 51 -39 88 -97 97v1c47 14 80 51 80 94c0 55 -37 94 -110 94c-66 0 -116 -40 -116 -89c0 -22 16 -26 30 -26c11 0 27 6 27 20c0 16 -15 18 -15 33s16 38 60 38c46 0 65 -31 65 -71
c0 -69 -48 -85 -91 -83v-26c61 0 103 -11 103 -91c0 -50 -39 -84 -87 -83c-43 0 -64 23 -64 38s15 17 15 33c0 14 -15 20 -27 20c-14 0 -30 -4 -30 -26c0 -49 54 -89 120 -89c72 0 137 41 137 116zM558 710h35l-240 -720h-36zM703 329v-197h-146z" />
    <glyph glyph-name="questiondown" unicode="&#xbf;" horiz-adv-x="491" 
d="M283 -174c79 0 107 41 107 66s-25 27 -25 53c0 23 24 33 42 33s46 -5 46 -43c0 -81 -82 -145 -190 -145c-101 0 -191 59 -191 186c0 123 136 190 193 218l7 143h22l10 -153c-53 -35 -143 -93 -143 -207c0 -76 36 -151 122 -151zM340 450c0 -33 -26 -60 -60 -60
c-33 0 -60 27 -60 60c0 34 27 60 60 60c34 0 60 -26 60 -60z" />
    <glyph glyph-name="Agrave" unicode="&#xc0;" horiz-adv-x="693" 
d="M342 740l-138 101c-15 11 -21 23 -21 35c0 22 20 41 43 40c12 -1 25 -9 34 -21l93 -145zM360 705l231 -626c12 -34 25 -49 85 -55v-24h-256v24c80 9 92 17 76 61l-52 147h-252l-42 -126c-20 -60 -7 -72 75 -82v-24h-208v24c55 10 69 16 82 57l213 624h48zM313 596
l-109 -328h227l-116 328h-2z" />
    <glyph glyph-name="Aacute" unicode="&#xc1;" horiz-adv-x="693" 
d="M476 841l-138 -101l-11 10l93 145c8 12 21 20 33 21c23 1 44 -18 44 -40c0 -12 -6 -24 -21 -35zM360 705l231 -626c12 -34 25 -49 85 -55v-24h-256v24c80 9 92 17 76 61l-52 147h-252l-42 -126c-20 -60 -7 -72 75 -82v-24h-208v24c55 10 69 16 82 57l213 624h48zM313 596
l-109 -328h227l-116 328h-2z" />
    <glyph glyph-name="Acircumflex" unicode="&#xc2;" horiz-adv-x="693" 
d="M335 834l-114 -94h-22l124 180h23l125 -180h-22zM360 705l231 -626c12 -34 25 -49 85 -55v-24h-256v24c80 9 92 17 76 61l-52 147h-252l-42 -126c-20 -60 -7 -72 75 -82v-24h-208v24c55 10 69 16 82 57l213 624h48zM313 596l-109 -328h227l-116 328h-2z" />
    <glyph glyph-name="Atilde" unicode="&#xc3;" horiz-adv-x="693" 
d="M177 759l-16 11c22 45 56 111 101 111c36 0 121 -40 171 -40c25 0 44 10 64 40l16 -11c-24 -47 -51 -101 -96 -101c-42 0 -121 40 -168 40c-33 0 -46 -16 -72 -50zM360 705l231 -626c12 -34 25 -49 85 -55v-24h-256v24c80 9 92 17 76 61l-52 147h-252l-42 -126
c-20 -60 -7 -72 75 -82v-24h-208v24c55 10 69 16 82 57l213 624h48zM313 596l-109 -328h227l-116 328h-2z" />
    <glyph glyph-name="Adieresis" unicode="&#xc4;" horiz-adv-x="693" 
d="M182 805c0 32 23 55 53 55c31 0 54 -23 54 -55s-23 -53 -54 -53c-30 0 -53 21 -53 53zM375 805c0 32 24 55 55 55c30 0 53 -23 53 -55s-23 -53 -53 -53c-31 0 -55 21 -55 53zM360 705l231 -626c12 -34 25 -49 85 -55v-24h-256v24c80 9 92 17 76 61l-52 147h-252l-42 -126
c-20 -60 -7 -72 75 -82v-24h-208v24c55 10 69 16 82 57l213 624h48zM313 596l-109 -328h227l-116 328h-2z" />
    <glyph glyph-name="Aring" unicode="&#xc5;" horiz-adv-x="693" 
d="M249 781c0 49 38 88 87 88s88 -39 88 -88c0 -40 -26 -73 -62 -84l229 -618c12 -34 25 -49 85 -55v-24h-256v24c80 9 92 17 76 61l-52 147h-252l-42 -126c-20 -60 -7 -72 75 -82v-24h-208v24c55 10 69 16 82 57l210 616c-35 11 -60 44 -60 84zM313 596l-109 -328h227
l-116 328h-2zM279 781c0 -32 25 -57 57 -57c33 0 58 25 58 57c0 33 -25 58 -58 58c-32 0 -57 -25 -57 -58z" />
    <glyph glyph-name="AE" unicode="&#xc6;" horiz-adv-x="921" 
d="M362 24c77 5 86 6 86 47v163h-200l-69 -128c-15 -26 -36 -72 46 -82v-24h-208v24c55 10 86 19 107 57l339 619h402l5 -163h-24c-20 87 -49 129 -128 129h-185v-292h100c65 0 100 20 109 100h24v-236h-24c-9 80 -44 100 -109 100h-100v-304h177c79 0 124 30 147 129h24
l-10 -163h-509v24zM448 602h-2l-179 -332h181v332z" />
    <glyph glyph-name="Ccedilla" unicode="&#xc7;" horiz-adv-x="645" 
d="M387 26c136 0 184 83 204 163h24l-14 -139c-40 -25 -113 -59 -211 -60v-30c31 -6 101 -31 101 -92c0 -63 -78 -101 -163 -114l-9 26c35 8 104 24 104 74c0 35 -34 50 -64 59l2 78c-176 13 -311 158 -311 359c0 210 148 360 337 360c100 0 174 -35 214 -60l10 -139h-24
c-20 88 -80 163 -200 163c-138 0 -246 -124 -246 -324s108 -324 246 -324z" />
    <glyph glyph-name="Egrave" unicode="&#xc8;" 
d="M333 740l-138 101c-15 11 -21 23 -21 35c0 22 20 41 43 40c12 -1 25 -9 34 -21l93 -145zM535 700l5 -163h-24c-20 87 -49 129 -128 129h-185v-292h100c64 0 100 20 109 100h24v-236h-24c-9 80 -45 100 -109 100h-100v-304h177c79 0 124 30 147 129h24l-10 -163h-509v24
c77 5 86 6 86 47v558c0 41 -9 42 -86 47v24h503z" />
    <glyph glyph-name="Eacute" unicode="&#xc9;" 
d="M454 841l-138 -101l-11 10l93 145c8 12 21 20 33 21c23 1 44 -18 44 -40c0 -12 -6 -24 -21 -35zM535 700l5 -163h-24c-20 87 -49 129 -128 129h-185v-292h100c64 0 100 20 109 100h24v-236h-24c-9 80 -45 100 -109 100h-100v-304h177c79 0 124 30 147 129h24l-10 -163
h-509v24c77 5 86 6 86 47v558c0 41 -9 42 -86 47v24h503z" />
    <glyph glyph-name="Ecircumflex" unicode="&#xca;" 
d="M322 834l-114 -94h-22l124 180h23l125 -180h-22zM535 700l5 -163h-24c-20 87 -49 129 -128 129h-185v-292h100c64 0 100 20 109 100h24v-236h-24c-9 80 -45 100 -109 100h-100v-304h177c79 0 124 30 147 129h24l-10 -163h-509v24c77 5 86 6 86 47v558c0 41 -9 42 -86 47
v24h503z" />
    <glyph glyph-name="Edieresis" unicode="&#xcb;" 
d="M164 805c0 32 23 55 53 55c31 0 54 -23 54 -55s-23 -53 -54 -53c-30 0 -53 21 -53 53zM357 805c0 32 24 55 55 55c30 0 53 -23 53 -55s-23 -53 -53 -53c-31 0 -55 21 -55 53zM535 700l5 -163h-24c-20 87 -49 129 -128 129h-185v-292h100c64 0 100 20 109 100h24v-236h-24
c-9 80 -45 100 -109 100h-100v-304h177c79 0 124 30 147 129h24l-10 -163h-509v24c77 5 86 6 86 47v558c0 41 -9 42 -86 47v24h503z" />
    <glyph glyph-name="Igrave" unicode="&#xcc;" horiz-adv-x="337" 
d="M176 740l-138 101c-15 11 -21 23 -21 35c0 22 20 41 43 40c12 -1 25 -9 34 -21l93 -145zM126 71v558c0 41 -9 42 -86 47v24h257v-24c-77 -5 -86 -6 -86 -47v-558c0 -41 9 -42 86 -47v-24h-257v24c77 5 86 6 86 47z" />
    <glyph glyph-name="Iacute" unicode="&#xcd;" horiz-adv-x="337" 
d="M301 841l-138 -101l-11 10l93 145c8 12 21 20 33 21c23 1 44 -18 44 -40c0 -12 -6 -24 -21 -35zM126 71v558c0 41 -9 42 -86 47v24h257v-24c-77 -5 -86 -6 -86 -47v-558c0 -41 9 -42 86 -47v-24h-257v24c77 5 86 6 86 47z" />
    <glyph glyph-name="Icircumflex" unicode="&#xce;" horiz-adv-x="337" 
d="M168 834l-114 -94h-22l124 180h23l125 -180h-22zM129 71v558c0 41 -9 42 -86 47v24h257v-24c-77 -5 -86 -6 -86 -47v-558c0 -41 9 -42 86 -47v-24h-257v24c77 5 86 6 86 47z" />
    <glyph glyph-name="Idieresis" unicode="&#xcf;" horiz-adv-x="337" 
d="M18 805c0 32 23 55 53 55c31 0 54 -23 54 -55s-23 -53 -54 -53c-30 0 -53 21 -53 53zM211 805c0 32 24 55 55 55c30 0 53 -23 53 -55s-23 -53 -53 -53c-31 0 -55 21 -55 53zM126 71v558c0 41 -9 42 -86 47v24h257v-24c-77 -5 -86 -6 -86 -47v-558c0 -41 9 -42 86 -47v-24
h-257v24c77 5 86 6 86 47z" />
    <glyph glyph-name="Eth" unicode="&#xd0;" horiz-adv-x="742" 
d="M353 0h-313v24c77 5 86 6 86 47v263h-85v34h85v261c0 41 -9 42 -86 47v24h313c189 0 339 -140 339 -350s-150 -350 -339 -350zM211 34h142c139 0 248 110 248 316s-111 316 -248 316h-142v-298h120v-34h-120v-300z" />
    <glyph glyph-name="Ntilde" unicode="&#xd1;" horiz-adv-x="734" 
d="M234 759l-16 11c22 45 56 111 101 111c36 0 121 -40 171 -40c25 0 44 10 64 40l16 -11c-24 -47 -51 -101 -96 -101c-42 0 -121 40 -168 40c-33 0 -46 -16 -72 -50zM611 -5h-46l-392 632v-556c0 -41 9 -42 100 -47v-24h-233v24c83 5 92 6 92 47v558c0 41 -9 42 -92 47v24
h189l341 -551v480c0 41 -9 42 -100 47v24h233v-24c-83 -5 -92 -6 -92 -47v-634z" />
    <glyph glyph-name="Ograve" unicode="&#xd2;" horiz-adv-x="778" 
d="M403 740l-138 101c-15 11 -21 23 -21 35c0 22 20 41 43 40c12 -1 25 -9 34 -21l93 -145zM389 -10c-189 0 -339 150 -339 360s150 360 339 360s339 -150 339 -360s-150 -360 -339 -360zM389 674c-139 0 -248 -118 -248 -324s109 -324 248 -324s248 118 248 324
s-109 324 -248 324z" />
    <glyph glyph-name="Oacute" unicode="&#xd3;" horiz-adv-x="778" 
d="M532 841l-138 -101l-11 10l93 145c8 12 21 20 33 21c23 1 44 -18 44 -40c0 -12 -6 -24 -21 -35zM389 -10c189 0 339 150 339 360s-150 360 -339 360s-339 -150 -339 -360s150 -360 339 -360zM389 674c139 0 248 -118 248 -324s-109 -324 -248 -324s-248 118 -248 324
s109 324 248 324z" />
    <glyph glyph-name="Ocircumflex" unicode="&#xd4;" horiz-adv-x="778" 
d="M389 834l-114 -94h-22l124 180h23l125 -180h-22zM389 -10c189 0 339 150 339 360s-150 360 -339 360s-339 -150 -339 -360s150 -360 339 -360zM389 674c139 0 248 -118 248 -324s-109 -324 -248 -324s-248 118 -248 324s109 324 248 324z" />
    <glyph glyph-name="Otilde" unicode="&#xd5;" horiz-adv-x="778" 
d="M239 759l-16 11c22 45 56 111 101 111c36 0 121 -40 171 -40c25 0 44 10 64 40l16 -11c-24 -47 -51 -101 -96 -101c-42 0 -121 40 -168 40c-33 0 -46 -16 -72 -50zM389 -10c189 0 339 150 339 360s-150 360 -339 360s-339 -150 -339 -360s150 -360 339 -360zM389 674
c139 0 248 -118 248 -324s-109 -324 -248 -324s-248 118 -248 324s109 324 248 324z" />
    <glyph glyph-name="Odieresis" unicode="&#xd6;" horiz-adv-x="778" 
d="M239 805c0 32 23 55 53 55c31 0 54 -23 54 -55s-23 -53 -54 -53c-30 0 -53 21 -53 53zM432 805c0 32 24 55 55 55c30 0 53 -23 53 -55s-23 -53 -53 -53c-31 0 -55 21 -55 53zM389 -10c189 0 339 150 339 360s-150 360 -339 360s-339 -150 -339 -360s150 -360 339 -360z
M389 674c139 0 248 -118 248 -324s-109 -324 -248 -324s-248 118 -248 324s109 324 248 324z" />
    <glyph glyph-name="multiply" unicode="&#xd7;" horiz-adv-x="550" 
d="M451 475l-151 -151l151 -151l-26 -25l-151 150l-150 -150l-25 26l150 150l-150 150l25 25l150 -150l151 150z" />
    <glyph glyph-name="Oslash" unicode="&#xd8;" horiz-adv-x="778" 
d="M389 -10c-40 0 -78 7 -114 19l-19 -49h-42l25 64c-113 56 -189 176 -189 326c0 210 150 360 339 360c41 0 80 -8 116 -21l20 51h41l-26 -65c112 -56 188 -176 188 -325c0 -210 -150 -360 -339 -360zM389 674c-139 0 -248 -118 -248 -324c0 -134 46 -230 116 -282l232 583
c-30 15 -64 23 -100 23zM389 26c139 0 248 118 248 324c0 132 -45 229 -115 280l-231 -582c30 -15 63 -22 98 -22z" />
    <glyph glyph-name="Ugrave" unicode="&#xd9;" horiz-adv-x="754" 
d="M438 740l-138 101c-15 11 -21 23 -21 35c0 22 20 41 43 40c12 -1 25 -9 34 -21l93 -145zM118 270v359c0 41 -9 42 -86 47v24h257v-24c-77 -5 -86 -6 -86 -47v-349c0 -154 62 -241 195 -241c130 0 198 88 198 241v349c0 41 -9 42 -94 47v24h227v-24c-83 -5 -92 -6 -92 -47
v-359c0 -180 -101 -280 -264 -280c-177 0 -255 107 -255 280z" />
    <glyph glyph-name="Uacute" unicode="&#xda;" horiz-adv-x="754" 
d="M520 841l-138 -101l-11 10l93 145c8 12 21 20 33 21c23 1 44 -18 44 -40c0 -12 -6 -24 -21 -35zM118 270v359c0 41 -9 42 -86 47v24h257v-24c-77 -5 -86 -6 -86 -47v-349c0 -154 62 -241 195 -241c130 0 198 88 198 241v349c0 41 -9 42 -94 47v24h227v-24
c-83 -5 -92 -6 -92 -47v-359c0 -180 -101 -280 -264 -280c-177 0 -255 107 -255 280z" />
    <glyph glyph-name="Ucircumflex" unicode="&#xdb;" horiz-adv-x="754" 
d="M394 834l-114 -94h-22l124 180h23l125 -180h-22zM118 270v359c0 41 -9 42 -86 47v24h257v-24c-77 -5 -86 -6 -86 -47v-349c0 -154 62 -241 195 -241c130 0 198 88 198 241v349c0 41 -9 42 -94 47v24h227v-24c-83 -5 -92 -6 -92 -47v-359c0 -180 -101 -280 -264 -280
c-177 0 -255 107 -255 280z" />
    <glyph glyph-name="Udieresis" unicode="&#xdc;" horiz-adv-x="754" 
d="M249 805c0 32 23 55 53 55c31 0 54 -23 54 -55s-23 -53 -54 -53c-30 0 -53 21 -53 53zM442 805c0 32 24 55 55 55c30 0 53 -23 53 -55s-23 -53 -53 -53c-31 0 -55 21 -55 53zM118 270v359c0 41 -9 42 -86 47v24h257v-24c-77 -5 -86 -6 -86 -47v-349
c0 -154 62 -241 195 -241c130 0 198 88 198 241v349c0 41 -9 42 -94 47v24h227v-24c-83 -5 -92 -6 -92 -47v-359c0 -180 -101 -280 -264 -280c-177 0 -255 107 -255 280z" />
    <glyph glyph-name="Yacute" unicode="&#xdd;" horiz-adv-x="647" 
d="M466 841l-138 -101l-11 10l93 145c8 12 21 20 33 21c23 1 44 -18 44 -40c0 -12 -6 -24 -21 -35zM296 71v175l-195 375c-16 31 -34 50 -93 55v24h256v-24c-80 -9 -89 -19 -68 -61l161 -321h2l135 300c26 58 19 72 -63 82v24h208v-24c-55 -10 -76 -17 -94 -57l-164 -358
v-190c0 -41 9 -42 86 -47v-24h-257v24c77 5 86 6 86 47z" />
    <glyph glyph-name="Thorn" unicode="&#xde;" horiz-adv-x="612" 
d="M126 71v558c0 41 -9 42 -86 47v24h257v-24c-77 -5 -86 -6 -86 -47v-69h130c150 0 233 -80 233 -190c0 -100 -68 -208 -278 -208h-85v-91c0 -41 9 -42 86 -47v-24h-257v24c77 5 86 6 86 47zM320 526h-109v-328h83c147 0 189 74 189 162c0 80 -36 166 -163 166z" />
    <glyph glyph-name="germandbls" unicode="&#xdf;" horiz-adv-x="628" 
d="M478 613c0 -79 -105 -122 -105 -193c0 -88 216 -132 216 -280c0 -95 -77 -150 -172 -150c-45 0 -84 11 -128 35l-12 135h24c26 -117 66 -139 115 -139c61 0 96 40 96 91c0 134 -201 154 -201 259c0 74 92 127 92 235c0 61 -29 96 -75 96c-79 0 -128 -60 -128 -190v-512
h-169v23c77 5 86 6 86 47v393h-86v29l86 8v10c0 112 97 220 218 220c87 0 143 -48 143 -117z" />
    <glyph glyph-name="agrave" unicode="&#xe0;" horiz-adv-x="511" 
d="M407 363v-287c0 -22 13 -32 32 -32c17 0 36 8 58 22l5 -20c-35 -26 -85 -56 -125 -56c-43 0 -53 28 -53 62v18h-2c-50 -48 -102 -80 -162 -80c-77 0 -116 50 -116 112s44 136 280 156v94c0 80 -38 121 -103 121c-60 0 -99 -35 -99 -66c0 -25 25 -27 25 -53
c0 -19 -18 -33 -44 -33c-23 0 -44 13 -44 43c0 46 65 146 199 146c102 0 149 -62 149 -147zM324 97v135c-148 -19 -196 -53 -196 -113c0 -45 30 -72 71 -72c43 0 85 24 125 50zM256 550l-125 91c-14 10 -19 21 -19 32c0 20 18 38 40 37c11 -1 23 -8 31 -19l84 -131z" />
    <glyph glyph-name="aacute" unicode="&#xe1;" horiz-adv-x="511" 
d="M407 363v-287c0 -22 13 -32 32 -32c17 0 36 8 58 22l5 -20c-35 -26 -85 -56 -125 -56c-43 0 -53 28 -53 62v18h-2c-50 -48 -102 -80 -162 -80c-77 0 -116 50 -116 112s44 136 280 156v94c0 80 -38 121 -103 121c-60 0 -99 -35 -99 -66c0 -25 25 -27 25 -53
c0 -19 -18 -33 -44 -33c-23 0 -44 13 -44 43c0 46 65 146 199 146c102 0 149 -62 149 -147zM324 97v135c-148 -19 -196 -53 -196 -113c0 -45 30 -72 71 -72c43 0 85 24 125 50zM354 641l-125 -91l-11 10l84 131c7 11 19 18 31 19c21 1 40 -17 40 -37c0 -11 -5 -22 -19 -32z
" />
    <glyph glyph-name="acircumflex" unicode="&#xe2;" horiz-adv-x="511" 
d="M407 363v-287c0 -22 13 -32 32 -32c17 0 36 8 58 22l5 -20c-35 -26 -85 -56 -125 -56c-43 0 -53 28 -53 62v18h-2c-50 -48 -102 -80 -162 -80c-77 0 -116 50 -116 112s44 136 280 156v94c0 80 -38 121 -103 121c-60 0 -99 -35 -99 -66c0 -25 25 -27 25 -53
c0 -19 -18 -33 -44 -33c-23 0 -44 13 -44 43c0 46 65 146 199 146c102 0 149 -62 149 -147zM324 97v135c-148 -19 -196 -53 -196 -113c0 -45 30 -72 71 -72c43 0 85 24 125 50zM243 633l-101 -83h-23l113 162h23l113 -162h-22z" />
    <glyph glyph-name="atilde" unicode="&#xe3;" horiz-adv-x="511" 
d="M407 363v-287c0 -22 13 -32 32 -32c17 0 36 8 58 22l5 -20c-35 -26 -85 -56 -125 -56c-43 0 -53 28 -53 62v18h-2c-50 -48 -102 -80 -162 -80c-77 0 -116 50 -116 112s44 136 280 156v94c0 80 -38 121 -103 121c-60 0 -99 -35 -99 -66c0 -25 25 -27 25 -53
c0 -19 -18 -33 -44 -33c-23 0 -44 13 -44 43c0 46 65 146 199 146c102 0 149 -62 149 -147zM324 97v135c-148 -19 -196 -53 -196 -113c0 -45 30 -72 71 -72c43 0 85 24 125 50zM101 542l-16 11c19 39 51 102 93 102c36 0 109 -36 144 -36c31 0 47 5 67 35l17 -11
c-19 -38 -47 -93 -89 -93s-106 36 -148 36c-33 0 -45 -12 -68 -44z" />
    <glyph glyph-name="adieresis" unicode="&#xe4;" horiz-adv-x="511" 
d="M407 363v-287c0 -22 13 -32 32 -32c17 0 36 8 58 22l5 -20c-35 -26 -85 -56 -125 -56c-43 0 -53 28 -53 62v18h-2c-50 -48 -102 -80 -162 -80c-77 0 -116 50 -116 112s44 136 280 156v94c0 80 -38 121 -103 121c-60 0 -99 -35 -99 -66c0 -25 25 -27 25 -53
c0 -19 -18 -33 -44 -33c-23 0 -44 13 -44 43c0 46 65 146 199 146c102 0 149 -62 149 -147zM324 97v135c-148 -19 -196 -53 -196 -113c0 -45 30 -72 71 -72c43 0 85 24 125 50zM107 599c0 29 21 50 49 50s50 -21 50 -50c0 -30 -22 -49 -50 -49s-49 19 -49 49zM281 599
c0 29 22 50 50 50s49 -21 49 -50c0 -30 -21 -49 -49 -49s-50 19 -50 49z" />
    <glyph glyph-name="aring" unicode="&#xe5;" horiz-adv-x="511" 
d="M407 363v-287c0 -22 13 -32 32 -32c17 0 36 8 58 22l5 -20c-35 -26 -85 -56 -125 -56c-43 0 -53 28 -53 62v18h-2c-50 -48 -102 -80 -162 -80c-77 0 -116 50 -116 112s44 136 280 156v94c0 80 -38 121 -103 121c-60 0 -99 -35 -99 -66c0 -25 25 -27 25 -53
c0 -19 -18 -33 -44 -33c-23 0 -44 13 -44 43c0 46 65 146 199 146c102 0 149 -62 149 -147zM324 97v135c-148 -19 -196 -53 -196 -113c0 -45 30 -72 71 -72c43 0 85 24 125 50zM162 629c0 46 35 81 79 81c45 0 81 -35 81 -81c0 -44 -36 -79 -81 -79c-44 0 -79 35 -79 79z
M190 629c0 -28 23 -51 51 -51c31 0 52 23 52 51c0 31 -21 52 -52 52c-28 0 -51 -21 -51 -52z" />
    <glyph glyph-name="ae" unicode="&#xe6;" horiz-adv-x="782" 
d="M570 510c83 0 173 -39 173 -156c0 -18 -4 -42 -9 -60h-326c-1 -8 -1 -16 -1 -24c0 -146 81 -221 189 -221c62 0 100 18 129 37l10 -21c-20 -18 -78 -75 -175 -75c-92 0 -157 42 -196 104c-105 -84 -146 -104 -204 -104c-77 0 -116 50 -116 112s44 136 280 156v94
c0 80 -38 121 -103 121c-60 0 -99 -35 -99 -66c0 -25 25 -27 25 -53c0 -19 -18 -33 -44 -33c-23 0 -44 13 -44 43c0 46 65 146 199 146c70 0 114 -30 135 -76c46 50 111 76 177 76zM199 47c40 0 95 24 152 71c-16 34 -26 73 -27 114c-152 -21 -196 -54 -196 -113
c0 -45 30 -72 71 -72zM565 478c-78 0 -135 -57 -153 -147h240c5 19 6 38 6 53c-2 66 -41 94 -93 94z" />
    <glyph glyph-name="ccedilla" unicode="&#xe7;" horiz-adv-x="484" 
d="M292 478c-100 0 -169 -90 -169 -210c0 -146 80 -219 188 -219c62 0 100 18 129 37l10 -21c-20 -18 -77 -74 -172 -75v-26c31 -6 93 -28 93 -85c0 -54 -68 -90 -148 -102l-9 25c32 7 91 21 91 66c0 31 -27 43 -55 51l2 72c-140 11 -213 125 -213 254
c0 170 121 265 246 265c110 0 167 -65 167 -127c0 -35 -22 -51 -47 -51c-21 0 -39 9 -39 30c0 18 16 28 16 46c0 44 -29 70 -90 70z" />
    <glyph glyph-name="egrave" unicode="&#xe8;" horiz-adv-x="497" 
d="M285 510c83 0 173 -39 173 -156c0 -18 -4 -42 -9 -60h-326c-1 -8 -1 -16 -1 -24c0 -146 81 -221 189 -221c62 0 100 18 129 37l10 -21c-20 -18 -78 -75 -175 -75c-155 0 -236 120 -236 255c0 170 121 265 246 265zM280 478c-78 0 -135 -57 -153 -147h240c5 19 6 38 6 53
c-2 66 -41 94 -93 94zM300 550l-125 91c-14 10 -19 21 -19 32c0 20 18 38 40 37c11 -1 23 -8 31 -19l84 -131z" />
    <glyph glyph-name="eacute" unicode="&#xe9;" horiz-adv-x="497" 
d="M285 510c83 0 173 -39 173 -156c0 -18 -4 -42 -9 -60h-326c-1 -8 -1 -16 -1 -24c0 -146 81 -221 189 -221c62 0 100 18 129 37l10 -21c-20 -18 -78 -75 -175 -75c-155 0 -236 120 -236 255c0 170 121 265 246 265zM280 478c-78 0 -135 -57 -153 -147h240c5 19 6 38 6 53
c-2 66 -41 94 -93 94zM379 641l-125 -91l-11 10l84 131c7 11 19 18 31 19c21 1 40 -17 40 -37c0 -11 -5 -22 -19 -32z" />
    <glyph glyph-name="ecircumflex" unicode="&#xea;" horiz-adv-x="497" 
d="M285 510c83 0 173 -39 173 -156c0 -18 -4 -42 -9 -60h-326c-1 -8 -1 -16 -1 -24c0 -146 81 -221 189 -221c62 0 100 18 129 37l10 -21c-20 -18 -78 -75 -175 -75c-155 0 -236 120 -236 255c0 170 121 265 246 265zM280 478c-78 0 -135 -57 -153 -147h240c5 19 6 38 6 53
c-2 66 -41 94 -93 94zM273 633l-101 -83h-23l113 162h23l113 -162h-22z" />
    <glyph glyph-name="edieresis" unicode="&#xeb;" horiz-adv-x="497" 
d="M285 510c83 0 173 -39 173 -156c0 -18 -4 -42 -9 -60h-326c-1 -8 -1 -16 -1 -24c0 -146 81 -221 189 -221c62 0 100 18 129 37l10 -21c-20 -18 -78 -75 -175 -75c-155 0 -236 120 -236 255c0 170 121 265 246 265zM280 478c-78 0 -135 -57 -153 -147h240c5 19 6 38 6 53
c-2 66 -41 94 -93 94zM132 599c0 29 21 50 49 50s50 -21 50 -50c0 -30 -22 -49 -50 -49s-49 19 -49 49zM306 599c0 29 22 50 50 50s49 -21 49 -50c0 -30 -21 -49 -49 -49s-50 19 -50 49z" />
    <glyph glyph-name="igrave" unicode="&#xec;" horiz-adv-x="299" 
d="M200 510v-440c0 -41 9 -42 86 -47v-23h-255v23c77 5 86 6 86 47v327c0 43 -9 44 -86 49v23l157 41h12zM161 550l-125 91c-14 10 -19 21 -19 32c0 20 18 38 40 37c11 -1 23 -8 31 -19l84 -131z" />
    <glyph glyph-name="iacute" unicode="&#xed;" horiz-adv-x="299" 
d="M200 510v-440c0 -41 9 -42 86 -47v-23h-255v23c77 5 86 6 86 47v327c0 43 -9 44 -86 49v23l157 41h12zM280 641l-125 -91l-11 10l84 131c7 11 19 18 31 19c21 1 40 -17 40 -37c0 -11 -5 -22 -19 -32z" />
    <glyph glyph-name="icircumflex" unicode="&#xee;" horiz-adv-x="299" 
d="M155 633l-101 -83h-23l113 162h23l113 -162h-22zM200 510v-440c0 -41 9 -42 86 -47v-23h-255v23c77 5 86 6 86 47v327c0 43 -9 44 -86 49v23l157 41h12z" />
    <glyph glyph-name="idieresis" unicode="&#xef;" horiz-adv-x="299" 
d="M200 510v-440c0 -41 9 -42 86 -47v-23h-255v23c77 5 86 6 86 47v327c0 43 -9 44 -86 49v23l157 41h12zM16 599c0 29 21 50 49 50s50 -21 50 -50c0 -30 -22 -49 -50 -49s-49 19 -49 49zM190 599c0 29 22 50 50 50s49 -21 49 -50c0 -30 -21 -49 -49 -49s-50 19 -50 49z" />
    <glyph glyph-name="eth" unicode="&#xf0;" horiz-adv-x="528" 
d="M305 640l117 47v-38l-87 -35c95 -90 154 -217 154 -347c0 -159 -78 -277 -229 -277c-120 0 -221 85 -221 222c0 156 119 233 240 233c33 0 71 -5 102 -16c-15 45 -44 108 -96 164l-124 -50v38l96 39c-39 34 -88 63 -149 81l11 29c69 -15 132 -47 186 -90zM130 200
c0 -114 55 -174 130 -174c77 0 136 84 136 231c0 34 -3 93 -9 133c-26 6 -69 11 -97 11c-90 0 -160 -61 -160 -201z" />
    <glyph glyph-name="ntilde" unicode="&#xf1;" horiz-adv-x="618" 
d="M31 0v23c77 5 86 6 86 47v327c0 43 -9 44 -86 49v23l157 41h12l-5 -105h5c49 59 119 105 192 105c68 0 127 -40 127 -150v-290c0 -41 9 -42 86 -47v-23h-237v23c59 5 68 6 68 47v287c0 54 -27 89 -81 89c-64 0 -120 -36 -155 -70v-306c0 -41 9 -42 86 -47v-23h-255z
M169 542l-16 11c19 39 51 102 93 102c36 0 109 -36 144 -36c31 0 47 5 67 35l17 -11c-19 -38 -47 -93 -89 -93s-106 36 -148 36c-33 0 -45 -12 -68 -44z" />
    <glyph glyph-name="ograve" unicode="&#xf2;" horiz-adv-x="552" 
d="M276 -10c-144 0 -237 115 -237 260s93 260 237 260s237 -115 237 -260s-93 -260 -237 -260zM276 478c-92 0 -148 -78 -148 -228s56 -228 148 -228s148 78 148 228s-56 228 -148 228zM274 550l-125 91c-14 10 -19 21 -19 32c0 20 18 38 40 37c11 -1 23 -8 31 -19l84 -131z
" />
    <glyph glyph-name="oacute" unicode="&#xf3;" horiz-adv-x="552" 
d="M276 -10c144 0 237 115 237 260s-93 260 -237 260s-237 -115 -237 -260s93 -260 237 -260zM276 478c92 0 148 -78 148 -228s-56 -228 -148 -228s-148 78 -148 228s56 228 148 228zM385 641l-125 -91l-11 10l84 131c7 11 19 18 31 19c21 1 40 -17 40 -37
c0 -11 -5 -22 -19 -32z" />
    <glyph glyph-name="ocircumflex" unicode="&#xf4;" horiz-adv-x="552" 
d="M276 -10c144 0 237 115 237 260s-93 260 -237 260s-237 -115 -237 -260s93 -260 237 -260zM276 478c92 0 148 -78 148 -228s-56 -228 -148 -228s-148 78 -148 228s56 228 148 228zM276 633l-101 -83h-23l113 162h23l113 -162h-22z" />
    <glyph glyph-name="otilde" unicode="&#xf5;" horiz-adv-x="552" 
d="M276 -10c144 0 237 115 237 260s-93 260 -237 260s-237 -115 -237 -260s93 -260 237 -260zM276 478c92 0 148 -78 148 -228s-56 -228 -148 -228s-148 78 -148 228s56 228 148 228zM132 542l-16 11c19 39 51 102 93 102c36 0 109 -36 144 -36c31 0 47 5 67 35l17 -11
c-19 -38 -47 -93 -89 -93s-106 36 -148 36c-33 0 -45 -12 -68 -44z" />
    <glyph glyph-name="odieresis" unicode="&#xf6;" horiz-adv-x="552" 
d="M276 -10c144 0 237 115 237 260s-93 260 -237 260s-237 -115 -237 -260s93 -260 237 -260zM276 478c92 0 148 -78 148 -228s-56 -228 -148 -228s-148 78 -148 228s56 228 148 228zM140 599c0 29 21 50 49 50s50 -21 50 -50c0 -30 -22 -49 -50 -49s-49 19 -49 49zM314 599
c0 29 22 50 50 50s49 -21 49 -50c0 -30 -21 -49 -49 -49s-50 19 -50 49z" />
    <glyph glyph-name="divide" unicode="&#xf7;" horiz-adv-x="560" 
d="M236 178c0 28 22 50 49 50s49 -22 49 -50s-22 -48 -49 -48s-49 20 -49 48zM236 469c0 29 22 50 49 50s49 -21 49 -50c0 -28 -22 -48 -49 -48s-49 20 -49 48zM99 342h362v-36h-362v36z" />
    <glyph glyph-name="oslash" unicode="&#xf8;" horiz-adv-x="552" 
d="M276 -10c-25 0 -47 4 -69 10l-13 -40h-36l17 51c-85 39 -136 131 -136 239c0 145 93 260 237 260c24 0 47 -3 69 -10l14 40h35l-18 -52c86 -40 137 -131 137 -238c0 -145 -93 -260 -237 -260zM276 478c-92 0 -148 -78 -148 -228c0 -95 22 -162 62 -197l143 413
c-17 8 -36 12 -57 12zM276 22c92 0 148 78 148 228c0 95 -22 161 -62 197l-143 -413c17 -8 36 -12 57 -12z" />
    <glyph glyph-name="ugrave" unicode="&#xf9;" horiz-adv-x="609" 
d="M427 124v273c0 43 -9 44 -106 49v23l177 41h12v-427c0 -43 9 -44 86 -49v-23l-151 -21h-12l-1 105h-5c-49 -59 -119 -105 -192 -105c-68 0 -127 40 -127 150v257c0 43 -9 44 -86 49v23l157 41h12v-367c0 -54 27 -89 81 -89c64 0 120 36 155 70zM277 550l-125 91
c-14 10 -19 21 -19 32c0 20 18 38 40 37c11 -1 23 -8 31 -19l84 -131z" />
    <glyph glyph-name="uacute" unicode="&#xfa;" horiz-adv-x="609" 
d="M427 124v273c0 43 -9 44 -106 49v23l177 41h12v-427c0 -43 9 -44 86 -49v-23l-151 -21h-12l-1 105h-5c-49 -59 -119 -105 -192 -105c-68 0 -127 40 -127 150v257c0 43 -9 44 -86 49v23l157 41h12v-367c0 -54 27 -89 81 -89c64 0 120 36 155 70zM413 641l-125 -91l-11 10
l84 131c7 11 19 18 31 19c21 1 40 -17 40 -37c0 -11 -5 -22 -19 -32z" />
    <glyph glyph-name="ucircumflex" unicode="&#xfb;" horiz-adv-x="609" 
d="M427 124v273c0 43 -9 44 -106 49v23l177 41h12v-427c0 -43 9 -44 86 -49v-23l-151 -21h-12l-1 105h-5c-49 -59 -119 -105 -192 -105c-68 0 -127 40 -127 150v257c0 43 -9 44 -86 49v23l157 41h12v-367c0 -54 27 -89 81 -89c64 0 120 36 155 70zM293 633l-101 -83h-23
l113 162h23l113 -162h-22z" />
    <glyph glyph-name="udieresis" unicode="&#xfc;" horiz-adv-x="609" 
d="M427 124v273c0 43 -9 44 -106 49v23l177 41h12v-427c0 -43 9 -44 86 -49v-23l-151 -21h-12l-1 105h-5c-49 -59 -119 -105 -192 -105c-68 0 -127 40 -127 150v257c0 43 -9 44 -86 49v23l157 41h12v-367c0 -54 27 -89 81 -89c64 0 120 36 155 70zM159 599c0 29 21 50 49 50
s50 -21 50 -50c0 -30 -22 -49 -50 -49s-49 19 -49 49zM333 599c0 29 22 50 50 50s49 -21 49 -50c0 -30 -21 -49 -49 -49s-50 19 -50 49z" />
    <glyph glyph-name="yacute" unicode="&#xfd;" horiz-adv-x="546" 
d="M472 429l-161 -418c-71 -185 -185 -221 -250 -221c-36 0 -53 18 -53 41c0 22 15 39 41 39c23 0 38 -8 64 -8c70 0 108 41 149 130l-190 431c-14 33 -18 49 -68 54v23h243v-23c-82 -9 -90 -19 -74 -58l132 -322h2l121 322c18 48 -4 49 -70 58v23h184v-23
c-42 -6 -56 -10 -70 -48zM423 641l-125 -91l-11 10l84 131c7 11 19 18 31 19c21 1 40 -17 40 -37c0 -11 -5 -22 -19 -32z" />
    <glyph glyph-name="thorn" unicode="&#xfe;" horiz-adv-x="578" 
d="M172 439h5c37 40 97 71 157 71c129 0 205 -110 205 -260c0 -164 -111 -260 -233 -260c-35 0 -95 9 -129 36v-156c0 -41 9 -42 86 -47v-23h-255v23c77 5 86 6 86 47v767c0 43 -9 44 -86 49v23l157 21h12zM296 458c-49 0 -90 -25 -119 -50v-243c0 -113 67 -143 116 -143
c108 0 157 95 157 226c0 143 -71 210 -154 210z" />
    <glyph glyph-name="ydieresis" unicode="&#xff;" horiz-adv-x="546" 
d="M472 429l-161 -418c-71 -185 -185 -221 -250 -221c-36 0 -53 18 -53 41c0 22 15 39 41 39c23 0 38 -8 64 -8c70 0 108 41 149 130l-190 431c-14 33 -18 49 -68 54v23h243v-23c-82 -9 -90 -19 -74 -58l132 -322h2l121 322c18 48 -4 49 -70 58v23h184v-23
c-42 -6 -56 -10 -70 -48zM173 600c0 29 21 50 49 50s50 -21 50 -50c0 -30 -22 -49 -50 -49s-49 19 -49 49zM347 600c0 29 22 50 50 50s49 -21 49 -50c0 -30 -21 -49 -49 -49s-50 19 -50 49z" />
    <glyph glyph-name="breve" unicode="&#x2d8;" horiz-adv-x="420" 
d="M210 550c-81 0 -114 70 -114 136h21c10 -46 50 -72 93 -72s83 26 93 72h21c0 -66 -33 -136 -114 -136z" />
    <glyph glyph-name="cyrbreve" horiz-adv-x="420" 
d="M210 550c-81 0 -114 70 -114 136h21c10 -46 50 -72 93 -72s83 26 93 72h21c0 -66 -33 -136 -114 -136z" />
    <glyph glyph-name="caron" unicode="&#x2c7;" horiz-adv-x="441" 
d="M119 712l101 -83l103 83h22l-113 -162h-23l-113 162h23z" />
    <glyph glyph-name="commaaccent" horiz-adv-x="322" 
d="M156 -30c54 0 70 -42 70 -82c0 -54 -38 -103 -101 -131l-13 24c35 20 57 41 57 61c0 6 -3 13 -15 13c-35 0 -58 26 -58 57c0 35 29 58 60 58z" />
    <glyph glyph-name="undercommaaccent" horiz-adv-x="322" 
d="M156 -30c54 0 70 -42 70 -82c0 -54 -38 -103 -101 -131l-13 24c35 20 57 41 57 61c0 6 -3 13 -15 13c-35 0 -58 26 -58 57c0 35 29 58 60 58z" />
    <glyph glyph-name="dieresisacute" unicode="&#xf6d7;" horiz-adv-x="542" 
d="M96 599c0 29 21 50 49 50s50 -21 50 -50c0 -30 -22 -49 -50 -49s-49 19 -49 49zM347 599c0 29 22 50 50 50s49 -21 49 -50c0 -30 -21 -49 -49 -49s-50 19 -50 49zM341 644l-124 -91l-11 10l84 131c7 11 19 18 30 19c22 1 41 -17 41 -37c0 -11 -6 -22 -20 -32z" />
    <glyph glyph-name="dieresisgrave" horiz-adv-x="542" 
d="M446 599c0 -30 -20 -49 -49 -49c-27 0 -50 19 -50 49c0 29 23 50 50 50c29 0 49 -21 49 -50zM195 599c0 -30 -22 -49 -50 -49s-49 19 -49 49c0 29 21 50 49 50s50 -21 50 -50zM326 553l-125 91c-14 10 -19 21 -19 32c0 20 18 38 40 37c11 -1 23 -8 31 -19l83 -131z" />
    <glyph glyph-name="dotaccent" unicode="&#x2d9;" horiz-adv-x="299" 
d="M96 603c0 32 23 55 53 55c31 0 54 -23 54 -55s-23 -53 -54 -53c-30 0 -53 21 -53 53z" />
    <glyph glyph-name="hungarumlaut" unicode="&#x2dd;" horiz-adv-x="473" 
d="M232 641l-125 -91l-11 10l84 131c7 11 19 18 31 19c21 1 40 -17 40 -37c0 -11 -5 -22 -19 -32zM358 641l-125 -91l-11 10l84 131c7 11 20 18 31 19c22 1 40 -17 40 -37c0 -11 -5 -22 -19 -32z" />
    <glyph glyph-name="dblgrave" horiz-adv-x="473" 
d="M367 550l-125 91c-14 10 -19 21 -19 32c0 20 18 38 39 37c12 -1 24 -8 32 -19l83 -131zM241 550l-125 91c-14 10 -20 21 -20 32c0 20 18 38 40 37c11 -1 24 -8 32 -19l83 -131z" />
    <glyph glyph-name="cyrflex" horiz-adv-x="441" 
d="M220 633l-101 -83h-23l113 162h23l113 -162h-22z" />
    <glyph glyph-name="uni02C9" unicode="&#x2c9;" horiz-adv-x="474" 
d="M96 584h282v-34h-282v34z" />
    <glyph glyph-name="ogonek" unicode="&#x2db;" horiz-adv-x="340" 
d="M244 -151v-17c-16 -21 -46 -36 -73 -36c-46 0 -75 33 -75 78c0 38 24 86 82 126h25c-33 -31 -51 -72 -51 -106c0 -43 29 -71 92 -45z" />
    <glyph glyph-name="ring" unicode="&#x2da;" horiz-adv-x="352" 
d="M96 629c0 46 35 81 79 81c45 0 81 -35 81 -81c0 -44 -36 -79 -81 -79c-44 0 -79 35 -79 79zM124 629c0 -28 23 -51 51 -51c31 0 52 23 52 51c0 31 -21 52 -52 52c-28 0 -51 -21 -51 -52z" />
    <glyph glyph-name="Acute" horiz-adv-x="362" 
d="M245 841l-138 -101l-11 10l93 145c8 12 21 20 33 21c23 1 44 -18 44 -40c0 -12 -6 -24 -21 -35z" />
    <glyph glyph-name="Breve" horiz-adv-x="443" 
d="M221 750c-95 0 -125 85 -125 151h20c10 -45 50 -82 105 -82c56 0 96 37 106 82h20c0 -66 -31 -151 -126 -151z" />
    <glyph glyph-name="cyrBreve" horiz-adv-x="443" 
d="M221 750c-95 0 -125 85 -125 151h20c10 -45 50 -82 105 -82c56 0 96 37 106 82h20c0 -66 -31 -151 -126 -151z" />
    <glyph glyph-name="Caron" horiz-adv-x="464" 
d="M118 920l114 -94l114 94h22l-125 -180h-23l-124 180h22z" />
    <glyph glyph-name="Cedilla" horiz-adv-x="349" 
d="M129 0h28v-40c31 -6 101 -31 101 -92c0 -63 -78 -101 -163 -114l-9 26c35 8 104 24 104 74c0 35 -34 50 -64 59z" />
    <glyph glyph-name="Circumflex" horiz-adv-x="464" 
d="M232 834l-114 -94h-22l124 180h23l125 -180h-22z" />
    <glyph glyph-name="Dieresis" horiz-adv-x="493" 
d="M96 805c0 32 23 55 53 55c31 0 54 -23 54 -55s-23 -53 -54 -53c-30 0 -53 21 -53 53zM289 805c0 32 24 55 55 55c30 0 53 -23 53 -55s-23 -53 -53 -53c-31 0 -55 21 -55 53z" />
    <glyph glyph-name="DieresisAcute" horiz-adv-x="573" 
d="M96 805c0 32 23 55 53 55c31 0 54 -23 54 -55s-23 -53 -54 -53c-30 0 -53 21 -53 53zM369 805c0 32 24 55 55 55c30 0 53 -23 53 -55s-23 -53 -53 -53c-31 0 -55 21 -55 53zM364 857l-138 -101l-11 10l93 145c8 12 22 20 33 21c24 1 44 -18 44 -40c0 -12 -6 -24 -21 -35z
" />
    <glyph glyph-name="DieresisGrave" horiz-adv-x="573" 
d="M477 805c0 -32 -23 -53 -53 -53c-31 0 -54 21 -54 53s23 55 54 55c30 0 53 -23 53 -55zM203 805c0 -32 -23 -53 -54 -53c-30 0 -53 21 -53 53s23 55 53 55c31 0 54 -23 54 -55zM347 756l-138 101c-15 11 -21 23 -21 35c0 22 20 41 43 40c12 -1 25 -9 34 -21l93 -145z" />
    <glyph glyph-name="Dotaccent" horiz-adv-x="299" 
d="M96 807c0 32 23 55 53 55c31 0 54 -23 54 -55s-23 -53 -54 -53c-30 0 -53 21 -53 53z" />
    <glyph glyph-name="Hungarumlaut" horiz-adv-x="500" 
d="M245 841l-138 -101l-11 10l93 145c8 12 21 20 33 21c23 1 44 -18 44 -40c0 -12 -6 -24 -21 -35zM383 841l-138 -101l-11 10l93 145c8 12 21 20 33 21c23 1 44 -18 44 -40c0 -12 -6 -24 -21 -35z" />
    <glyph glyph-name="Grave" horiz-adv-x="362" 
d="M255 740l-138 101c-15 11 -21 23 -21 35c0 22 20 41 43 40c12 -1 25 -9 34 -21l93 -145z" />
    <glyph glyph-name="dblGrave" horiz-adv-x="500" 
d="M393 740l-138 101c-15 11 -21 23 -21 35c0 22 20 41 43 40c12 -1 25 -9 34 -21l93 -145zM255 740l-138 101c-15 11 -21 23 -21 35c0 22 20 41 43 40c12 -1 25 -9 34 -21l93 -145z" />
    <glyph glyph-name="cyrFlex" horiz-adv-x="464" 
d="M232 834l-114 -94h-22l124 180h23l125 -180h-22z" />
    <glyph glyph-name="Macron" horiz-adv-x="503" 
d="M96 796h311v-37h-311v37z" />
    <glyph glyph-name="Ogonek" horiz-adv-x="340" 
d="M258 -169v-17c-18 -23 -51 -40 -81 -40c-48 0 -81 37 -81 86c0 43 26 95 90 140h27c-37 -34 -57 -80 -57 -118c0 -48 32 -80 102 -51z" />
    <glyph glyph-name="Ring" horiz-adv-x="368" 
d="M96 827c0 50 38 88 87 88s89 -38 89 -88c0 -49 -40 -87 -89 -87s-87 38 -87 87zM126 827c0 -32 25 -57 57 -57c34 0 58 25 58 57c0 33 -24 58 -58 58c-32 0 -57 -25 -57 -58z" />
    <glyph glyph-name="Tilde" horiz-adv-x="544" 
d="M112 759l-16 11c22 45 56 111 101 111c36 0 121 -40 171 -40c25 0 44 10 64 40l16 -11c-24 -47 -51 -101 -96 -101c-42 0 -121 40 -168 40c-33 0 -46 -16 -72 -50z" />
    <glyph glyph-name="middot" horiz-adv-x="299" 
d="M96 345c0 32 23 55 53 55c31 0 54 -23 54 -55s-23 -53 -54 -53c-30 0 -53 21 -53 53z" />
    <glyph glyph-name="Abreve" unicode="&#x102;" horiz-adv-x="693" 
d="M360 705l231 -626c12 -34 25 -49 85 -55v-24h-256v24c80 9 92 17 76 61l-52 147h-252l-42 -126c-20 -60 -7 -72 75 -82v-24h-208v24c55 10 69 16 82 57l213 624h48zM313 596l-109 -328h227l-116 328h-2zM336 750c-95 0 -125 85 -125 151h20c10 -45 50 -82 105 -82
c56 0 96 37 106 82h20c0 -66 -31 -151 -126 -151z" />
    <glyph glyph-name="Amacron" unicode="&#x100;" horiz-adv-x="693" 
d="M360 705l231 -626c12 -34 25 -49 85 -55v-24h-256v24c80 9 92 17 76 61l-52 147h-252l-42 -126c-20 -60 -7 -72 75 -82v-24h-208v24c55 10 69 16 82 57l213 624h48zM313 596l-109 -328h227l-116 328h-2zM181 796h311v-37h-311v37z" />
    <glyph glyph-name="Aogonek" unicode="&#x104;" horiz-adv-x="693" 
d="M634 -169v-17c-18 -23 -51 -40 -81 -40c-48 0 -81 37 -81 86c0 43 26 95 90 140h-142v24c80 9 92 17 76 61l-52 147h-252l-42 -126c-20 -60 -7 -72 75 -82v-24h-208v24c55 10 69 16 82 57l213 624h48l231 -626c12 -34 25 -49 85 -55v-24h-87c-37 -34 -57 -80 -57 -118
c0 -48 32 -80 102 -51zM313 596l-109 -328h227l-116 328h-2z" />
    <glyph glyph-name="AEacute" unicode="&#x1fc;" horiz-adv-x="921" 
d="M362 24c77 5 86 6 86 47v163h-200l-69 -128c-15 -26 -36 -72 46 -82v-24h-208v24c55 10 86 19 107 57l339 619h402l5 -163h-24c-20 87 -49 129 -128 129h-185v-292h100c65 0 100 20 109 100h24v-236h-24c-9 80 -44 100 -109 100h-100v-304h177c79 0 124 30 147 129h24
l-10 -163h-509v24zM448 602h-2l-179 -332h181v332zM666 841l-138 -101l-11 10l93 145c8 12 21 20 33 21c23 1 44 -18 44 -40c0 -12 -6 -24 -21 -35z" />
    <glyph glyph-name="Cacute" unicode="&#x106;" horiz-adv-x="645" 
d="M387 26c136 0 184 83 204 163h24l-14 -139c-40 -25 -114 -60 -214 -60c-189 0 -337 150 -337 360s148 360 337 360c100 0 174 -35 214 -60l10 -139h-24c-20 88 -80 163 -200 163c-138 0 -246 -124 -246 -324s108 -324 246 -324zM489 841l-138 -101l-11 10l93 145
c8 12 21 20 33 21c23 1 44 -18 44 -40c0 -12 -6 -24 -21 -35z" />
    <glyph glyph-name="Ccaron" unicode="&#x10c;" horiz-adv-x="645" 
d="M387 26c136 0 184 83 204 163h24l-14 -139c-40 -25 -114 -60 -214 -60c-189 0 -337 150 -337 360s148 360 337 360c100 0 174 -35 214 -60l10 -139h-24c-20 88 -80 163 -200 163c-138 0 -246 -124 -246 -324s108 -324 246 -324zM264 920l114 -94l114 94h22l-125 -180h-23
l-124 180h22z" />
    <glyph glyph-name="Ccircumflex" unicode="&#x108;" horiz-adv-x="645" 
d="M387 26c136 0 184 83 204 163h24l-14 -139c-40 -25 -114 -60 -214 -60c-189 0 -337 150 -337 360s148 360 337 360c100 0 174 -35 214 -60l10 -139h-24c-20 88 -80 163 -200 163c-138 0 -246 -124 -246 -324s108 -324 246 -324zM391 834l-114 -94h-22l124 180h23
l125 -180h-22z" />
    <glyph glyph-name="Cdotaccent" unicode="&#x10a;" horiz-adv-x="645" 
d="M387 26c136 0 184 83 204 163h24l-14 -139c-40 -25 -114 -60 -214 -60c-189 0 -337 150 -337 360s148 360 337 360c100 0 174 -35 214 -60l10 -139h-24c-20 88 -80 163 -200 163c-138 0 -246 -124 -246 -324s108 -324 246 -324zM324 807c0 32 23 55 53 55
c31 0 54 -23 54 -55s-23 -53 -54 -53c-30 0 -53 21 -53 53z" />
    <glyph glyph-name="Dcaron" unicode="&#x10e;" horiz-adv-x="717" 
d="M211 34h142c139 0 248 110 248 316s-111 316 -248 316h-142v-632zM353 0h-313v24c77 5 86 6 86 47v558c0 41 -9 42 -86 47v24h313c189 0 339 -140 339 -350s-150 -350 -339 -350zM211 920l114 -94l114 94h22l-125 -180h-23l-124 180h22z" />
    <glyph glyph-name="Dcroat" unicode="&#x110;" horiz-adv-x="742" 
d="M353 0h-313v24c77 5 86 6 86 47v263h-85v34h85v261c0 41 -9 42 -86 47v24h313c189 0 339 -140 339 -350s-150 -350 -339 -350zM211 34h142c139 0 248 110 248 316s-111 316 -248 316h-142v-298h120v-34h-120v-300z" />
    <glyph glyph-name="Ebreve" unicode="&#x114;" horiz-adv-x="599" 
d="M543 700l5 -163h-24c-20 87 -49 129 -128 129h-185v-292h100c64 0 100 20 109 100h24v-236h-24c-9 80 -45 100 -109 100h-100v-304h177c79 0 124 30 147 129h24l-10 -163h-509v24c77 5 86 6 86 47v558c0 41 -9 42 -86 47v24h503zM322 750c-95 0 -125 85 -125 151h20
c10 -45 50 -82 105 -82c56 0 96 37 106 82h20c0 -66 -31 -151 -126 -151z" />
    <glyph glyph-name="Ecaron" unicode="&#x11a;" horiz-adv-x="599" 
d="M543 700l5 -163h-24c-20 87 -49 129 -128 129h-185v-292h100c64 0 100 20 109 100h24v-236h-24c-9 80 -45 100 -109 100h-100v-304h177c79 0 124 30 147 129h24l-10 -163h-509v24c77 5 86 6 86 47v558c0 41 -9 42 -86 47v24h503zM202 920l114 -94l114 94h22l-125 -180
h-23l-124 180h22z" />
    <glyph glyph-name="Edotaccent" unicode="&#x116;" horiz-adv-x="599" 
d="M543 700l5 -163h-24c-20 87 -49 129 -128 129h-185v-292h100c64 0 100 20 109 100h24v-236h-24c-9 80 -45 100 -109 100h-100v-304h177c79 0 124 30 147 129h24l-10 -163h-509v24c77 5 86 6 86 47v558c0 41 -9 42 -86 47v24h503zM266 807c0 32 23 55 53 55
c31 0 54 -23 54 -55s-23 -53 -54 -53c-30 0 -53 21 -53 53z" />
    <glyph glyph-name="Emacron" unicode="&#x112;" horiz-adv-x="599" 
d="M543 700l5 -163h-24c-20 87 -49 129 -128 129h-185v-292h100c64 0 100 20 109 100h24v-236h-24c-9 80 -45 100 -109 100h-100v-304h177c79 0 124 30 147 129h24l-10 -163h-509v24c77 5 86 6 86 47v558c0 41 -9 42 -86 47v24h503zM168 796h311v-37h-311v37z" />
    <glyph glyph-name="Eogonek" unicode="&#x118;" horiz-adv-x="599" 
d="M594 -169v-17c-18 -23 -51 -40 -81 -40c-47 0 -81 37 -81 86c0 43 27 95 91 140h-483v24c77 5 86 6 86 47v558c0 41 -9 42 -86 47v24h503l5 -163h-24c-20 87 -49 129 -128 129h-185v-292h100c64 0 100 20 109 100h24v-236h-24c-9 80 -45 100 -109 100h-100v-304h177
c79 0 124 30 147 129h24l-10 -163c-37 -34 -57 -80 -57 -118c0 -48 32 -80 102 -51z" />
    <glyph glyph-name="Gbreve" unicode="&#x11e;" horiz-adv-x="711" 
d="M385 26c67 0 118 27 153 64v153c0 41 -9 42 -86 47v24h241v-24c-61 -5 -70 -6 -70 -47v-248h-16l-34 60c-44 -33 -109 -65 -190 -65c-189 0 -333 150 -333 360s148 360 337 360c100 0 174 -35 214 -60l10 -139h-24c-20 88 -80 163 -200 163c-138 0 -246 -124 -246 -324
s106 -324 244 -324zM379 750c-95 0 -125 85 -125 151h20c10 -45 50 -82 105 -82c56 0 96 37 106 82h20c0 -66 -31 -151 -126 -151z" />
    <glyph glyph-name="Gcircumflex" unicode="&#x11c;" horiz-adv-x="711" 
d="M385 26c67 0 118 27 153 64v153c0 41 -9 42 -86 47v24h241v-24c-61 -5 -70 -6 -70 -47v-248h-16l-34 60c-44 -33 -109 -65 -190 -65c-189 0 -333 150 -333 360s148 360 337 360c100 0 174 -35 214 -60l10 -139h-24c-20 88 -80 163 -200 163c-138 0 -246 -124 -246 -324
s106 -324 244 -324zM384 834l-114 -94h-22l124 180h23l125 -180h-22z" />
    <glyph glyph-name="Gcommaaccent" unicode="&#x122;" horiz-adv-x="711" 
d="M373 -30c54 0 70 -42 70 -82c0 -54 -38 -103 -100 -131l-14 24c35 20 57 41 57 61c0 6 -3 13 -15 13c-35 0 -58 26 -58 57c0 35 30 58 60 58zM385 26c67 0 118 27 153 64v153c0 41 -9 42 -86 47v24h241v-24c-61 -5 -70 -6 -70 -47v-248h-16l-34 60
c-44 -33 -109 -65 -190 -65c-189 0 -333 150 -333 360s148 360 337 360c100 0 174 -35 214 -60l10 -139h-24c-20 88 -80 163 -200 163c-138 0 -246 -124 -246 -324s106 -324 244 -324z" />
    <glyph glyph-name="Gdotaccent" unicode="&#x120;" horiz-adv-x="711" 
d="M385 26c67 0 118 27 153 64v153c0 41 -9 42 -86 47v24h241v-24c-61 -5 -70 -6 -70 -47v-248h-16l-34 60c-44 -33 -109 -65 -190 -65c-189 0 -333 150 -333 360s148 360 337 360c100 0 174 -35 214 -60l10 -139h-24c-20 88 -80 163 -200 163c-138 0 -246 -124 -246 -324
s106 -324 244 -324zM329 807c0 32 23 55 53 55c31 0 54 -23 54 -55s-23 -53 -54 -53c-30 0 -53 21 -53 53z" />
    <glyph glyph-name="Hbar" unicode="&#x126;" horiz-adv-x="777" 
d="M126 71v423h-85v34h85v101c0 41 -9 42 -86 47v24h257v-24c-77 -5 -86 -6 -86 -47v-101h355v101c0 41 -9 42 -86 47v24h257v-24c-77 -5 -86 -6 -86 -47v-101h86v-34h-86v-423c0 -41 9 -42 86 -47v-24h-257v24c77 5 86 6 86 47v267h-355v-267c0 -41 9 -42 86 -47v-24h-257
v24c77 5 86 6 86 47zM211 494v-120h355v120h-355z" />
    <glyph glyph-name="Hcircumflex" unicode="&#x124;" horiz-adv-x="777" 
d="M566 71v267h-355v-267c0 -41 9 -42 86 -47v-24h-257v24c77 5 86 6 86 47v558c0 41 -9 42 -86 47v24h257v-24c-77 -5 -86 -6 -86 -47v-255h355v255c0 41 -9 42 -86 47v24h257v-24c-77 -5 -86 -6 -86 -47v-558c0 -41 9 -42 86 -47v-24h-257v24c77 5 86 6 86 47zM388 834
l-114 -94h-22l124 180h23l125 -180h-22z" />
    <glyph glyph-name="Ibreve" unicode="&#x12c;" horiz-adv-x="337" 
d="M126 71v558c0 41 -9 42 -86 47v24h257v-24c-77 -5 -86 -6 -86 -47v-558c0 -41 9 -42 86 -47v-24h-257v24c77 5 86 6 86 47zM167 750c-95 0 -125 85 -125 151h20c10 -45 50 -82 105 -82c56 0 96 37 106 82h20c0 -66 -31 -151 -126 -151z" />
    <glyph glyph-name="Idotaccent" unicode="&#x130;" horiz-adv-x="337" 
d="M126 71v558c0 41 -9 42 -86 47v24h257v-24c-77 -5 -86 -6 -86 -47v-558c0 -41 9 -42 86 -47v-24h-257v24c77 5 86 6 86 47zM114 807c0 32 23 55 53 55c31 0 54 -23 54 -55s-23 -53 -54 -53c-30 0 -53 21 -53 53z" />
    <glyph glyph-name="Imacron" unicode="&#x12a;" horiz-adv-x="337" 
d="M126 71v558c0 41 -9 42 -86 47v24h257v-24c-77 -5 -86 -6 -86 -47v-558c0 -41 9 -42 86 -47v-24h-257v24c77 5 86 6 86 47zM12 796h311v-37h-311v37z" />
    <glyph glyph-name="Iogonek" unicode="&#x12e;" horiz-adv-x="337" 
d="M248 -169v-17c-18 -23 -51 -40 -81 -40c-48 0 -81 37 -81 86c0 43 26 95 90 140h-136v24c77 5 86 6 86 47v558c0 41 -9 42 -86 47v24h257v-24c-77 -5 -86 -6 -86 -47v-558c0 -41 9 -42 86 -47v-24h-94c-37 -34 -57 -80 -57 -118c0 -48 32 -80 102 -51z" />
    <glyph glyph-name="Itilde" unicode="&#x128;" horiz-adv-x="337" 
d="M126 71v558c0 41 -9 42 -86 47v24h257v-24c-77 -5 -86 -6 -86 -47v-558c0 -41 9 -42 86 -47v-24h-257v24c77 5 86 6 86 47zM8 759l-16 11c22 45 56 111 101 111c36 0 121 -40 171 -40c25 0 44 10 64 40l16 -11c-24 -47 -51 -101 -96 -101c-42 0 -121 40 -168 40
c-33 0 -46 -16 -72 -50z" />
    <glyph glyph-name="IJ" unicode="&#x132;" horiz-adv-x="701" 
d="M126 71v558c0 41 -9 42 -86 47v24h257v-24c-77 -5 -86 -6 -86 -47v-558c0 -41 9 -42 86 -47v-24h-257v24c77 5 86 6 86 47zM500 216v413c0 41 -9 42 -86 47v24h257v-24c-77 -5 -86 -6 -86 -47v-413c0 -138 -93 -226 -191 -226c-46 0 -62 19 -62 41s16 34 42 34
s42 -21 75 -21c45 0 51 60 51 172z" />
    <glyph glyph-name="Jcircumflex" unicode="&#x134;" horiz-adv-x="379" 
d="M178 216v413c0 41 -9 42 -86 47v24h257v-24c-77 -5 -86 -6 -86 -47v-413c0 -138 -93 -226 -191 -226c-46 0 -62 19 -62 41s16 34 42 34s42 -21 75 -21c45 0 51 60 51 172zM215 834l-114 -94h-22l124 180h23l125 -180h-22z" />
    <glyph glyph-name="Kcommaaccent" unicode="&#x136;" horiz-adv-x="717" 
d="M371 -30c54 0 70 -41 70 -82c0 -54 -39 -103 -101 -131l-14 24c35 20 58 42 58 61c0 6 -4 13 -16 13c-34 0 -57 27 -57 58c0 35 29 57 60 57zM126 71v558c0 41 -9 42 -86 47v24h257v-24c-77 -5 -86 -6 -86 -47v-261c53 1 85 13 115 50l150 187c30 38 26 66 -61 71v24h239
v-24c-62 -6 -85 -16 -115 -52l-204 -251c34 -24 82 -81 110 -116l116 -146c35 -43 74 -80 138 -87v-24h-153c-47 47 -105 124 -121 145l-114 144c-32 39 -59 49 -100 50v-268c0 -41 9 -42 86 -47v-24h-257v24c77 5 86 6 86 47z" />
    <glyph glyph-name="Lacute" unicode="&#x139;" horiz-adv-x="567" 
d="M126 71v558c0 41 -9 42 -86 47v24h257v-24c-77 -5 -86 -6 -86 -47v-595h167c79 0 124 30 147 129h24l-10 -163h-499v24c77 5 86 6 86 47zM311 841l-138 -101l-11 10l93 145c8 12 21 20 33 21c23 1 44 -18 44 -40c0 -12 -6 -24 -21 -35z" />
    <glyph glyph-name="Lcaron" unicode="&#x13d;" horiz-adv-x="567" 
d="M406 700c54 0 70 -42 70 -82c0 -54 -39 -103 -101 -131l-14 24c35 20 58 41 58 61c0 6 -4 13 -16 13c-34 0 -57 26 -57 57c0 35 29 58 60 58zM126 71v558c0 41 -9 42 -86 47v24h257v-24c-77 -5 -86 -6 -86 -47v-595h167c79 0 124 30 147 129h24l-10 -163h-499v24
c77 5 86 6 86 47z" />
    <glyph glyph-name="Lcommaaccent" unicode="&#x13b;" horiz-adv-x="567" 
d="M304 -29c54 0 70 -42 70 -82c0 -55 -39 -103 -101 -131l-14 23c35 21 58 42 58 61c0 6 -4 14 -16 14c-34 0 -57 26 -57 57c0 35 29 58 60 58zM126 71v558c0 41 -9 42 -86 47v24h257v-24c-77 -5 -86 -6 -86 -47v-595h167c79 0 124 30 147 129h24l-10 -163h-499v24
c77 5 86 6 86 47z" />
    <glyph glyph-name="Ldot" unicode="&#x13f;" horiz-adv-x="567" 
d="M126 71v558c0 41 -9 42 -86 47v24h257v-24c-77 -5 -86 -6 -86 -47v-595h167c79 0 124 30 147 129h24l-10 -163h-499v24c77 5 86 6 86 47zM284 367c0 32 23 55 53 55c31 0 54 -23 54 -55s-23 -53 -54 -53c-30 0 -53 21 -53 53z" />
    <glyph glyph-name="Lslash" unicode="&#x141;" horiz-adv-x="567" 
d="M126 71v249l-86 -35v38l86 35v271c0 41 -9 42 -86 47v24h257v-24c-77 -5 -86 -6 -86 -47v-237l90 37v-38l-90 -37v-320h167c79 0 124 30 147 129h24l-10 -163h-499v24c77 5 86 6 86 47z" />
    <glyph glyph-name="Nacute" unicode="&#x143;" horiz-adv-x="723" 
d="M605 -5h-46l-392 632v-556c0 -41 9 -42 100 -47v-24h-233v24c83 5 92 6 92 47v558c0 41 -9 42 -92 47v24h189l341 -551v480c0 41 -9 42 -100 47v24h233v-24c-83 -5 -92 -6 -92 -47v-634zM479 841l-138 -101l-11 10l93 145c8 12 21 20 33 21c23 1 44 -18 44 -40
c0 -12 -6 -24 -21 -35z" />
    <glyph glyph-name="Ncaron" unicode="&#x147;" horiz-adv-x="723" 
d="M605 -5h-46l-392 632v-556c0 -41 9 -42 100 -47v-24h-233v24c83 5 92 6 92 47v558c0 41 -9 42 -92 47v24h189l341 -551v480c0 41 -9 42 -100 47v24h233v-24c-83 -5 -92 -6 -92 -47v-634zM244 920l114 -94l114 94h22l-125 -180h-23l-124 180h22z" />
    <glyph glyph-name="Ncommaaccent" unicode="&#x145;" horiz-adv-x="723" 
d="M360 -30c54 0 70 -42 70 -82c0 -54 -38 -103 -100 -131l-14 24c35 20 57 41 57 61c0 6 -3 13 -15 13c-35 0 -58 26 -58 57c0 35 30 58 60 58zM605 -5h-46l-392 632v-556c0 -41 9 -42 100 -47v-24h-233v24c83 5 92 6 92 47v558c0 41 -9 42 -92 47v24h189l341 -551v480
c0 41 -9 42 -100 47v24h233v-24c-83 -5 -92 -6 -92 -47v-634z" />
    <glyph glyph-name="Obreve" unicode="&#x14e;" horiz-adv-x="778" 
d="M389 -10c189 0 339 150 339 360s-150 360 -339 360s-339 -150 -339 -360s150 -360 339 -360zM389 674c139 0 248 -118 248 -324s-109 -324 -248 -324s-248 118 -248 324s109 324 248 324zM388 750c-95 0 -125 85 -125 151h20c10 -45 50 -82 105 -82c56 0 96 37 106 82h20
c0 -66 -31 -151 -126 -151z" />
    <glyph glyph-name="Ohungarumlaut" unicode="&#x150;" horiz-adv-x="778" 
d="M389 -10c189 0 339 150 339 360s-150 360 -339 360s-339 -150 -339 -360s150 -360 339 -360zM389 674c139 0 248 -118 248 -324s-109 -324 -248 -324s-248 118 -248 324s109 324 248 324zM445 841l-138 -101l-11 10l93 145c8 12 21 20 33 21c23 1 44 -18 44 -40
c0 -12 -6 -24 -21 -35zM583 841l-138 -101l-11 10l93 145c8 12 21 20 33 21c23 1 44 -18 44 -40c0 -12 -6 -24 -21 -35z" />
    <glyph glyph-name="Omacron" unicode="&#x14c;" horiz-adv-x="778" 
d="M389 -10c189 0 339 150 339 360s-150 360 -339 360s-339 -150 -339 -360s150 -360 339 -360zM389 674c139 0 248 -118 248 -324s-109 -324 -248 -324s-248 118 -248 324s109 324 248 324zM233 796h311v-37h-311v37z" />
    <glyph glyph-name="Oslashacute" unicode="&#x1fe;" horiz-adv-x="778" 
d="M538 841l-138 -101l-11 10l93 145c8 12 21 20 33 21c23 1 44 -18 44 -40c0 -12 -6 -24 -21 -35zM389 -10c189 0 339 150 339 360c0 149 -76 269 -188 325l26 65h-41l-20 -51c-36 13 -75 21 -116 21c-189 0 -339 -150 -339 -360c0 -150 76 -270 189 -326l-25 -64h42l19 49
c36 -12 74 -19 114 -19zM389 674c36 0 70 -8 100 -23l-232 -583c-70 52 -116 148 -116 282c0 206 109 324 248 324zM389 26c-35 0 -68 7 -98 22l231 582c70 -51 115 -148 115 -280c0 -206 -109 -324 -248 -324z" />
    <glyph glyph-name="Racute" unicode="&#x154;" horiz-adv-x="678" 
d="M40 700h291c150 0 233 -80 233 -190c0 -88 -54 -181 -206 -202c44 -27 75 -64 99 -98l87 -124c37 -51 76 -57 116 -62v-24h-148c-25 26 -57 68 -74 98l-59 90c-28 43 -61 91 -98 116h-70v-233c0 -41 9 -42 86 -47v-24h-257v24c77 5 86 6 86 47v558c0 41 -9 42 -86 47v24z
M310 666h-99v-326h73c147 0 189 72 189 160c0 80 -36 166 -163 166zM427 841l-138 -101l-11 10l93 145c8 12 21 20 33 21c23 1 44 -18 44 -40c0 -12 -6 -24 -21 -35z" />
    <glyph glyph-name="Rcaron" unicode="&#x158;" horiz-adv-x="678" 
d="M40 700h291c150 0 233 -80 233 -190c0 -88 -54 -181 -206 -202c44 -27 75 -64 99 -98l87 -124c37 -51 76 -57 116 -62v-24h-148c-25 26 -57 68 -74 98l-59 90c-28 43 -61 91 -98 116h-70v-233c0 -41 9 -42 86 -47v-24h-257v24c77 5 86 6 86 47v558c0 41 -9 42 -86 47v24z
M310 666h-99v-326h73c147 0 189 72 189 160c0 80 -36 166 -163 166zM193 920l114 -94l114 94h22l-125 -180h-23l-124 180h22z" />
    <glyph glyph-name="Rcommaaccent" unicode="&#x156;" horiz-adv-x="678" 
d="M367 -31c54 0 70 -41 70 -82c0 -54 -38 -103 -100 -131l-14 24c35 20 57 42 57 61c0 6 -3 13 -15 13c-35 0 -58 26 -58 57c0 35 30 58 60 58zM40 700h291c150 0 233 -80 233 -190c0 -88 -54 -181 -206 -202c44 -27 75 -64 99 -98l87 -124c37 -51 76 -57 116 -62v-24h-148
c-25 26 -57 68 -74 98l-59 90c-28 43 -61 91 -98 116h-70v-233c0 -41 9 -42 86 -47v-24h-257v24c77 5 86 6 86 47v558c0 41 -9 42 -86 47v24zM310 666h-99v-326h73c147 0 189 72 189 160c0 80 -36 166 -163 166z" />
    <glyph glyph-name="Sacute" unicode="&#x15a;" horiz-adv-x="538" 
d="M470 501h-24c-27 117 -83 172 -168 172c-77 0 -133 -39 -133 -112c0 -173 344 -145 344 -373c0 -122 -91 -198 -225 -198c-72 0 -149 20 -204 50l-10 174h24c27 -160 113 -187 188 -187c89 0 143 58 143 139c0 186 -344 147 -344 366c0 100 78 178 215 178
c61 0 129 -15 184 -45zM388 841l-138 -101l-11 10l93 145c8 12 21 20 33 21c23 1 44 -18 44 -40c0 -12 -6 -24 -21 -35z" />
    <glyph glyph-name="Scedilla" unicode="&#x15e;" horiz-adv-x="538" 
d="M470 501h-24c-27 117 -83 172 -168 172c-77 0 -133 -39 -133 -112c0 -173 344 -145 344 -373c0 -119 -86 -194 -214 -198v-30c31 -6 102 -31 102 -92c0 -63 -78 -101 -163 -114l-9 26c34 8 103 24 103 74c0 35 -33 50 -63 59l2 78c-67 3 -136 21 -187 49l-10 174h24
c27 -160 113 -187 188 -187c89 0 143 58 143 139c0 186 -344 147 -344 366c0 100 78 178 215 178c61 0 129 -15 184 -45z" />
    <glyph glyph-name="Scircumflex" unicode="&#x15c;" horiz-adv-x="538" 
d="M470 501h-24c-27 117 -83 172 -168 172c-77 0 -133 -39 -133 -112c0 -173 344 -145 344 -373c0 -122 -91 -198 -225 -198c-72 0 -149 20 -204 50l-10 174h24c27 -160 113 -187 188 -187c89 0 143 58 143 139c0 186 -344 147 -344 366c0 100 78 178 215 178
c61 0 129 -15 184 -45zM275 834l-114 -94h-22l124 180h23l125 -180h-22z" />
    <glyph glyph-name="Scommaaccent" unicode="&#x218;" horiz-adv-x="538" 
d="M269 -30c54 0 70 -42 70 -82c0 -54 -38 -103 -100 -131l-14 24c35 20 57 41 57 61c0 6 -3 13 -15 13c-35 0 -58 26 -58 57c0 35 30 58 60 58zM470 501h-24c-27 117 -83 172 -168 172c-77 0 -133 -39 -133 -112c0 -173 344 -145 344 -373c0 -122 -91 -198 -225 -198
c-72 0 -149 20 -204 50l-10 174h24c27 -160 113 -187 188 -187c89 0 143 58 143 139c0 186 -344 147 -344 366c0 100 78 178 215 178c61 0 129 -15 184 -45z" />
    <glyph glyph-name="Tbar" unicode="&#x166;" horiz-adv-x="581" 
d="M27 537l5 163h517l5 -163h-24c-20 87 -47 129 -126 129h-71v-298h94v-34h-94v-263c0 -41 9 -42 86 -47v-24h-257v24c77 5 86 6 86 47v263h-94v34h94v298h-71c-79 0 -106 -42 -126 -129h-24z" />
    <glyph glyph-name="Tcaron" unicode="&#x164;" horiz-adv-x="581" 
d="M27 537l5 163h517l5 -163h-24c-20 87 -47 129 -126 129h-71v-595c0 -41 9 -42 86 -47v-24h-257v24c77 5 86 6 86 47v595h-71c-79 0 -106 -42 -126 -129h-24zM176 920l114 -94l114 94h22l-125 -180h-23l-124 180h22z" />
    <glyph glyph-name="Tcommaaccent" unicode="&#x162;" horiz-adv-x="581" 
d="M289 -30c54 0 70 -42 70 -82c0 -54 -39 -103 -101 -131l-14 24c35 20 58 41 58 61c0 6 -4 13 -16 13c-34 0 -57 26 -57 57c0 35 29 58 60 58zM27 537l5 163h517l5 -163h-24c-20 87 -47 129 -126 129h-71v-595c0 -41 9 -42 86 -47v-24h-257v24c77 5 86 6 86 47v595h-71
c-79 0 -106 -42 -126 -129h-24z" />
    <glyph glyph-name="uni021A" unicode="&#x21a;" horiz-adv-x="581" 
d="M289 -30c54 0 70 -42 70 -82c0 -54 -39 -103 -101 -131l-14 24c35 20 58 41 58 61c0 6 -4 13 -16 13c-34 0 -57 26 -57 57c0 35 29 58 60 58zM27 537l5 163h517l5 -163h-24c-20 87 -47 129 -126 129h-71v-595c0 -41 9 -42 86 -47v-24h-257v24c77 5 86 6 86 47v595h-71
c-79 0 -106 -42 -126 -129h-24z" />
    <glyph glyph-name="Ubreve" unicode="&#x16c;" horiz-adv-x="755" 
d="M118 270v359c0 41 -9 42 -86 47v24h257v-24c-77 -5 -86 -6 -86 -47v-349c0 -154 62 -241 195 -241c130 0 198 88 198 241v349c0 41 -9 42 -94 47v24h227v-24c-83 -5 -92 -6 -92 -47v-359c0 -180 -101 -280 -264 -280c-177 0 -255 107 -255 280zM397 750
c-95 0 -125 85 -125 151h20c10 -45 50 -82 105 -82c56 0 96 37 106 82h20c0 -66 -31 -151 -126 -151z" />
    <glyph glyph-name="Uhungarumlaut" unicode="&#x170;" horiz-adv-x="755" 
d="M118 270v359c0 41 -9 42 -86 47v24h257v-24c-77 -5 -86 -6 -86 -47v-349c0 -154 62 -241 195 -241c130 0 198 88 198 241v349c0 41 -9 42 -94 47v24h227v-24c-83 -5 -92 -6 -92 -47v-359c0 -180 -101 -280 -264 -280c-177 0 -255 107 -255 280zM443 841l-138 -101l-11 10
l93 145c8 12 21 20 33 21c23 1 44 -18 44 -40c0 -12 -6 -24 -21 -35zM581 841l-138 -101l-11 10l93 145c8 12 21 20 33 21c23 1 44 -18 44 -40c0 -12 -6 -24 -21 -35z" />
    <glyph glyph-name="Umacron" unicode="&#x16a;" horiz-adv-x="755" 
d="M118 270v359c0 41 -9 42 -86 47v24h257v-24c-77 -5 -86 -6 -86 -47v-349c0 -154 62 -241 195 -241c130 0 198 88 198 241v349c0 41 -9 42 -94 47v24h227v-24c-83 -5 -92 -6 -92 -47v-359c0 -180 -101 -280 -264 -280c-177 0 -255 107 -255 280zM244 796h311v-37h-311v37z
" />
    <glyph glyph-name="Uogonek" unicode="&#x172;" horiz-adv-x="755" 
d="M452 -169v-17c-18 -23 -51 -40 -81 -40c-48 0 -81 37 -81 86c0 40 22 88 76 130c-172 3 -248 109 -248 280v359c0 41 -9 42 -86 47v24h257v-24c-77 -5 -86 -6 -86 -47v-349c0 -154 62 -241 195 -241c130 0 198 88 198 241v349c0 41 -9 42 -94 47v24h227v-24
c-83 -5 -92 -6 -92 -47v-359c0 -171 -91 -270 -240 -279c-31 -33 -47 -74 -47 -109c0 -48 32 -80 102 -51z" />
    <glyph glyph-name="Uring" unicode="&#x16e;" horiz-adv-x="755" 
d="M118 270v359c0 41 -9 42 -86 47v24h257v-24c-77 -5 -86 -6 -86 -47v-349c0 -154 62 -241 195 -241c130 0 198 88 198 241v349c0 41 -9 42 -94 47v24h227v-24c-83 -5 -92 -6 -92 -47v-359c0 -180 -101 -280 -264 -280c-177 0 -255 107 -255 280zM308 827c0 50 38 88 87 88
s89 -38 89 -88c0 -49 -40 -87 -89 -87s-87 38 -87 87zM338 827c0 -32 25 -57 57 -57c34 0 58 25 58 57c0 33 -24 58 -58 58c-32 0 -57 -25 -57 -58z" />
    <glyph glyph-name="Utilde" unicode="&#x168;" horiz-adv-x="755" 
d="M118 270v359c0 41 -9 42 -86 47v24h257v-24c-77 -5 -86 -6 -86 -47v-349c0 -154 62 -241 195 -241c130 0 198 88 198 241v349c0 41 -9 42 -94 47v24h227v-24c-83 -5 -92 -6 -92 -47v-359c0 -180 -101 -280 -264 -280c-177 0 -255 107 -255 280zM237 759l-16 11
c22 45 56 111 101 111c36 0 121 -40 171 -40c25 0 44 10 64 40l16 -11c-24 -47 -51 -101 -96 -101c-42 0 -121 40 -168 40c-33 0 -46 -16 -72 -50z" />
    <glyph glyph-name="Wacute" unicode="&#x1e82;" horiz-adv-x="1001" 
d="M668 -5l-147 494l-169 -494h-48l-211 626c-11 34 -25 49 -85 55v24h256v-24c-80 -9 -91 -17 -76 -61l162 -495h2l149 436l-19 65c-10 35 -26 49 -85 55v24h255v-24c-80 -9 -89 -16 -76 -61l139 -495h2l143 474c19 61 7 72 -75 82v24h208v-24c-55 -10 -70 -16 -82 -57
l-193 -624h-50zM652 841l-138 -101l-11 10l93 145c8 12 21 20 33 21c23 1 44 -18 44 -40c0 -12 -6 -24 -21 -35z" />
    <glyph glyph-name="Wcircumflex" unicode="&#x174;" horiz-adv-x="1001" 
d="M668 -5l-147 494l-169 -494h-48l-211 626c-11 34 -25 49 -85 55v24h256v-24c-80 -9 -91 -17 -76 -61l162 -495h2l149 436l-19 65c-10 35 -26 49 -85 55v24h255v-24c-80 -9 -89 -16 -76 -61l139 -495h2l143 474c19 61 7 72 -75 82v24h208v-24c-55 -10 -70 -16 -82 -57
l-193 -624h-50zM519 834l-114 -94h-22l124 180h23l125 -180h-22z" />
    <glyph glyph-name="Wdieresis" unicode="&#x1e84;" horiz-adv-x="1001" 
d="M668 -5l-147 494l-169 -494h-48l-211 626c-11 34 -25 49 -85 55v24h256v-24c-80 -9 -91 -17 -76 -61l162 -495h2l149 436l-19 65c-10 35 -26 49 -85 55v24h255v-24c-80 -9 -89 -16 -76 -61l139 -495h2l143 474c19 61 7 72 -75 82v24h208v-24c-55 -10 -70 -16 -82 -57
l-193 -624h-50zM374 805c0 32 23 55 53 55c31 0 54 -23 54 -55s-23 -53 -54 -53c-30 0 -53 21 -53 53zM567 805c0 32 24 55 55 55c30 0 53 -23 53 -55s-23 -53 -53 -53c-31 0 -55 21 -55 53z" />
    <glyph glyph-name="Wgrave" unicode="&#x1e80;" horiz-adv-x="1001" 
d="M668 -5l-147 494l-169 -494h-48l-211 626c-11 34 -25 49 -85 55v24h256v-24c-80 -9 -91 -17 -76 -61l162 -495h2l149 436l-19 65c-10 35 -26 49 -85 55v24h255v-24c-80 -9 -89 -16 -76 -61l139 -495h2l143 474c19 61 7 72 -75 82v24h208v-24c-55 -10 -70 -16 -82 -57
l-193 -624h-50zM520 740l-138 101c-15 11 -21 23 -21 35c0 22 20 41 43 40c12 -1 25 -9 34 -21l93 -145z" />
    <glyph glyph-name="Ycircumflex" unicode="&#x176;" horiz-adv-x="647" 
d="M296 71v175l-195 375c-16 31 -34 50 -93 55v24h256v-24c-80 -9 -89 -19 -68 -61l161 -321h2l135 300c26 58 19 72 -63 82v24h208v-24c-55 -10 -76 -17 -94 -57l-164 -358v-190c0 -41 9 -42 86 -47v-24h-257v24c77 5 86 6 86 47zM356 834l-114 -94h-22l124 180h23
l125 -180h-22z" />
    <glyph glyph-name="Ygrave" unicode="&#x1ef2;" horiz-adv-x="647" 
d="M296 71v175l-195 375c-16 31 -34 50 -93 55v24h256v-24c-80 -9 -89 -19 -68 -61l161 -321h2l135 300c26 58 19 72 -63 82v24h208v-24c-55 -10 -76 -17 -94 -57l-164 -358v-190c0 -41 9 -42 86 -47v-24h-257v24c77 5 86 6 86 47zM361 740l-138 101c-15 11 -21 23 -21 35
c0 22 20 41 43 40c12 -1 25 -9 34 -21l93 -145z" />
    <glyph glyph-name="Zacute" unicode="&#x179;" horiz-adv-x="572" 
d="M535 678l-404 -644h252c74 0 122 43 138 129h24l-10 -163h-508v22l406 644h-233c-74 0 -108 -35 -129 -129h-24l5 163h483v-22zM421 841l-138 -101l-11 10l93 145c8 12 21 20 33 21c23 1 44 -18 44 -40c0 -12 -6 -24 -21 -35z" />
    <glyph glyph-name="Zdotaccent" unicode="&#x17b;" horiz-adv-x="572" 
d="M535 678l-404 -644h252c74 0 122 43 138 129h24l-10 -163h-508v22l406 644h-233c-74 0 -108 -35 -129 -129h-24l5 163h483v-22zM248 807c0 32 23 55 53 55c31 0 54 -23 54 -55s-23 -53 -54 -53c-30 0 -53 21 -53 53z" />
    <glyph glyph-name="abreve" unicode="&#x103;" horiz-adv-x="511" 
d="M407 363v-287c0 -22 13 -32 32 -32c17 0 36 8 58 22l5 -20c-35 -26 -85 -56 -125 -56c-43 0 -53 28 -53 62v18h-2c-50 -48 -102 -80 -162 -80c-77 0 -116 50 -116 112s44 136 280 156v94c0 80 -38 121 -103 121c-60 0 -99 -35 -99 -66c0 -25 25 -27 25 -53
c0 -19 -18 -33 -44 -33c-23 0 -44 13 -44 43c0 46 65 146 199 146c102 0 149 -62 149 -147zM324 97v135c-148 -19 -196 -53 -196 -113c0 -45 30 -72 71 -72c43 0 85 24 125 50zM245 550c-81 0 -114 70 -114 136h21c10 -46 50 -72 93 -72s83 26 93 72h21
c0 -66 -33 -136 -114 -136z" />
    <glyph glyph-name="amacron" unicode="&#x101;" horiz-adv-x="511" 
d="M407 363v-287c0 -22 13 -32 32 -32c17 0 36 8 58 22l5 -20c-35 -26 -85 -56 -125 -56c-43 0 -53 28 -53 62v18h-2c-50 -48 -102 -80 -162 -80c-77 0 -116 50 -116 112s44 136 280 156v94c0 80 -38 121 -103 121c-60 0 -99 -35 -99 -66c0 -25 25 -27 25 -53
c0 -19 -18 -33 -44 -33c-23 0 -44 13 -44 43c0 46 65 146 199 146c102 0 149 -62 149 -147zM324 97v135c-148 -19 -196 -53 -196 -113c0 -45 30 -72 71 -72c43 0 85 24 125 50zM97 584h282v-34h-282v34z" />
    <glyph glyph-name="aogonek" unicode="&#x105;" horiz-adv-x="511" 
d="M451 -151v-17c-16 -21 -46 -36 -73 -36c-45 0 -75 33 -75 78c0 35 21 78 68 116c-38 3 -47 29 -47 62v18h-2c-50 -48 -102 -80 -162 -80c-77 0 -116 50 -116 112s44 136 280 156v94c0 80 -38 121 -103 121c-60 0 -99 -35 -99 -66c0 -25 25 -27 25 -53
c0 -19 -18 -33 -44 -33c-23 0 -44 13 -44 43c0 46 65 146 199 146c102 0 149 -62 149 -147v-287c0 -22 13 -32 32 -32c17 0 36 8 58 22l5 -20c-28 -21 -64 -43 -98 -52c-29 -30 -44 -68 -44 -100c0 -43 28 -71 91 -45zM324 97v135c-148 -19 -196 -53 -196 -113
c0 -45 30 -72 71 -72c43 0 85 24 125 50z" />
    <glyph glyph-name="aeacute" unicode="&#x1fd;" horiz-adv-x="782" 
d="M570 510c83 0 173 -39 173 -156c0 -18 -4 -42 -9 -60h-326c-1 -8 -1 -16 -1 -24c0 -146 81 -221 189 -221c62 0 100 18 129 37l10 -21c-20 -18 -78 -75 -175 -75c-92 0 -157 42 -196 104c-105 -84 -146 -104 -204 -104c-77 0 -116 50 -116 112s44 136 280 156v94
c0 80 -38 121 -103 121c-60 0 -99 -35 -99 -66c0 -25 25 -27 25 -53c0 -19 -18 -33 -44 -33c-23 0 -44 13 -44 43c0 46 65 146 199 146c70 0 114 -30 135 -76c46 50 111 76 177 76zM199 47c40 0 95 24 152 71c-16 34 -26 73 -27 114c-152 -21 -196 -54 -196 -113
c0 -45 30 -72 71 -72zM565 478c-78 0 -135 -57 -153 -147h240c5 19 6 38 6 53c-2 66 -41 94 -93 94zM524 641l-125 -91l-11 10l84 131c7 11 19 18 31 19c21 1 40 -17 40 -37c0 -11 -5 -22 -19 -32z" />
    <glyph glyph-name="cacute" unicode="&#x107;" horiz-adv-x="484" 
d="M292 478c-100 0 -169 -90 -169 -210c0 -146 80 -219 188 -219c62 0 100 18 129 37l10 -21c-20 -18 -78 -75 -175 -75c-155 0 -236 120 -236 255c0 170 121 265 246 265c110 0 167 -65 167 -127c0 -35 -22 -51 -47 -51c-21 0 -39 9 -39 30c0 18 16 28 16 46
c0 44 -29 70 -90 70zM386 641l-125 -91l-11 10l84 131c7 11 19 18 31 19c21 1 40 -17 40 -37c0 -11 -5 -22 -19 -32z" />
    <glyph glyph-name="ccaron" unicode="&#x10d;" horiz-adv-x="484" 
d="M292 478c-100 0 -169 -90 -169 -210c0 -146 80 -219 188 -219c62 0 100 18 129 37l10 -21c-20 -18 -78 -75 -175 -75c-155 0 -236 120 -236 255c0 170 121 265 246 265c110 0 167 -65 167 -127c0 -35 -22 -51 -47 -51c-21 0 -39 9 -39 30c0 18 16 28 16 46
c0 44 -29 70 -90 70zM180 712l101 -83l103 83h22l-113 -162h-23l-113 162h23z" />
    <glyph glyph-name="ccircumflex" unicode="&#x109;" horiz-adv-x="484" 
d="M292 478c-100 0 -169 -90 -169 -210c0 -146 80 -219 188 -219c62 0 100 18 129 37l10 -21c-20 -18 -78 -75 -175 -75c-155 0 -236 120 -236 255c0 170 121 265 246 265c110 0 167 -65 167 -127c0 -35 -22 -51 -47 -51c-21 0 -39 9 -39 30c0 18 16 28 16 46
c0 44 -29 70 -90 70zM274 633l-101 -83h-23l113 162h23l113 -162h-22z" />
    <glyph glyph-name="cdotaccent" unicode="&#x10b;" horiz-adv-x="484" 
d="M292 478c-100 0 -169 -90 -169 -210c0 -146 80 -219 188 -219c62 0 100 18 129 37l10 -21c-20 -18 -78 -75 -175 -75c-155 0 -236 120 -236 255c0 170 121 265 246 265c110 0 167 -65 167 -127c0 -35 -22 -51 -47 -51c-21 0 -39 9 -39 30c0 18 16 28 16 46
c0 44 -29 70 -90 70zM236 603c0 32 23 55 53 55c31 0 54 -23 54 -55s-23 -53 -54 -53c-30 0 -53 21 -53 53z" />
    <glyph glyph-name="dcaron" unicode="&#x10f;" horiz-adv-x="663" 
d="M282 42c49 0 90 25 119 50v243c0 113 -67 143 -116 143c-108 0 -157 -95 -157 -226c0 -143 71 -210 154 -210zM484 730v-647c0 -43 9 -44 86 -49v-23l-151 -21h-12l-1 71h-5c-37 -40 -97 -71 -157 -71c-129 0 -205 110 -205 260c0 164 111 260 233 260
c35 0 95 -9 129 -36v163c0 43 -9 44 -86 49v23l157 21h12zM584 730c54 0 70 -42 70 -82c0 -54 -38 -103 -101 -131l-13 24c35 20 57 41 57 61c0 6 -3 13 -15 13c-35 0 -58 26 -58 57c0 35 29 58 60 58z" />
    <glyph glyph-name="dcroat" unicode="&#x111;" horiz-adv-x="583" 
d="M484 730v-134h86v-34h-86v-479c0 -43 9 -44 86 -49v-23l-151 -21h-12l-1 71h-5c-37 -40 -97 -71 -157 -71c-129 0 -205 110 -205 260c0 164 111 260 233 260c35 0 95 -9 129 -36v88h-121v34h121v41c0 43 -9 44 -86 49v23l157 21h12zM282 42c49 0 90 25 119 50v243
c0 113 -67 143 -116 143c-108 0 -157 -95 -157 -226c0 -143 71 -210 154 -210z" />
    <glyph glyph-name="ebreve" unicode="&#x115;" horiz-adv-x="497" 
d="M285 510c83 0 173 -39 173 -156c0 -18 -4 -42 -9 -60h-326c-1 -8 -1 -16 -1 -24c0 -146 81 -221 189 -221c62 0 100 18 129 37l10 -21c-20 -18 -78 -75 -175 -75c-155 0 -236 120 -236 255c0 170 121 265 246 265zM280 478c-78 0 -135 -57 -153 -147h240c5 19 6 38 6 53
c-2 66 -41 94 -93 94zM281 550c-81 0 -114 70 -114 136h21c10 -46 50 -72 93 -72s83 26 93 72h21c0 -66 -33 -136 -114 -136z" />
    <glyph glyph-name="ecaron" unicode="&#x11b;" horiz-adv-x="497" 
d="M285 510c83 0 173 -39 173 -156c0 -18 -4 -42 -9 -60h-326c-1 -8 -1 -16 -1 -24c0 -146 81 -221 189 -221c62 0 100 18 129 37l10 -21c-20 -18 -78 -75 -175 -75c-155 0 -236 120 -236 255c0 170 121 265 246 265zM280 478c-78 0 -135 -57 -153 -147h240c5 19 6 38 6 53
c-2 66 -41 94 -93 94zM179 712l101 -83l103 83h22l-113 -162h-23l-113 162h23z" />
    <glyph glyph-name="edotaccent" unicode="&#x117;" horiz-adv-x="497" 
d="M285 510c83 0 173 -39 173 -156c0 -18 -4 -42 -9 -60h-326c-1 -8 -1 -16 -1 -24c0 -146 81 -221 189 -221c62 0 100 18 129 37l10 -21c-20 -18 -78 -75 -175 -75c-155 0 -236 120 -236 255c0 170 121 265 246 265zM280 478c-78 0 -135 -57 -153 -147h240c5 19 6 38 6 53
c-2 66 -41 94 -93 94zM228 603c0 32 23 55 53 55c31 0 54 -23 54 -55s-23 -53 -54 -53c-30 0 -53 21 -53 53z" />
    <glyph glyph-name="emacron" unicode="&#x113;" horiz-adv-x="497" 
d="M285 510c83 0 173 -39 173 -156c0 -18 -4 -42 -9 -60h-326c-1 -8 -1 -16 -1 -24c0 -146 81 -221 189 -221c62 0 100 18 129 37l10 -21c-20 -18 -78 -75 -175 -75c-155 0 -236 120 -236 255c0 170 121 265 246 265zM280 478c-78 0 -135 -57 -153 -147h240c5 19 6 38 6 53
c-2 66 -41 94 -93 94zM128 584h282v-34h-282v34z" />
    <glyph glyph-name="eogonek" unicode="&#x119;" horiz-adv-x="497" 
d="M346 -1l1 3c-22 -7 -46 -12 -72 -12c-155 0 -236 120 -236 255c0 170 121 265 246 265c83 0 173 -39 173 -156c0 -18 -4 -42 -9 -60h-326c-1 -7 -1 -16 -1 -24c0 -146 81 -221 189 -221c62 0 100 18 129 37l10 -21c-114 -86 -126 -137 -126 -171c0 -43 29 -71 92 -45v-17
c-16 -21 -46 -36 -73 -36c-46 0 -75 33 -75 78c0 36 26 86 78 125zM280 478c-78 0 -137 -58 -153 -147h240c5 19 6 38 6 53c-2 66 -41 94 -93 94z" />
    <glyph glyph-name="gbreve" unicode="&#x11f;" horiz-adv-x="534" 
d="M250 157c-25 0 -49 3 -71 10c-23 -18 -36 -33 -36 -55c0 -24 20 -30 63 -33l156 -9c84 -4 148 -48 148 -118c0 -120 -143 -162 -284 -162s-202 42 -202 106c0 43 39 80 94 115c-25 8 -51 27 -51 68c0 33 26 64 84 98c-60 28 -101 81 -101 156c0 106 84 177 200 177
c46 0 85 -12 115 -31l135 21v-57h-94c26 -32 39 -70 39 -107c0 -112 -79 -179 -195 -179zM137 342c0 -101 55 -153 118 -153c78 0 103 61 103 136c0 95 -47 153 -113 153c-71 0 -108 -50 -108 -136zM324 -7l-175 12c-44 -42 -55 -63 -55 -93c0 -55 47 -90 143 -90
c79 0 189 17 189 100c0 48 -48 67 -102 71zM257 550c-81 0 -114 70 -114 136h21c10 -46 50 -72 93 -72s83 26 93 72h21c0 -66 -33 -136 -114 -136z" />
    <glyph glyph-name="gcircumflex" unicode="&#x11d;" horiz-adv-x="534" 
d="M250 157c-25 0 -49 3 -71 10c-23 -18 -36 -33 -36 -55c0 -24 20 -30 63 -33l156 -9c84 -4 148 -48 148 -118c0 -120 -143 -162 -284 -162s-202 42 -202 106c0 43 39 80 94 115c-25 8 -51 27 -51 68c0 33 26 64 84 98c-60 28 -101 81 -101 156c0 106 84 177 200 177
c46 0 85 -12 115 -31l135 21v-57h-94c26 -32 39 -70 39 -107c0 -112 -79 -179 -195 -179zM137 342c0 -101 55 -153 118 -153c78 0 103 61 103 136c0 95 -47 153 -113 153c-71 0 -108 -50 -108 -136zM324 -7l-175 12c-44 -42 -55 -63 -55 -93c0 -55 47 -90 143 -90
c79 0 189 17 189 100c0 48 -48 67 -102 71zM245 633l-101 -83h-23l113 162h23l113 -162h-22z" />
    <glyph glyph-name="gcommaaccent" unicode="&#x123;" horiz-adv-x="534" 
d="M250 157c-25 0 -49 3 -71 10c-23 -18 -36 -33 -36 -55c0 -24 20 -30 63 -33l156 -9c84 -4 148 -48 148 -118c0 -120 -143 -162 -284 -162s-202 42 -202 106c0 43 39 80 94 115c-25 8 -51 27 -51 68c0 33 26 64 84 98c-60 28 -101 81 -101 156c0 106 84 177 200 177
c46 0 85 -12 115 -31l135 21v-57h-94c26 -32 39 -70 39 -107c0 -112 -79 -179 -195 -179zM137 342c0 -101 55 -153 118 -153c78 0 103 61 103 136c0 95 -47 153 -113 153c-71 0 -108 -50 -108 -136zM324 -7l-175 12c-44 -42 -55 -63 -55 -93c0 -55 47 -90 143 -90
c79 0 189 17 189 100c0 48 -48 67 -102 71zM256 550c-54 0 -70 42 -70 82c0 54 38 103 101 131l13 -24c-35 -20 -57 -41 -57 -61c0 -6 3 -13 15 -13c35 0 58 -26 58 -57c0 -35 -29 -58 -60 -58z" />
    <glyph glyph-name="gdotaccent" unicode="&#x121;" horiz-adv-x="534" 
d="M250 157c-25 0 -49 3 -71 10c-23 -18 -36 -33 -36 -55c0 -24 20 -30 63 -33l156 -9c84 -4 148 -48 148 -118c0 -120 -143 -162 -284 -162s-202 42 -202 106c0 43 39 80 94 115c-25 8 -51 27 -51 68c0 33 26 64 84 98c-60 28 -101 81 -101 156c0 106 84 177 200 177
c46 0 85 -12 115 -31l135 21v-57h-94c26 -32 39 -70 39 -107c0 -112 -79 -179 -195 -179zM137 342c0 -101 55 -153 118 -153c78 0 103 61 103 136c0 95 -47 153 -113 153c-71 0 -108 -50 -108 -136zM324 -7l-175 12c-44 -42 -55 -63 -55 -93c0 -55 47 -90 143 -90
c79 0 189 17 189 100c0 48 -48 67 -102 71zM205 603c0 32 23 55 53 55c31 0 54 -23 54 -55s-23 -53 -54 -53c-30 0 -53 21 -53 53z" />
    <glyph glyph-name="hbar" unicode="&#x127;" horiz-adv-x="618" 
d="M31 0v23c77 5 86 6 86 47v492h-86v34h86v41c0 43 -9 44 -86 49v23l157 21h12l-2 -134h123v-34h-124l-2 -157h5c49 59 119 105 192 105c68 0 127 -40 127 -150v-290c0 -41 9 -42 86 -47v-23h-237v23c59 5 68 6 68 47v287c0 54 -27 89 -81 89c-64 0 -120 -36 -155 -70v-306
c0 -41 9 -42 86 -47v-23h-255z" />
    <glyph glyph-name="hcircumflex" unicode="&#x125;" horiz-adv-x="618" 
d="M31 0v23c77 5 86 6 86 47v567c0 43 -9 44 -86 49v23l157 21h12l-5 -325h5c49 59 119 105 192 105c68 0 127 -40 127 -150v-290c0 -41 9 -42 86 -47v-23h-237v23c59 5 68 6 68 47v287c0 54 -27 89 -81 89c-64 0 -120 -36 -155 -70v-306c0 -41 9 -42 86 -47v-23h-255z
M146 843l-101 -83h-23l113 162h23l113 -162h-22z" />
    <glyph glyph-name="ibreve" unicode="&#x12d;" horiz-adv-x="299" 
d="M152 550c-81 0 -114 70 -114 136h21c10 -46 50 -72 93 -72s83 26 93 72h21c0 -66 -33 -136 -114 -136zM200 510v-440c0 -41 9 -42 86 -47v-23h-255v23c77 5 86 6 86 47v327c0 43 -9 44 -86 49v23l157 41h12z" />
    <glyph glyph-name="imacron" unicode="&#x12b;" horiz-adv-x="299" 
d="M5 584h282v-34h-282v34zM200 510v-440c0 -41 9 -42 86 -47v-23h-255v23c77 5 86 6 86 47v327c0 43 -9 44 -86 49v23l157 41h12z" />
    <glyph glyph-name="iogonek" unicode="&#x12f;" horiz-adv-x="299" 
d="M225 -151v-17c-16 -21 -46 -36 -73 -36c-46 0 -75 33 -75 78c0 38 24 86 82 126h-128v23c77 5 86 6 86 47v327c0 43 -9 44 -86 49v23l157 41h12v-440c0 -41 9 -42 86 -47v-23h-102c-33 -31 -51 -72 -51 -106c0 -43 29 -71 92 -45zM94 629c0 33 27 57 62 57
c34 0 61 -24 61 -57c0 -35 -27 -57 -61 -57c-35 0 -62 22 -62 57z" />
    <glyph glyph-name="itilde" unicode="&#x129;" horiz-adv-x="299" 
d="M10 542l-16 11c19 39 51 102 93 102c36 0 109 -36 144 -36c31 0 47 5 67 35l17 -11c-19 -38 -47 -93 -89 -93s-106 36 -148 36c-33 0 -45 -12 -68 -44zM200 510v-440c0 -41 9 -42 86 -47v-23h-255v23c77 5 86 6 86 47v327c0 43 -9 44 -86 49v23l157 41h12z" />
    <glyph glyph-name="ij" unicode="&#x133;" horiz-adv-x="552" 
d="M462 510v-480c0 -155 -77 -240 -154 -240c-35 0 -51 17 -51 42c0 20 14 38 39 38c27 0 48 -16 64 -16c18 0 19 30 19 104v439c0 43 -9 44 -86 49v23l157 41h12zM356 629c0 33 27 57 62 57c34 0 61 -24 61 -57c0 -35 -27 -57 -61 -57c-35 0 -62 22 -62 57zM94 629
c0 33 27 57 62 57c34 0 61 -24 61 -57c0 -35 -27 -57 -61 -57c-35 0 -62 22 -62 57zM200 510v-440c0 -41 9 -42 86 -47v-23h-255v23c77 5 86 6 86 47v327c0 43 -9 44 -86 49v23l157 41h12z" />
    <glyph glyph-name="dotlessi" unicode="&#x131;" horiz-adv-x="299" 
d="M200 510v-440c0 -41 9 -42 86 -47v-23h-255v23c77 5 86 6 86 47v327c0 43 -9 44 -86 49v23l157 41h12z" />
    <glyph glyph-name="jcircumflex" unicode="&#x135;" horiz-adv-x="281" 
d="M191 510v-480c0 -155 -77 -240 -154 -240c-35 0 -51 17 -51 42c0 20 14 38 39 38c27 0 48 -16 64 -16c18 0 19 30 19 104v439c0 43 -9 44 -86 49v23l157 41h12zM141 635l-101 -83h-23l113 162h23l113 -162h-22z" />
    <glyph glyph-name="dotlessj" unicode="&#x237;" horiz-adv-x="281" 
d="M191 510v-480c0 -155 -77 -240 -154 -240c-35 0 -51 17 -51 42c0 20 14 38 39 38c27 0 48 -16 64 -16c18 0 19 30 19 104v439c0 43 -9 44 -86 49v23l157 41h12z" />
    <glyph glyph-name="kcommaaccent" unicode="&#x137;" horiz-adv-x="592" 
d="M200 730v-453c75 0 79 7 119 53l76 90c33 39 12 48 -58 57v23h216v-23c-71 -10 -87 -24 -114 -57l-110 -130l190 -238c11 -14 25 -26 69 -31v-21h-140l-169 219c-19 23 -37 29 -79 30v-179c0 -41 9 -42 86 -47v-23h-255v23c77 5 86 6 86 47v567c0 43 -9 44 -86 49v23
l157 21h12zM309 -30c54 0 70 -42 70 -82c0 -54 -38 -103 -101 -131l-13 24c35 20 57 41 57 61c0 6 -3 13 -15 13c-35 0 -58 26 -58 57c0 35 29 58 60 58z" />
    <glyph glyph-name="lacute" unicode="&#x13a;" horiz-adv-x="299" 
d="M200 730v-660c0 -41 9 -42 86 -47v-23h-255v23c77 5 86 6 86 47v567c0 43 -9 44 -86 49v23l157 21h12zM271 861l-125 -91l-11 10l84 131c7 11 19 18 31 19c21 1 40 -17 40 -37c0 -11 -5 -22 -19 -32z" />
    <glyph glyph-name="lcaron" unicode="&#x13e;" horiz-adv-x="379" 
d="M200 730v-660c0 -41 9 -42 86 -47v-23h-255v23c77 5 86 6 86 47v567c0 43 -9 44 -86 49v23l157 21h12zM300 730c54 0 70 -42 70 -82c0 -54 -38 -103 -101 -131l-13 24c35 20 57 41 57 61c0 6 -3 13 -15 13c-35 0 -58 26 -58 57c0 35 29 58 60 58z" />
    <glyph glyph-name="lcommaaccent" unicode="&#x13c;" horiz-adv-x="299" 
d="M200 730v-660c0 -41 9 -42 86 -47v-23h-255v23c77 5 86 6 86 47v567c0 43 -9 44 -86 49v23l157 21h12zM154 -30c54 0 70 -42 70 -82c0 -54 -38 -103 -101 -131l-13 24c35 20 57 41 57 61c0 6 -3 13 -15 13c-35 0 -58 26 -58 57c0 35 29 58 60 58z" />
    <glyph glyph-name="ldot" unicode="&#x140;" horiz-adv-x="356" 
d="M200 730v-660c0 -41 9 -42 86 -47v-23h-255v23c77 5 86 6 86 47v567c0 43 -9 44 -86 49v23l157 21h12zM240 385c0 32 23 55 53 55c31 0 54 -23 54 -55s-23 -53 -54 -53c-30 0 -53 21 -53 53z" />
    <glyph glyph-name="lslash" unicode="&#x142;" horiz-adv-x="299" 
d="M200 730v-342l86 35v-34l-86 -35v-284c0 -41 9 -42 86 -47v-23h-255v23c77 5 86 6 86 47v250l-86 -35v34l86 35v283c0 43 -9 44 -86 49v23l157 21h12z" />
    <glyph glyph-name="nacute" unicode="&#x144;" horiz-adv-x="618" 
d="M31 0v23c77 5 86 6 86 47v327c0 43 -9 44 -86 49v23l157 41h12l-5 -105h5c49 59 119 105 192 105c68 0 127 -40 127 -150v-290c0 -41 9 -42 86 -47v-23h-237v23c59 5 68 6 68 47v287c0 54 -27 89 -81 89c-64 0 -120 -36 -155 -70v-306c0 -41 9 -42 86 -47v-23h-255z
M409 641l-125 -91l-11 10l84 131c7 11 19 18 31 19c21 1 40 -17 40 -37c0 -11 -5 -22 -19 -32z" />
    <glyph glyph-name="ncaron" unicode="&#x148;" horiz-adv-x="618" 
d="M31 0v23c77 5 86 6 86 47v327c0 43 -9 44 -86 49v23l157 41h12l-5 -105h5c49 59 119 105 192 105c68 0 127 -40 127 -150v-290c0 -41 9 -42 86 -47v-23h-237v23c59 5 68 6 68 47v287c0 54 -27 89 -81 89c-64 0 -120 -36 -155 -70v-306c0 -41 9 -42 86 -47v-23h-255z
M209 712l101 -83l103 83h22l-113 -162h-23l-113 162h23z" />
    <glyph glyph-name="ncommaaccent" unicode="&#x146;" horiz-adv-x="618" 
d="M31 0v23c77 5 86 6 86 47v327c0 43 -9 44 -86 49v23l157 41h12l-5 -105h5c49 59 119 105 192 105c68 0 127 -40 127 -150v-290c0 -41 9 -42 86 -47v-23h-237v23c59 5 68 6 68 47v287c0 54 -27 89 -81 89c-64 0 -120 -36 -155 -70v-306c0 -41 9 -42 86 -47v-23h-255z
M319 -30c54 0 70 -42 70 -82c0 -54 -38 -103 -101 -131l-13 24c35 20 57 41 57 61c0 6 -3 13 -15 13c-35 0 -58 26 -58 57c0 35 29 58 60 58z" />
    <glyph glyph-name="obreve" unicode="&#x14f;" horiz-adv-x="552" 
d="M276 -10c144 0 237 115 237 260s-93 260 -237 260s-237 -115 -237 -260s93 -260 237 -260zM276 478c92 0 148 -78 148 -228s-56 -228 -148 -228s-148 78 -148 228s56 228 148 228zM276 550c-81 0 -114 70 -114 136h21c10 -46 50 -72 93 -72s83 26 93 72h21
c0 -66 -33 -136 -114 -136z" />
    <glyph glyph-name="ohungarumlaut" unicode="&#x151;" horiz-adv-x="552" 
d="M276 -10c144 0 237 115 237 260s-93 260 -237 260s-237 -115 -237 -260s93 -260 237 -260zM276 478c92 0 148 -78 148 -228s-56 -228 -148 -228s-148 78 -148 228s56 228 148 228zM311 641l-125 -91l-11 10l84 131c7 11 19 18 31 19c21 1 40 -17 40 -37
c0 -11 -5 -22 -19 -32zM437 641l-125 -91l-11 10l84 131c7 11 20 18 31 19c22 1 40 -17 40 -37c0 -11 -5 -22 -19 -32z" />
    <glyph glyph-name="omacron" unicode="&#x14d;" horiz-adv-x="552" 
d="M276 -10c144 0 237 115 237 260s-93 260 -237 260s-237 -115 -237 -260s93 -260 237 -260zM276 478c92 0 148 -78 148 -228s-56 -228 -148 -228s-148 78 -148 228s56 228 148 228zM135 584h282v-34h-282v34z" />
    <glyph glyph-name="oslashacute" unicode="&#x1ff;" horiz-adv-x="552" 
d="M390 641l-125 -91l-11 10l84 131c7 11 19 18 31 19c21 1 40 -17 40 -37c0 -11 -5 -22 -19 -32zM276 -10c144 0 237 115 237 260c0 107 -51 198 -137 238l18 52h-35l-14 -40c-22 7 -45 10 -69 10c-144 0 -237 -115 -237 -260c0 -108 51 -200 136 -239l-17 -51h36l13 40
c22 -6 44 -10 69 -10zM276 478c21 0 40 -4 57 -12l-143 -413c-40 35 -62 102 -62 197c0 150 56 228 148 228zM276 22c-21 0 -40 4 -57 12l143 413c40 -36 62 -102 62 -197c0 -150 -56 -228 -148 -228z" />
    <glyph glyph-name="racute" unicode="&#x155;" horiz-adv-x="420" 
d="M31 0v23c77 5 86 6 86 47v327c0 43 -9 44 -86 49v23l157 41h12l-5 -115h5c53 76 101 115 156 115c30 0 55 -18 55 -51c0 -24 -17 -46 -44 -46c-24 0 -36 15 -62 15c-34 0 -69 -24 -105 -66v-292c0 -41 9 -42 106 -47v-23h-275zM289 641l-125 -91l-11 10l84 131
c7 11 19 18 31 19c21 1 40 -17 40 -37c0 -11 -5 -22 -19 -32z" />
    <glyph glyph-name="rcaron" unicode="&#x159;" horiz-adv-x="420" 
d="M31 0v23c77 5 86 6 86 47v327c0 43 -9 44 -86 49v23l157 41h12l-5 -115h5c53 76 101 115 156 115c30 0 55 -18 55 -51c0 -24 -17 -46 -44 -46c-24 0 -36 15 -62 15c-34 0 -69 -24 -105 -66v-292c0 -41 9 -42 106 -47v-23h-275zM135 712l101 -83l103 83h22l-113 -162h-23
l-113 162h23z" />
    <glyph glyph-name="rcommaaccent" unicode="&#x157;" horiz-adv-x="420" 
d="M31 0v23c77 5 86 6 86 47v327c0 43 -9 44 -86 49v23l157 41h12l-5 -115h5c53 76 101 115 156 115c30 0 55 -18 55 -51c0 -24 -17 -46 -44 -46c-24 0 -36 15 -62 15c-34 0 -69 -24 -105 -66v-292c0 -41 9 -42 106 -47v-23h-275zM153 -30c54 0 70 -42 70 -82
c0 -54 -38 -103 -101 -131l-13 24c35 20 57 41 57 61c0 6 -3 13 -15 13c-35 0 -58 26 -58 57c0 35 29 58 60 58z" />
    <glyph glyph-name="sacute" unicode="&#x15b;" horiz-adv-x="426" 
d="M365 350h-24c-10 78 -68 128 -127 128c-60 0 -95 -29 -95 -78c0 -123 268 -90 268 -260c0 -95 -75 -150 -185 -150c-54 0 -111 15 -151 35l-12 135h24c26 -117 91 -138 140 -138c67 0 105 38 105 92c0 125 -264 93 -264 260c0 80 67 136 172 136c47 0 101 -12 141 -31z
M320 641l-125 -91l-11 10l84 131c7 11 19 18 31 19c21 1 40 -17 40 -37c0 -11 -5 -22 -19 -32z" />
    <glyph glyph-name="scedilla" unicode="&#x15f;" horiz-adv-x="426" 
d="M365 350h-24c-10 78 -68 128 -127 128c-60 0 -95 -29 -95 -78c0 -123 268 -90 268 -260c0 -93 -71 -147 -176 -150v-26c31 -6 92 -28 92 -85c0 -54 -68 -90 -148 -102l-9 25c32 7 92 21 92 66c0 31 -27 43 -56 51l2 72c-48 3 -98 16 -133 34l-12 135h24
c26 -117 91 -138 140 -138c67 0 105 38 105 92c0 125 -264 93 -264 260c0 80 67 136 172 136c47 0 101 -12 141 -31z" />
    <glyph glyph-name="scircumflex" unicode="&#x15d;" horiz-adv-x="426" 
d="M365 350h-24c-10 78 -68 128 -127 128c-60 0 -95 -29 -95 -78c0 -123 268 -90 268 -260c0 -95 -75 -150 -185 -150c-54 0 -111 15 -151 35l-12 135h24c26 -117 91 -138 140 -138c67 0 105 38 105 92c0 125 -264 93 -264 260c0 80 67 136 172 136c47 0 101 -12 141 -31z
M216 633l-101 -83h-23l113 162h23l113 -162h-22z" />
    <glyph glyph-name="scommaaccent" unicode="&#x219;" horiz-adv-x="426" 
d="M365 350h-24c-10 78 -68 128 -127 128c-60 0 -95 -29 -95 -78c0 -123 268 -90 268 -260c0 -95 -75 -150 -185 -150c-54 0 -111 15 -151 35l-12 135h24c26 -117 91 -138 140 -138c67 0 105 38 105 92c0 125 -264 93 -264 260c0 80 67 136 172 136c47 0 101 -12 141 -31z
M213 -30c54 0 70 -42 70 -82c0 -54 -38 -103 -101 -131l-13 24c35 20 57 41 57 61c0 6 -3 13 -15 13c-35 0 -58 26 -58 57c0 35 29 58 60 58z" />
    <glyph glyph-name="tbar" unicode="&#x167;" horiz-adv-x="360" 
d="M191 463v-175h137v-34h-137v-132c0 -65 21 -84 62 -84c34 0 57 10 87 22l3 -18c-50 -40 -92 -52 -138 -52c-66 0 -97 35 -97 120v144h-86v34h86v175h-86v29l86 8l61 150h22v-150h137v-37h-137z" />
    <glyph glyph-name="tcaron" unicode="&#x165;" horiz-adv-x="360" 
d="M191 463v-341c0 -65 21 -84 62 -84c34 0 57 10 87 22l3 -18c-50 -40 -92 -52 -138 -52c-66 0 -97 35 -97 120v353h-86v29l86 8l61 150h22v-150h137v-37h-137zM279 746c54 0 70 -42 70 -82c0 -54 -38 -103 -101 -131l-13 24c35 20 57 41 57 61c0 6 -3 13 -15 13
c-35 0 -58 26 -58 57c0 35 29 58 60 58z" />
    <glyph glyph-name="tcommaaccent" unicode="&#x163;" horiz-adv-x="360" 
d="M191 463v-341c0 -65 21 -84 62 -84c34 0 57 10 87 22l3 -18c-50 -40 -92 -52 -138 -52c-66 0 -97 35 -97 120v353h-86v29l86 8l61 150h22v-150h137v-37h-137zM189 -30c54 0 70 -42 70 -82c0 -54 -38 -103 -101 -131l-13 24c35 20 57 41 57 61c0 6 -3 13 -15 13
c-35 0 -58 26 -58 57c0 35 29 58 60 58z" />
    <glyph glyph-name="uni021B" unicode="&#x21b;" horiz-adv-x="360" 
d="M191 463v-341c0 -65 21 -84 62 -84c34 0 57 10 87 22l3 -18c-50 -40 -92 -52 -138 -52c-66 0 -97 35 -97 120v353h-86v29l86 8l61 150h22v-150h137v-37h-137zM189 -30c54 0 70 -42 70 -82c0 -54 -38 -103 -101 -131l-13 24c35 20 57 41 57 61c0 6 -3 13 -15 13
c-35 0 -58 26 -58 57c0 35 29 58 60 58z" />
    <glyph glyph-name="ubreve" unicode="&#x16d;" horiz-adv-x="609" 
d="M427 124v273c0 43 -9 44 -106 49v23l177 41h12v-427c0 -43 9 -44 86 -49v-23l-151 -21h-12l-1 105h-5c-49 -59 -119 -105 -192 -105c-68 0 -127 40 -127 150v257c0 43 -9 44 -86 49v23l157 41h12v-367c0 -54 27 -89 81 -89c64 0 120 36 155 70zM302 550
c-81 0 -114 70 -114 136h21c10 -46 50 -72 93 -72s83 26 93 72h21c0 -66 -33 -136 -114 -136z" />
    <glyph glyph-name="uhungarumlaut" unicode="&#x171;" horiz-adv-x="609" 
d="M427 124v273c0 43 -9 44 -106 49v23l177 41h12v-427c0 -43 9 -44 86 -49v-23l-151 -21h-12l-1 105h-5c-49 -59 -119 -105 -192 -105c-68 0 -127 40 -127 150v257c0 43 -9 44 -86 49v23l157 41h12v-367c0 -54 27 -89 81 -89c64 0 120 36 155 70zM349 641l-125 -91l-11 10
l84 131c7 11 19 18 31 19c21 1 40 -17 40 -37c0 -11 -5 -22 -19 -32zM475 641l-125 -91l-11 10l84 131c7 11 20 18 31 19c22 1 40 -17 40 -37c0 -11 -5 -22 -19 -32z" />
    <glyph glyph-name="umacron" unicode="&#x16b;" horiz-adv-x="609" 
d="M427 124v273c0 43 -9 44 -106 49v23l177 41h12v-427c0 -43 9 -44 86 -49v-23l-151 -21h-12l-1 105h-5c-49 -59 -119 -105 -192 -105c-68 0 -127 40 -127 150v257c0 43 -9 44 -86 49v23l157 41h12v-367c0 -54 27 -89 81 -89c64 0 120 36 155 70zM169 584h282v-34h-282v34z
" />
    <glyph glyph-name="uogonek" unicode="&#x173;" horiz-adv-x="609" 
d="M509 -151v-17c-16 -21 -45 -36 -72 -36c-46 0 -75 33 -75 78c0 36 21 80 71 118l-1 103h-5c-49 -59 -119 -105 -192 -105c-68 0 -127 40 -127 150v257c0 43 -9 44 -86 49v23l157 41h12v-367c0 -54 27 -89 81 -89c64 0 120 36 155 70v273c0 43 -9 44 -106 49v23l177 41h12
v-427c0 -43 9 -44 86 -49v-23l-135 -19c-28 -30 -43 -67 -43 -98c0 -43 28 -71 91 -45z" />
    <glyph glyph-name="uring" unicode="&#x16f;" horiz-adv-x="609" 
d="M427 124v273c0 43 -9 44 -106 49v23l177 41h12v-427c0 -43 9 -44 86 -49v-23l-151 -21h-12l-1 105h-5c-49 -59 -119 -105 -192 -105c-68 0 -127 40 -127 150v257c0 43 -9 44 -86 49v23l157 41h12v-367c0 -54 27 -89 81 -89c64 0 120 36 155 70zM217 629c0 46 35 81 79 81
c45 0 81 -35 81 -81c0 -44 -36 -79 -81 -79c-44 0 -79 35 -79 79zM245 629c0 -28 23 -51 51 -51c31 0 52 23 52 51c0 31 -21 52 -52 52c-28 0 -51 -21 -51 -52z" />
    <glyph glyph-name="utilde" unicode="&#x169;" horiz-adv-x="609" 
d="M427 124v273c0 43 -9 44 -106 49v23l177 41h12v-427c0 -43 9 -44 86 -49v-23l-151 -21h-12l-1 105h-5c-49 -59 -119 -105 -192 -105c-68 0 -127 40 -127 150v257c0 43 -9 44 -86 49v23l157 41h12v-367c0 -54 27 -89 81 -89c64 0 120 36 155 70zM170 542l-16 11
c19 39 51 102 93 102c36 0 109 -36 144 -36c31 0 47 5 67 35l17 -11c-19 -38 -47 -93 -89 -93s-106 36 -148 36c-33 0 -45 -12 -68 -44z" />
    <glyph glyph-name="wacute" unicode="&#x1e83;" horiz-adv-x="844" 
d="M578 -5l-145 395l-148 -395h-45l-168 428c-13 34 -18 49 -68 54v23h243v-23c-82 -9 -88 -18 -74 -58l112 -322h2l143 408h52l141 -408h2l101 322c16 49 -4 49 -70 58v23h184v-23c-42 -6 -57 -10 -70 -48l-147 -434h-45zM575 641l-125 -91l-11 10l84 131c7 11 19 18 31 19
c21 1 40 -17 40 -37c0 -11 -5 -22 -19 -32z" />
    <glyph glyph-name="wcircumflex" unicode="&#x175;" horiz-adv-x="844" 
d="M578 -5l-145 395l-148 -395h-45l-168 428c-13 34 -18 49 -68 54v23h243v-23c-82 -9 -88 -18 -74 -58l112 -322h2l143 408h52l141 -408h2l101 322c16 49 -4 49 -70 58v23h184v-23c-42 -6 -57 -10 -70 -48l-147 -434h-45zM447 633l-101 -83h-23l113 162h23l113 -162h-22z
" />
    <glyph glyph-name="wdieresis" unicode="&#x1e85;" horiz-adv-x="844" 
d="M578 -5l-145 395l-148 -395h-45l-168 428c-13 34 -18 49 -68 54v23h243v-23c-82 -9 -88 -18 -74 -58l112 -322h2l143 408h52l141 -408h2l101 322c16 49 -4 49 -70 58v23h184v-23c-42 -6 -57 -10 -70 -48l-147 -434h-45zM314 599c0 29 21 50 49 50s50 -21 50 -50
c0 -30 -22 -49 -50 -49s-49 19 -49 49zM488 599c0 29 22 50 50 50s49 -21 49 -50c0 -30 -21 -49 -49 -49s-50 19 -50 49z" />
    <glyph glyph-name="wgrave" unicode="&#x1e81;" horiz-adv-x="844" 
d="M578 -5l-145 395l-148 -395h-45l-168 428c-13 34 -18 49 -68 54v23h243v-23c-82 -9 -88 -18 -74 -58l112 -322h2l143 408h52l141 -408h2l101 322c16 49 -4 49 -70 58v23h184v-23c-42 -6 -57 -10 -70 -48l-147 -434h-45zM442 550l-125 91c-14 10 -19 21 -19 32
c0 20 18 38 40 37c11 -1 23 -8 31 -19l84 -131z" />
    <glyph glyph-name="ycircumflex" unicode="&#x177;" horiz-adv-x="546" 
d="M472 429l-161 -418c-71 -185 -185 -221 -250 -221c-36 0 -53 18 -53 41c0 22 15 39 41 39c23 0 38 -8 64 -8c70 0 108 41 149 130l-190 431c-14 33 -18 49 -68 54v23h243v-23c-82 -9 -90 -19 -74 -58l132 -322h2l121 322c18 48 -4 49 -70 58v23h184v-23
c-42 -6 -56 -10 -70 -48zM311 633l-101 -83h-23l113 162h23l113 -162h-22z" />
    <glyph glyph-name="ygrave" unicode="&#x1ef3;" horiz-adv-x="546" 
d="M472 429l-161 -418c-71 -185 -185 -221 -250 -221c-36 0 -53 18 -53 41c0 22 15 39 41 39c23 0 38 -8 64 -8c70 0 108 41 149 130l-190 431c-14 33 -18 49 -68 54v23h243v-23c-82 -9 -90 -19 -74 -58l132 -322h2l121 322c18 48 -4 49 -70 58v23h184v-23
c-42 -6 -56 -10 -70 -48zM303 550l-125 91c-14 10 -19 21 -19 32c0 20 18 38 40 37c11 -1 23 -8 31 -19l84 -131z" />
    <glyph glyph-name="zacute" unicode="&#x17a;" horiz-adv-x="476" 
d="M128 32h197c55 0 78 25 98 121h26l-14 -153h-408v22l302 446h-173c-55 0 -69 -33 -89 -121h-26l9 153h380v-22zM365 641l-125 -91l-11 10l84 131c7 11 19 18 31 19c21 1 40 -17 40 -37c0 -11 -5 -22 -19 -32z" />
    <glyph glyph-name="zdotaccent" unicode="&#x17c;" horiz-adv-x="476" 
d="M128 32h197c55 0 78 25 98 121h26l-14 -153h-408v22l302 446h-173c-55 0 -69 -33 -89 -121h-26l9 153h380v-22zM195 603c0 32 23 55 53 55c31 0 54 -23 54 -55s-23 -53 -54 -53c-30 0 -53 21 -53 53z" />
    <glyph glyph-name="asuperior" horiz-adv-x="310" 
d="M248 617v-169c0 -13 7 -18 17 -18c11 0 21 4 33 12l3 -14c-21 -16 -51 -34 -77 -34c-28 0 -36 17 -36 38v10h-1c-29 -29 -59 -48 -95 -48c-46 0 -70 30 -70 68c0 37 27 83 166 94v56c0 45 -20 69 -59 69c-34 0 -56 -20 -56 -38c0 -15 15 -17 15 -33
c0 -11 -12 -21 -28 -21c-15 0 -29 9 -29 27c0 30 41 90 123 90c63 0 94 -38 94 -89zM188 461v77c-78 -10 -106 -29 -106 -63c0 -26 17 -41 39 -41c24 0 47 12 67 27z" />
    <glyph glyph-name="bsuperior" horiz-adv-x="349" 
d="M109 663h3c22 24 56 43 92 43c77 0 123 -66 123 -156c0 -98 -66 -156 -143 -156c-26 0 -69 7 -97 36l-25 -33h-10v384c0 25 -4 26 -48 29v15l100 13h8zM177 671c-27 0 -49 -13 -65 -28v-144c0 -67 38 -83 65 -83c59 0 86 55 86 132c0 83 -39 123 -86 123z" />
    <glyph glyph-name="csuperior" horiz-adv-x="292" 
d="M176 684c-56 0 -94 -54 -94 -124c0 -86 48 -126 109 -126c36 0 59 11 76 22l7 -15c-11 -11 -46 -47 -108 -47c-94 0 -144 72 -144 153c0 102 75 159 150 159c68 0 102 -40 102 -77c0 -21 -13 -32 -31 -32c-15 0 -26 6 -26 19c0 11 10 17 10 28c0 26 -17 40 -51 40z" />
    <glyph glyph-name="dsuperior" horiz-adv-x="354" 
d="M172 429c25 0 48 13 65 28v144c0 67 -39 83 -65 83c-60 0 -87 -55 -87 -132c0 -83 40 -123 87 -123zM295 838v-387c0 -25 6 -26 50 -29v-15l-97 -13h-8v43h-3c-22 -24 -57 -43 -93 -43c-76 0 -122 66 -122 156c0 98 67 156 141 156c19 0 53 -5 74 -20v95
c0 25 -6 26 -49 29v15l100 13h7z" />
    <glyph glyph-name="esuperior" horiz-adv-x="300" 
d="M172 706c51 0 106 -24 106 -95c0 -11 -2 -25 -5 -36h-192v-13c0 -86 49 -128 110 -128c36 0 59 11 76 22l7 -15c-11 -11 -46 -47 -108 -47c-94 0 -144 72 -144 153c0 102 75 159 150 159zM169 684c-44 0 -75 -32 -85 -84h133c3 10 3 22 3 31c-1 39 -23 53 -51 53z" />
    <glyph glyph-name="fsuperior" horiz-adv-x="209" 
d="M193 700v-25h-67v-233c0 -23 5 -24 60 -27v-15h-168v15c44 3 48 4 48 27v233h-48v19l48 6v18c0 61 39 120 114 120c40 0 73 -22 73 -50c0 -21 -13 -31 -29 -31c-13 0 -24 6 -24 19c0 9 7 12 7 22c0 13 -12 21 -28 21c-45 0 -53 -46 -53 -99v-20h67z" />
    <glyph glyph-name="gsuperior" horiz-adv-x="322" 
d="M151 495c-15 0 -29 2 -43 5c-11 -9 -19 -18 -19 -30c0 -14 12 -18 36 -19l92 -6c54 -3 92 -31 92 -73c0 -72 -86 -98 -174 -98c-83 0 -122 25 -122 62c0 25 22 47 54 68c-14 5 -29 17 -29 42c0 22 19 42 54 60c-37 16 -63 48 -63 94c0 64 51 106 122 106
c28 0 51 -7 69 -18l83 12v-35h-56c15 -19 23 -41 23 -63c0 -66 -49 -107 -119 -107zM89 606c0 -61 31 -89 65 -89c43 0 55 35 55 78c0 57 -25 89 -61 89c-39 0 -59 -28 -59 -78zM193 392l-104 7c-24 -23 -30 -36 -30 -51c0 -33 30 -52 84 -52c45 0 108 9 108 56
c0 27 -27 38 -58 40z" />
    <glyph glyph-name="isuperior" horiz-adv-x="183" 
d="M53 777c0 22 18 37 41 37s41 -15 41 -37s-18 -36 -41 -36s-41 14 -41 36zM126 706v-264c0 -23 5 -24 48 -27v-15h-156v15c44 3 48 4 48 27v195c0 25 -4 26 -48 29v15l100 25h8z" />
    <glyph glyph-name="jsuperior" unicode="&#x2b2;" horiz-adv-x="172" 
d="M121 706v-285c0 -94 -51 -147 -100 -147c-21 0 -33 10 -33 27c0 13 9 24 25 24c17 0 29 -11 39 -11c13 0 10 25 10 70v253c0 25 -5 26 -48 29v15l99 25h8zM49 777c0 22 18 37 41 37c22 0 40 -15 40 -37s-18 -36 -40 -36c-23 0 -41 14 -41 36z" />
    <glyph glyph-name="ksuperior" horiz-adv-x="360" 
d="M126 838v-271c40 0 43 3 66 29l45 55c19 22 8 29 -34 34v15h132v-15c-42 -6 -52 -13 -68 -33l-62 -74l111 -146c8 -9 16 -15 40 -18v-14h-92l-95 130c-10 12 -20 17 -43 17v-105c0 -23 5 -24 48 -27v-15h-156v15c44 3 48 4 48 27v339c0 25 -4 26 -48 29v15l100 13h8z" />
    <glyph glyph-name="lsuperior" horiz-adv-x="183" 
d="M126 838v-396c0 -23 5 -24 48 -27v-15h-156v15c44 3 48 4 48 27v339c0 25 -4 26 -48 29v15l100 13h8z" />
    <glyph glyph-name="msuperior" horiz-adv-x="553" 
d="M18 400v15c44 3 48 4 48 27v195c0 25 -4 26 -48 29v15l100 25h8l-3 -63h3c29 35 64 63 108 63c36 0 65 -19 74 -62h3c30 35 64 62 107 62c42 0 78 -24 78 -90v-174c0 -23 5 -24 48 -27v-15h-140v15c28 3 32 4 32 27v170c0 31 -14 51 -44 51s-60 -19 -81 -38v-183
c0 -23 5 -24 49 -27v-15h-141v15c27 3 33 4 33 27v170c0 31 -15 51 -45 51c-32 0 -62 -20 -81 -39v-182c0 -23 5 -24 48 -27v-15h-156z" />
    <glyph glyph-name="nsuperior" unicode="&#x207f;" horiz-adv-x="375" 
d="M18 400v15c44 3 48 4 48 27v195c0 25 -4 26 -48 29v15l100 25h8l-3 -63h3c29 35 70 63 114 63c41 0 77 -24 77 -90v-174c0 -23 5 -24 49 -27v-15h-147v15c33 3 39 4 39 27v170c0 31 -16 51 -46 51c-36 0 -67 -20 -86 -39v-182c0 -23 5 -24 48 -27v-15h-156z" />
    <glyph glyph-name="osuperior" horiz-adv-x="333" 
d="M167 394c-88 0 -145 69 -145 156s57 156 145 156s144 -69 144 -156s-56 -156 -144 -156zM167 684c-52 0 -82 -44 -82 -134s30 -134 82 -134c50 0 81 44 81 134s-31 134 -81 134z" />
    <glyph glyph-name="psuperior" horiz-adv-x="358" 
d="M118 663h3c22 24 56 43 92 43c77 0 123 -66 123 -156c0 -98 -68 -156 -142 -156c-20 0 -53 5 -73 20v-92c0 -23 5 -24 48 -27v-15h-156v15c44 3 48 4 48 27v315c0 25 -4 26 -48 29v15l100 25h8zM186 671c-27 0 -49 -13 -65 -28v-144c0 -67 38 -83 65 -83
c59 0 86 55 86 132c0 83 -39 123 -86 123z" />
    <glyph glyph-name="qsuperior" horiz-adv-x="345" 
d="M172 429c25 0 48 13 65 28v144c0 67 -39 83 -65 83c-60 0 -87 -55 -87 -132c0 -83 40 -123 87 -123zM237 322l3 115h-3c-22 -24 -57 -43 -93 -43c-76 0 -122 66 -122 156c0 98 66 156 143 156c25 0 69 -7 97 -36l24 33h9v-381c0 -23 6 -24 50 -27v-15h-157v15
c43 3 48 4 49 27z" />
    <glyph glyph-name="rsuperior" horiz-adv-x="260" 
d="M18 400v15c44 3 48 4 48 27v195c0 25 -4 26 -48 29v15l100 25h8l-3 -69h3c29 44 57 69 90 69c19 0 35 -11 35 -33c0 -16 -10 -31 -29 -31c-15 0 -23 9 -38 9c-19 0 -38 -13 -58 -35v-174c0 -23 5 -24 60 -27v-15h-168z" />
    <glyph glyph-name="ssuperior" horiz-adv-x="257" 
d="M222 610h-16c-8 46 -40 74 -75 74c-32 0 -52 -15 -52 -43c0 -71 156 -55 156 -157c0 -57 -45 -90 -114 -90c-32 0 -67 9 -91 21l-8 81h16c16 -69 56 -80 83 -80c36 0 58 20 58 51c0 71 -154 55 -154 156c0 48 40 83 106 83c28 0 61 -7 85 -19z" />
    <glyph glyph-name="tsuperior" horiz-adv-x="219" 
d="M121 675v-198c0 -39 10 -51 36 -51c19 0 33 6 50 12l3 -12c-30 -24 -58 -32 -87 -32c-41 0 -62 21 -62 72v209h-48v19l48 6l44 90h16v-90h80v-25h-80z" />
    <glyph glyph-name="usuperior" horiz-adv-x="370" 
d="M253 476v161c0 25 -6 26 -61 29v15l112 25h8v-255c0 -25 5 -26 49 -29v-15l-97 -13h-8v63h-3c-30 -35 -70 -63 -114 -63c-42 0 -78 24 -78 90v153c0 25 -4 26 -48 29v15l100 25h8v-218c0 -31 15 -51 45 -51c37 0 67 20 87 39z" />
    <glyph glyph-name="vsuperior" horiz-adv-x="335" 
d="M157 397l-113 257c-9 20 -11 28 -39 31v15h152v-15c-47 -5 -52 -10 -43 -34l75 -184h2l68 184c11 28 -2 29 -40 34v15h111v-15c-25 -4 -33 -6 -42 -29l-99 -259h-32z" />
    <glyph glyph-name="wsuperior" unicode="&#x2b7;" horiz-adv-x="514" 
d="M347 397l-85 226l-85 -226h-32l-101 257c-8 20 -11 28 -39 31v15h152v-15c-47 -5 -50 -10 -43 -34l63 -184h2l82 236h35l84 -236h1l57 184c8 29 -3 29 -41 34v15h112v-15c-26 -4 -35 -5 -43 -29l-87 -259h-32z" />
    <glyph glyph-name="xsuperior" unicode="&#x2e3;" horiz-adv-x="339" 
d="M200 452l-44 69l-55 -77c-13 -17 -10 -26 26 -29v-15h-114v15c33 5 42 7 56 26l75 100l-74 117c-11 18 -18 22 -51 27v15h146v-15c-29 -5 -40 -7 -23 -35l41 -65l46 63c18 24 12 34 -19 37v15h110v-15c-31 -6 -39 -8 -55 -29l-69 -92l79 -123c11 -18 23 -21 51 -26v-15
h-150v15c34 5 41 12 24 37z" />
    <glyph glyph-name="ysuperior" unicode="&#x2b8;" horiz-adv-x="335" 
d="M288 656l-95 -247c-43 -112 -110 -135 -151 -135c-23 0 -35 11 -35 26s9 25 26 25c14 0 24 -5 41 -5c39 0 62 23 85 74l-115 260c-9 20 -11 28 -39 31v15h152v-15c-47 -5 -52 -10 -43 -34l75 -184h2l68 184c11 28 -2 29 -40 34v15h111v-15c-25 -4 -33 -6 -42 -29z" />
    <glyph glyph-name="zsuperior" horiz-adv-x="284" 
d="M85 422h109c33 0 46 15 58 71h18l-9 -93h-247v16l173 262h-94c-33 0 -41 -19 -53 -71h-18l5 93h231v-16z" />
    <glyph glyph-name="Eng" unicode="&#x14a;" horiz-adv-x="723" 
d="M564 0l-397 627v-556c0 -41 9 -42 100 -47v-24h-233v24c83 5 92 6 92 47v558c0 41 -9 42 -92 47v24h189l341 -543v472c0 41 -9 42 -100 47v24h233v-24c-83 -5 -92 -6 -92 -47v-599c0 -155 -73 -240 -150 -240c-35 0 -51 17 -51 42c0 20 14 38 39 38c27 0 47 -16 68 -16
c20 0 53 14 53 88v58z" />
    <glyph glyph-name="eng" unicode="&#x14b;" horiz-adv-x="609" 
d="M519 360v-330c0 -155 -77 -240 -154 -240c-35 0 -51 17 -51 42c0 20 14 38 39 38c27 0 48 -16 64 -16c18 0 19 30 19 104v399c0 54 -27 89 -81 89c-64 0 -120 -36 -155 -70v-306c0 -41 9 -42 86 -47v-23h-255v23c77 5 86 6 86 47v327c0 43 -9 44 -86 49v23l157 41h12
l-5 -105h5c49 59 119 105 192 105c68 0 127 -40 127 -150z" />
    <glyph glyph-name="franc" unicode="&#x20a3;" horiz-adv-x="683" 
d="M49 414h66c35 148 157 247 307 247c93 0 162 -32 199 -55l9 -131h-23c-19 82 -73 150 -185 150c-105 0 -192 -77 -218 -211h190l-12 -36h-183c-2 -17 -3 -34 -3 -52s1 -36 3 -52h195l-12 -36h-178c26 -135 113 -212 218 -212c126 0 170 75 188 150h24l-13 -130
c-37 -24 -106 -56 -199 -56c-150 0 -272 99 -307 248h-66v36h59c-2 17 -3 34 -3 52s1 35 3 52h-59v36z" />
    <glyph glyph-name="lira" unicode="&#x20a4;" horiz-adv-x="683" 
d="M49 414h66c35 148 157 247 307 247c93 0 162 -32 199 -55l9 -131h-23c-19 82 -73 150 -185 150c-105 0 -192 -77 -218 -211h190l-12 -36h-183c-2 -17 -3 -34 -3 -52s1 -36 3 -52h195l-12 -36h-178c26 -135 113 -212 218 -212c126 0 170 75 188 150h24l-13 -130
c-37 -24 -106 -56 -199 -56c-150 0 -272 99 -307 248h-66v36h59c-2 17 -3 34 -3 52s1 35 3 52h-59v36z" />
    <glyph glyph-name="peseta" unicode="&#x20a7;" horiz-adv-x="683" 
d="M49 414h66c35 148 157 247 307 247c93 0 162 -32 199 -55l9 -131h-23c-19 82 -73 150 -185 150c-105 0 -192 -77 -218 -211h190l-12 -36h-183c-2 -17 -3 -34 -3 -52s1 -36 3 -52h195l-12 -36h-178c26 -135 113 -212 218 -212c126 0 170 75 188 150h24l-13 -130
c-37 -24 -106 -56 -199 -56c-150 0 -272 99 -307 248h-66v36h59c-2 17 -3 34 -3 52s1 35 3 52h-59v36z" />
    <glyph glyph-name="colonmonetary" unicode="&#x20a1;" horiz-adv-x="627" 
d="M366 26c126 0 170 75 188 150h24l-13 -130c-37 -24 -106 -56 -199 -56c-178 0 -317 140 -317 336s139 335 317 335c93 0 162 -32 199 -55l9 -131h-23c-7 30 -19 57 -36 81l-251 -502c30 -18 65 -28 102 -28zM140 326c0 -80 18 -147 48 -197l243 487c-19 6 -41 9 -65 9
c-126 0 -226 -111 -226 -299zM205 106c11 -15 24 -27 38 -38l254 509c-12 12 -26 22 -42 29z" />
    <glyph glyph-name="rupiah" horiz-adv-x="1219" 
d="M803 439h5c37 40 97 71 157 71c129 0 205 -110 205 -260c0 -164 -111 -260 -233 -260c-35 0 -95 9 -129 36v-156c0 -41 9 -42 86 -47v-23h-255v23c77 5 86 6 86 47v130h-204c-25 26 -57 68 -74 98l-59 90c-28 43 -61 91 -98 116h-70v-233c0 -41 9 -42 86 -47v-24h-257v24
c77 5 86 6 86 47v558c0 41 -9 42 -86 47v24h291c150 0 233 -80 233 -190c0 -88 -54 -181 -206 -202c44 -27 75 -64 99 -98l87 -124c35 -49 66 -56 172 -61v372c0 43 -9 44 -86 49v23l157 41h12zM927 458c-49 0 -90 -25 -119 -50v-243c0 -113 67 -143 116 -143
c108 0 157 95 157 226c0 143 -71 210 -154 210zM319 666h-99v-326h73c147 0 189 72 189 160c0 80 -36 166 -163 166z" />
    <glyph glyph-name="zero.taboldstyle" 
d="M152 250c0 -150 63 -224 148 -224s148 74 148 224s-63 224 -148 224s-148 -74 -148 -224zM61 250c0 162 105 260 239 260s239 -98 239 -260s-105 -260 -239 -260s-239 98 -239 260z" />
    <glyph glyph-name="one.taboldstyle" 
d="M263 71v374l-185 -44l-5 23l247 86h28v-439c0 -41 21 -42 178 -47v-24h-442v24c157 5 179 6 179 47z" />
    <glyph glyph-name="two.taboldstyle" 
d="M285 474c-79 0 -108 -41 -108 -66s25 -27 25 -53c0 -23 -24 -33 -42 -33s-46 5 -46 43c0 81 83 145 191 145c101 0 190 -48 190 -154c0 -101 -116 -179 -307 -283h319v-73h-414v44c104 74 313 179 313 316c0 67 -36 114 -121 114z" />
    <glyph glyph-name="three.taboldstyle" 
d="M510 34c0 -127 -106 -194 -223 -194c-108 0 -198 64 -198 145c0 38 28 43 46 43s42 -10 42 -33c0 -26 -25 -28 -25 -53s36 -65 115 -66c86 -1 154 55 154 142c0 135 -74 154 -182 154v40c73 -4 158 21 158 141c0 68 -32 121 -114 121c-79 0 -107 -41 -107 -66
s25 -27 25 -53c0 -23 -24 -33 -42 -33s-46 5 -46 43c0 81 82 145 190 145c117 0 179 -65 179 -156c0 -73 -53 -133 -127 -157v-2c91 -15 155 -75 155 -161z" />
    <glyph glyph-name="four.taboldstyle" 
d="M445 -150h-85v150h-304v26l331 484h58v-473h99v-37h-99v-150zM360 37v374l-255 -374h255z" />
    <glyph glyph-name="five.taboldstyle" 
d="M156 500h333v-73h-295l-5 -158c253 0 321 -124 321 -220c0 -124 -87 -209 -240 -209c-117 0 -181 62 -181 128c0 37 25 60 47 60s41 -12 41 -33c0 -25 -25 -25 -25 -53c0 -51 67 -66 108 -66c102 0 163 72 163 149c0 86 -56 178 -262 178h-15z" />
    <glyph glyph-name="six.taboldstyle" 
d="M434 200c0 98 -50 165 -129 165c-47 0 -102 -25 -135 -58c-18 -150 40 -281 134 -281c74 0 130 60 130 174zM525 212c0 -137 -102 -222 -222 -222c-151 0 -228 119 -228 264c0 213 147 380 354 416l11 -29c-175 -50 -247 -162 -271 -294c57 47 115 62 171 62
c114 0 185 -87 185 -197z" />
    <glyph glyph-name="seven.taboldstyle" 
d="M511 471l-249 -621h-105l302 577h-250c-74 0 -84 -10 -94 -89h-26l5 162h417v-29z" />
    <glyph glyph-name="eight.taboldstyle" 
d="M98 490c0 110 111 170 212 170c100 0 194 -58 194 -161c0 -54 -43 -114 -129 -154c77 -36 148 -80 148 -168c0 -129 -120 -187 -230 -187c-136 0 -217 78 -217 161c0 71 43 142 148 182c-68 36 -126 79 -126 157zM159 176c0 -100 59 -150 145 -150c85 0 135 56 135 122
c0 87 -97 125 -187 170c-61 -35 -93 -94 -93 -142zM423 496c0 87 -54 128 -121 128c-68 0 -118 -50 -118 -112c0 -80 80 -116 162 -153c57 35 77 84 77 137z" />
    <glyph glyph-name="nine.taboldstyle" 
d="M166 300c0 -98 50 -165 129 -165c47 0 102 25 135 58c18 150 -40 281 -134 281c-74 0 -130 -60 -130 -174zM75 288c0 137 102 222 222 222c151 0 228 -119 228 -264c0 -213 -147 -380 -354 -416l-11 29c175 50 247 162 271 294c-57 -47 -115 -62 -171 -62
c-114 0 -185 87 -185 197z" />
    <glyph glyph-name="currency.taboldstyle" horiz-adv-x="486" 
d="M95 249c0 45 17 85 46 114l-75 90l8 8l75 -90c26 22 59 36 95 36c35 0 68 -14 94 -36l74 90l8 -8l-73 -89c29 -29 47 -70 47 -115s-18 -86 -47 -114l72 -86l-8 -9l-73 87c-26 -22 -59 -35 -94 -35c-36 0 -69 13 -95 35l-72 -87l-9 9l73 86c-29 29 -46 69 -46 114z
M106 249c0 -79 63 -145 138 -145s138 66 138 145s-63 146 -138 146s-138 -67 -138 -146z" />
    <glyph glyph-name="cent.taboldstyle" 
d="M332 -78v69c-147 7 -258 112 -258 258s111 253 258 260v76h28v-75c72 -3 126 -25 155 -42l8 -103h-20c-16 59 -57 110 -143 114v-459c95 5 129 60 145 116h21l-11 -103c-29 -17 -83 -40 -155 -43v-68h-28zM160 249c0 -139 74 -221 172 -229v459
c-98 -7 -172 -90 -172 -230z" />
    <glyph glyph-name="dollar.taboldstyle" 
d="M463 359h-22c-20 76 -59 114 -114 120l-11 -178c76 -34 163 -67 163 -161c0 -91 -76 -147 -181 -150l-4 -70h-27l4 71c-52 3 -102 16 -141 36l-8 129h21c21 -101 75 -130 130 -135l12 207c-74 32 -156 62 -156 150c0 75 68 129 172 132l4 70h28l-4 -71
c41 -2 86 -13 125 -31zM400 116c0 50 -40 77 -89 100l-11 -195c61 4 100 41 100 95zM209 404c0 -44 35 -69 81 -91l9 167c-51 -3 -90 -27 -90 -76z" />
    <glyph glyph-name="Euro.taboldstyle" 
d="M51 317h54c30 115 135 193 265 193c79 0 137 -24 169 -42l7 -103h-20c-17 62 -61 115 -156 115c-87 0 -159 -59 -180 -163h157l-11 -30h-151c-2 -12 -2 -25 -2 -38c0 -14 1 -28 2 -40h162l-11 -30h-146c22 -103 94 -159 180 -159c106 0 142 58 158 116h21l-10 -103
c-32 -18 -90 -43 -169 -43c-129 0 -234 75 -264 189h-55v30h49c-2 13 -3 26 -3 40c0 13 1 25 2 38h-48v30z" />
    <glyph glyph-name="franc.taboldstyle" 
d="M51 317h54c30 115 135 193 265 193c79 0 137 -24 169 -42l7 -103h-20c-17 62 -61 115 -156 115c-87 0 -159 -59 -180 -163h157l-11 -30h-151c-2 -12 -2 -25 -2 -38c0 -14 1 -28 2 -40h162l-11 -30h-146c22 -103 94 -159 180 -159c106 0 142 58 158 116h21l-10 -103
c-32 -18 -90 -43 -169 -43c-129 0 -234 75 -264 189h-55v30h49c-2 13 -3 26 -3 40c0 13 1 25 2 38h-48v30z" />
    <glyph glyph-name="sterling.taboldstyle" 
d="M99 263h83c-23 37 -49 72 -49 115c0 77 65 132 173 132c49 0 104 -10 148 -32l8 -120h-21c-22 83 -63 122 -130 122c-55 0 -99 -28 -99 -79s35 -87 53 -138h124v-31h-117c1 -8 2 -16 2 -24c0 -44 -21 -96 -50 -138c73 -3 140 -23 182 -23c34 0 63 14 80 78h24
c-10 -43 -30 -142 -125 -142c-65 0 -106 40 -189 52c-26 -27 -56 -45 -82 -45c-12 0 -24 9 -24 23c0 38 58 51 93 55c22 34 32 68 32 103c0 22 -6 42 -16 61h-100v31z" />
    <glyph glyph-name="yen.taboldstyle" 
d="M155 199h105l-142 244c-13 22 -26 33 -71 37v20h210v-20c-59 -6 -69 -13 -51 -44l123 -216h2l103 203c21 41 14 50 -50 57v20h168v-20c-44 -7 -62 -11 -76 -39l-123 -242h116v-31h-118v-117c0 -27 7 -27 64 -31v-20h-209v20c57 4 65 4 65 31v117h-116v31z" />
    <glyph glyph-name="lira.taboldstyle" 
d="M51 317h54c30 115 135 193 265 193c79 0 137 -24 169 -42l7 -103h-20c-17 62 -61 115 -156 115c-87 0 -159 -59 -180 -163h157l-11 -30h-151c-2 -12 -2 -25 -2 -38c0 -14 1 -28 2 -40h162l-11 -30h-146c22 -103 94 -159 180 -159c106 0 142 58 158 116h21l-10 -103
c-32 -18 -90 -43 -169 -43c-129 0 -234 75 -264 189h-55v30h49c-2 13 -3 26 -3 40c0 13 1 25 2 38h-48v30z" />
    <glyph glyph-name="peseta.taboldstyle" 
d="M51 317h54c30 115 135 193 265 193c79 0 137 -24 169 -42l7 -103h-20c-17 62 -61 115 -156 115c-87 0 -159 -59 -180 -163h157l-11 -30h-151c-2 -12 -2 -25 -2 -38c0 -14 1 -28 2 -40h162l-11 -30h-146c22 -103 94 -159 180 -159c106 0 142 58 158 116h21l-10 -103
c-32 -18 -90 -43 -169 -43c-129 0 -234 75 -264 189h-55v30h49c-2 13 -3 26 -3 40c0 13 1 25 2 38h-48v30z" />
    <glyph glyph-name="colonmonetary.taboldstyle" 
d="M347 20c105 0 142 58 158 116h21l-11 -103c-31 -18 -89 -43 -168 -43c-154 0 -273 108 -273 259s119 261 273 261c79 0 137 -24 168 -42l8 -103h-20c-7 25 -18 49 -36 68l-219 -384c28 -19 62 -29 99 -29zM160 249c0 -53 10 -97 29 -133l204 359c-14 3 -29 5 -46 5
c-105 0 -187 -84 -187 -231zM201 96c9 -13 19 -24 30 -34l220 386c-10 9 -22 15 -36 21z" />
    <glyph glyph-name="florin.taboldstyle" 
d="M322 463l-46 -433c-17 -155 -103 -240 -179 -240c-32 0 -48 15 -48 37s17 43 44 43c26 0 46 -16 62 -16c18 0 22 30 30 104l54 505h-139l3 29l140 8l3 34c9 94 74 196 199 196c60 0 106 -31 106 -75c0 -39 -25 -55 -51 -55c-18 0 -34 8 -34 27s17 23 17 43
c0 21 -19 32 -44 32c-78 0 -101 -80 -110 -166l-3 -36h173l-5 -37h-172z" />
    <glyph glyph-name="numbersign.taboldstyle" 
d="M59 265h142v123h-142v37h142v143h37v-143h123v143h37v-143h143v-37h-143v-123h143v-37h-143v-142h-37v142h-123v-142h-37v142h-142v37zM238 388v-123h123v123h-123z" />
    <glyph glyph-name="zerosuperior" unicode="&#x2070;" horiz-adv-x="353" 
d="M30 605c0 103 56 201 147 201c90 0 146 -98 146 -201s-56 -201 -146 -201c-91 0 -147 98 -147 201zM258 605c0 118 -30 177 -81 177c-52 0 -82 -59 -82 -177s30 -177 82 -177c51 0 81 59 81 177z" />
    <glyph glyph-name="foursuperior" unicode="&#x2074;" horiz-adv-x="355" 
d="M270 410h-62v108h-178v15l199 273h41v-264h55v-24h-55v-108zM208 542v197l-146 -197h146z" />
    <glyph glyph-name="fivesuperior" unicode="&#x2075;" horiz-adv-x="317" 
d="M71 800h202v-50h-179l-2 -87c156 0 195 -76 195 -132c0 -76 -55 -127 -148 -127c-69 0 -109 37 -109 78c0 23 14 37 30 37c15 0 27 -8 27 -21c0 -15 -15 -15 -15 -32c0 -29 38 -38 61 -38c58 0 92 42 92 86c0 51 -33 104 -151 104h-10z" />
    <glyph glyph-name="sixsuperior" unicode="&#x2076;" horiz-adv-x="335" 
d="M241 530c0 58 -28 97 -71 97c-26 0 -56 -13 -73 -30c-10 -86 20 -169 73 -169c41 0 71 34 71 102zM305 538c0 -84 -63 -134 -135 -134c-90 0 -140 71 -140 158c0 128 91 228 215 250l7 -19c-105 -30 -144 -100 -156 -171c33 26 68 35 98 35c70 0 111 -53 111 -119z" />
    <glyph glyph-name="sevensuperior" unicode="&#x2077;" horiz-adv-x="315" 
d="M285 778l-143 -368h-73l181 340h-150c-42 0 -47 -7 -53 -51h-17l3 101h252v-22z" />
    <glyph glyph-name="eightsuperior" unicode="&#x2078;" horiz-adv-x="333" 
d="M43 704c0 66 66 102 129 102c60 0 118 -34 118 -95c0 -33 -26 -69 -77 -91c47 -22 90 -48 90 -103c0 -79 -73 -113 -140 -113c-85 0 -133 47 -133 98c0 41 26 83 87 105c-40 22 -74 49 -74 97zM88 514c0 -57 33 -86 80 -86c48 0 75 32 75 70c0 50 -55 73 -107 99
c-31 -20 -48 -55 -48 -83zM235 710c0 51 -31 72 -67 72s-65 -28 -65 -64c0 -46 44 -68 91 -89c30 21 41 51 41 81z" />
    <glyph glyph-name="ninesuperior" unicode="&#x2079;" horiz-adv-x="335" 
d="M93 680c0 -58 29 -97 72 -97c26 0 56 13 73 30c9 86 -21 169 -73 169c-41 0 -72 -34 -72 -102zM30 672c0 84 63 134 135 134c90 0 140 -71 140 -158c0 -128 -91 -228 -215 -250l-7 19c105 30 143 100 156 171c-33 -26 -69 -35 -98 -35c-70 0 -111 53 -111 119z" />
    <glyph glyph-name="zeroinferior" unicode="&#x2080;" horiz-adv-x="353" 
d="M30 95c0 103 56 201 147 201c90 0 146 -98 146 -201s-56 -201 -146 -201c-91 0 -147 98 -147 201zM258 95c0 118 -30 177 -81 177c-52 0 -82 -59 -82 -177s30 -177 82 -177c51 0 81 59 81 177z" />
    <glyph glyph-name="oneinferior" unicode="&#x2081;" horiz-adv-x="334" 
d="M141 -57v309l-107 -25l-4 15l154 54h17v-353c0 -23 12 -24 103 -27v-16h-267v16c91 3 104 4 104 27z" />
    <glyph glyph-name="twoinferior" unicode="&#x2082;" horiz-adv-x="313" 
d="M143 272c-43 0 -59 -23 -59 -38s15 -17 15 -33c0 -14 -16 -20 -28 -20c-14 0 -30 4 -30 26c0 49 50 89 116 89c64 0 118 -37 118 -112c0 -79 -59 -145 -186 -234h194v-50h-253v28c114 89 182 157 182 255c0 44 -20 89 -69 89z" />
    <glyph glyph-name="threeinferior" unicode="&#x2083;" horiz-adv-x="317" 
d="M287 10c0 -75 -65 -116 -137 -116c-66 0 -120 40 -120 89c0 22 16 26 30 26c12 0 27 -6 27 -20c0 -16 -15 -18 -15 -33s21 -38 64 -38c48 -1 87 33 87 83c0 80 -42 91 -103 91v26c43 -2 91 14 91 83c0 40 -19 71 -65 71c-44 0 -60 -23 -60 -38s15 -17 15 -33
c0 -14 -16 -20 -27 -20c-14 0 -30 4 -30 26c0 49 50 89 116 89c73 0 110 -39 110 -94c0 -43 -33 -80 -80 -94v-1c58 -9 97 -46 97 -97z" />
    <glyph glyph-name="fourinferior" unicode="&#x2084;" horiz-adv-x="355" 
d="M270 -100h-62v108h-178v15l199 273h41v-264h55v-24h-55v-108zM208 32v197l-146 -197h146z" />
    <glyph glyph-name="fiveinferior" unicode="&#x2085;" horiz-adv-x="317" 
d="M71 290h202v-50h-179l-2 -87c156 0 195 -76 195 -132c0 -76 -55 -127 -148 -127c-69 0 -109 37 -109 78c0 23 14 37 30 37c15 0 27 -8 27 -21c0 -15 -15 -15 -15 -32c0 -29 38 -38 61 -38c58 0 92 42 92 86c0 51 -33 104 -151 104h-10z" />
    <glyph glyph-name="sixinferior" unicode="&#x2086;" horiz-adv-x="335" 
d="M241 20c0 58 -28 97 -71 97c-26 0 -56 -13 -73 -30c-10 -86 20 -169 73 -169c41 0 71 34 71 102zM305 28c0 -84 -63 -134 -135 -134c-90 0 -140 71 -140 158c0 128 91 228 215 250l7 -19c-105 -30 -144 -100 -156 -171c33 26 68 35 98 35c70 0 111 -53 111 -119z" />
    <glyph glyph-name="seveninferior" unicode="&#x2087;" horiz-adv-x="315" 
d="M285 268l-143 -368h-73l181 340h-150c-42 0 -47 -7 -53 -51h-17l3 101h252v-22z" />
    <glyph glyph-name="eightinferior" unicode="&#x2088;" horiz-adv-x="333" 
d="M43 194c0 66 66 102 129 102c60 0 118 -34 118 -95c0 -33 -26 -69 -77 -91c47 -22 90 -48 90 -103c0 -79 -73 -113 -140 -113c-85 0 -133 47 -133 98c0 41 26 83 87 105c-40 22 -74 49 -74 97zM88 4c0 -57 33 -86 80 -86c48 0 75 32 75 70c0 50 -55 73 -107 99
c-31 -20 -48 -55 -48 -83zM235 200c0 51 -31 72 -67 72s-65 -28 -65 -64c0 -46 44 -68 91 -89c30 21 41 51 41 81z" />
    <glyph glyph-name="nineinferior" unicode="&#x2089;" horiz-adv-x="335" 
d="M93 170c0 -58 29 -97 72 -97c26 0 56 13 73 30c9 86 -21 169 -73 169c-41 0 -72 -34 -72 -102zM30 162c0 84 63 134 135 134c90 0 140 -71 140 -158c0 -128 -91 -228 -215 -250l-7 19c105 30 143 100 156 171c-33 -26 -69 -35 -98 -35c-70 0 -111 53 -111 119z" />
    <glyph glyph-name="zero.denominator" horiz-adv-x="353" 
d="M30 195c0 103 56 201 147 201c90 0 146 -98 146 -201s-56 -201 -146 -201c-91 0 -147 98 -147 201zM258 195c0 118 -30 177 -81 177c-52 0 -82 -59 -82 -177s30 -177 82 -177c51 0 81 59 81 177z" />
    <glyph glyph-name="one.denominator" horiz-adv-x="334" 
d="M141 43v309l-107 -25l-4 15l154 54h17v-353c0 -23 12 -24 103 -27v-16h-267v16c91 3 104 4 104 27z" />
    <glyph glyph-name="two.denominator" horiz-adv-x="313" 
d="M143 372c-43 0 -59 -23 -59 -38s15 -17 15 -33c0 -14 -16 -20 -28 -20c-14 0 -30 4 -30 26c0 49 50 89 116 89c64 0 118 -37 118 -112c0 -79 -59 -145 -186 -234h194v-50h-253v28c114 89 182 157 182 255c0 44 -20 89 -69 89z" />
    <glyph glyph-name="three.denominator" horiz-adv-x="317" 
d="M287 110c0 -75 -65 -116 -137 -116c-66 0 -120 40 -120 89c0 22 16 26 30 26c12 0 27 -6 27 -20c0 -16 -15 -18 -15 -33s21 -38 64 -38c48 -1 87 33 87 83c0 80 -42 91 -103 91v26c43 -2 91 14 91 83c0 40 -19 71 -65 71c-44 0 -60 -23 -60 -38s15 -17 15 -33
c0 -14 -16 -20 -27 -20c-14 0 -30 4 -30 26c0 49 50 89 116 89c73 0 110 -39 110 -94c0 -43 -33 -80 -80 -94v-1c58 -9 97 -46 97 -97z" />
    <glyph glyph-name="four.denominator" horiz-adv-x="355" 
d="M270 0h-62v108h-178v15l199 273h41v-264h55v-24h-55v-108zM208 132v197l-146 -197h146z" />
    <glyph glyph-name="five.denominator" horiz-adv-x="317" 
d="M71 390h202v-50h-179l-2 -87c156 0 195 -76 195 -132c0 -76 -55 -127 -148 -127c-69 0 -109 37 -109 78c0 23 14 37 30 37c15 0 27 -8 27 -21c0 -15 -15 -15 -15 -32c0 -29 38 -38 61 -38c58 0 92 42 92 86c0 51 -33 104 -151 104h-10z" />
    <glyph glyph-name="six.denominator" horiz-adv-x="335" 
d="M241 120c0 58 -28 97 -71 97c-26 0 -56 -13 -73 -30c-10 -86 20 -169 73 -169c41 0 71 34 71 102zM305 128c0 -84 -63 -134 -135 -134c-90 0 -140 71 -140 158c0 128 91 228 215 250l7 -19c-105 -30 -144 -100 -156 -171c33 26 68 35 98 35c70 0 111 -53 111 -119z" />
    <glyph glyph-name="seven.denominator" horiz-adv-x="315" 
d="M285 368l-143 -368h-73l181 340h-150c-42 0 -47 -7 -53 -51h-17l3 101h252v-22z" />
    <glyph glyph-name="eight.denominator" horiz-adv-x="333" 
d="M43 294c0 66 66 102 129 102c60 0 118 -34 118 -95c0 -33 -26 -69 -77 -91c47 -22 90 -48 90 -103c0 -79 -73 -113 -140 -113c-85 0 -133 47 -133 98c0 41 26 83 87 105c-40 22 -74 49 -74 97zM88 104c0 -57 33 -86 80 -86c48 0 75 32 75 70c0 50 -55 73 -107 99
c-31 -20 -48 -55 -48 -83zM235 300c0 51 -31 72 -67 72s-65 -28 -65 -64c0 -46 44 -68 91 -89c30 21 41 51 41 81z" />
    <glyph glyph-name="nine.denominator" horiz-adv-x="335" 
d="M93 270c0 -58 29 -97 72 -97c26 0 56 13 73 30c9 86 -21 169 -73 169c-41 0 -72 -34 -72 -102zM30 262c0 84 63 134 135 134c90 0 140 -71 140 -158c0 -128 -91 -228 -215 -250l-7 19c105 30 143 100 156 171c-33 -26 -69 -35 -98 -35c-70 0 -111 53 -111 119z" />
    <glyph glyph-name="zero.numerator" horiz-adv-x="353" 
d="M30 505c0 103 56 201 147 201c90 0 146 -98 146 -201s-56 -201 -146 -201c-91 0 -147 98 -147 201zM258 505c0 118 -30 177 -81 177c-52 0 -82 -59 -82 -177s30 -177 82 -177c51 0 81 59 81 177z" />
    <glyph glyph-name="one.numerator" horiz-adv-x="334" 
d="M141 353v309l-107 -25l-4 15l154 54h17v-353c0 -23 12 -24 103 -27v-16h-267v16c91 3 104 4 104 27z" />
    <glyph glyph-name="two.numerator" horiz-adv-x="313" 
d="M143 682c-43 0 -59 -23 -59 -38s15 -17 15 -33c0 -14 -16 -20 -28 -20c-14 0 -30 4 -30 26c0 49 50 89 116 89c64 0 118 -37 118 -112c0 -79 -59 -145 -186 -234h194v-50h-253v28c114 89 182 157 182 255c0 44 -20 89 -69 89z" />
    <glyph glyph-name="three.numerator" horiz-adv-x="317" 
d="M287 420c0 -75 -65 -116 -137 -116c-66 0 -120 40 -120 89c0 22 16 26 30 26c12 0 27 -6 27 -20c0 -16 -15 -18 -15 -33s21 -38 64 -38c48 -1 87 33 87 83c0 80 -42 91 -103 91v26c43 -2 91 14 91 83c0 40 -19 71 -65 71c-44 0 -60 -23 -60 -38s15 -17 15 -33
c0 -14 -16 -20 -27 -20c-14 0 -30 4 -30 26c0 49 50 89 116 89c73 0 110 -39 110 -94c0 -43 -33 -80 -80 -94v-1c58 -9 97 -46 97 -97z" />
    <glyph glyph-name="four.numerator" horiz-adv-x="355" 
d="M270 310h-62v108h-178v15l199 273h41v-264h55v-24h-55v-108zM208 442v197l-146 -197h146z" />
    <glyph glyph-name="five.numerator" horiz-adv-x="317" 
d="M71 700h202v-50h-179l-2 -87c156 0 195 -76 195 -132c0 -76 -55 -127 -148 -127c-69 0 -109 37 -109 78c0 23 14 37 30 37c15 0 27 -8 27 -21c0 -15 -15 -15 -15 -32c0 -29 38 -38 61 -38c58 0 92 42 92 86c0 51 -33 104 -151 104h-10z" />
    <glyph glyph-name="six.numerator" horiz-adv-x="335" 
d="M241 430c0 58 -28 97 -71 97c-26 0 -56 -13 -73 -30c-10 -86 20 -169 73 -169c41 0 71 34 71 102zM305 438c0 -84 -63 -134 -135 -134c-90 0 -140 71 -140 158c0 128 91 228 215 250l7 -19c-105 -30 -144 -100 -156 -171c33 26 68 35 98 35c70 0 111 -53 111 -119z" />
    <glyph glyph-name="seven.numerator" horiz-adv-x="315" 
d="M285 678l-143 -368h-73l181 340h-150c-42 0 -47 -7 -53 -51h-17l3 101h252v-22z" />
    <glyph glyph-name="eight.numerator" horiz-adv-x="333" 
d="M43 604c0 66 66 102 129 102c60 0 118 -34 118 -95c0 -33 -26 -69 -77 -91c47 -22 90 -48 90 -103c0 -79 -73 -113 -140 -113c-85 0 -133 47 -133 98c0 41 26 83 87 105c-40 22 -74 49 -74 97zM88 414c0 -57 33 -86 80 -86c48 0 75 32 75 70c0 50 -55 73 -107 99
c-31 -20 -48 -55 -48 -83zM235 610c0 51 -31 72 -67 72s-65 -28 -65 -64c0 -46 44 -68 91 -89c30 21 41 51 41 81z" />
    <glyph glyph-name="nine.numerator" horiz-adv-x="335" 
d="M93 580c0 -58 29 -97 72 -97c26 0 56 13 73 30c9 86 -21 169 -73 169c-41 0 -72 -34 -72 -102zM30 572c0 84 63 134 135 134c90 0 140 -71 140 -158c0 -128 -91 -228 -215 -250l-7 19c105 30 143 100 156 171c-33 -26 -69 -35 -98 -35c-70 0 -111 53 -111 119z" />
    <glyph glyph-name="onethird" unicode="&#x2153;" horiz-adv-x="850" 
d="M141 353v309l-107 -25l-4 15l154 54h17v-353c0 -23 12 -24 103 -27v-16h-267v16c91 3 104 4 104 27zM820 110c0 51 -38 88 -97 97v1c47 14 80 51 80 94c0 55 -37 94 -110 94c-66 0 -115 -40 -115 -89c0 -22 16 -26 29 -26c12 0 28 6 28 20c0 16 -15 18 -15 33
s16 38 60 38c46 0 64 -31 64 -71c0 -69 -47 -85 -91 -83v-26c61 0 103 -11 103 -91c0 -50 -38 -84 -87 -83c-43 0 -64 23 -64 38s15 17 15 33c0 14 -15 20 -27 20c-14 0 -30 -4 -30 -26c0 -49 54 -89 120 -89c73 0 137 41 137 116zM558 710h35l-240 -720h-36z" />
    <glyph glyph-name="oneeighth" unicode="&#x215b;" horiz-adv-x="850" 
d="M560 294c0 -48 34 -75 74 -97c-61 -22 -87 -64 -87 -105c0 -51 48 -98 133 -98c68 0 140 34 140 113c0 55 -43 81 -89 103c50 22 77 58 77 91c0 61 -59 95 -119 95c-63 0 -129 -36 -129 -102zM141 353v309l-107 -25l-4 15l154 54h17v-353c0 -23 12 -24 103 -27v-16h-267
v16c91 3 104 4 104 27zM553 710h35l-240 -720h-36zM606 104c0 28 16 63 47 83c52 -26 107 -49 107 -99c0 -38 -27 -70 -75 -70c-47 0 -79 29 -79 86zM752 300c0 -30 -11 -60 -40 -81c-47 22 -91 43 -91 89c0 36 28 64 65 64c35 0 66 -21 66 -72z" />
    <glyph glyph-name="twothirds" unicode="&#x2154;" horiz-adv-x="850" 
d="M143 682c-43 0 -59 -23 -59 -38s15 -17 15 -33c0 -14 -16 -20 -28 -20c-14 0 -30 4 -30 26c0 49 50 89 116 89c64 0 118 -37 118 -112c0 -79 -59 -145 -186 -234h194v-50h-253v28c114 89 182 157 182 255c0 44 -20 89 -69 89zM820 110c0 51 -38 88 -97 97v1
c47 14 80 51 80 94c0 55 -37 94 -110 94c-66 0 -115 -40 -115 -89c0 -22 16 -26 29 -26c12 0 28 6 28 20c0 16 -15 18 -15 33s16 38 60 38c46 0 64 -31 64 -71c0 -69 -47 -85 -91 -83v-26c61 0 103 -11 103 -91c0 -50 -38 -84 -87 -83c-43 0 -64 23 -64 38s15 17 15 33
c0 14 -15 20 -27 20c-14 0 -30 -4 -30 -26c0 -49 54 -89 120 -89c73 0 137 41 137 116zM558 710h35l-240 -720h-36z" />
    <glyph glyph-name="threeeighths" unicode="&#x215c;" horiz-adv-x="850" 
d="M560 294c0 -48 34 -75 74 -97c-61 -22 -87 -64 -87 -105c0 -51 48 -98 133 -98c68 0 140 34 140 113c0 55 -43 81 -89 103c50 22 77 58 77 91c0 61 -59 95 -119 95c-63 0 -129 -36 -129 -102zM287 420c0 51 -39 88 -97 97v1c47 14 80 51 80 94c0 55 -37 94 -110 94
c-66 0 -116 -40 -116 -89c0 -22 16 -26 30 -26c11 0 27 6 27 20c0 16 -15 18 -15 33s16 38 60 38c46 0 65 -31 65 -71c0 -69 -48 -85 -91 -83v-26c61 0 103 -11 103 -91c0 -50 -39 -84 -87 -83c-43 0 -64 23 -64 38s15 17 15 33c0 14 -15 20 -27 20c-14 0 -30 -4 -30 -26
c0 -49 54 -89 120 -89c72 0 137 41 137 116zM528 710h35l-240 -720h-36zM606 104c0 28 16 63 47 83c52 -26 107 -49 107 -99c0 -38 -27 -70 -75 -70c-47 0 -79 29 -79 86zM752 300c0 -30 -11 -60 -40 -81c-47 22 -91 43 -91 89c0 36 28 64 65 64c35 0 66 -21 66 -72z" />
    <glyph glyph-name="fiveeighths" unicode="&#x215d;" horiz-adv-x="850" 
d="M560 294c0 -48 34 -75 74 -97c-61 -22 -87 -64 -87 -105c0 -51 48 -98 133 -98c68 0 140 34 140 113c0 55 -43 81 -89 103c50 22 77 58 77 91c0 61 -59 95 -119 95c-63 0 -129 -36 -129 -102zM71 700h202v-50h-179l-2 -87c156 0 195 -76 195 -132
c0 -76 -55 -127 -148 -127c-69 0 -109 37 -109 78c0 23 14 37 30 37c15 0 27 -8 27 -21c0 -15 -15 -15 -15 -32c0 -29 38 -38 61 -38c58 0 92 42 92 86c0 51 -33 104 -151 104h-10zM520 710h35l-240 -720h-36zM606 104c0 28 16 63 47 83c52 -26 107 -49 107 -99
c0 -38 -27 -70 -75 -70c-47 0 -79 29 -79 86zM752 300c0 -30 -11 -60 -40 -81c-47 22 -91 43 -91 89c0 36 28 64 65 64c35 0 66 -21 66 -72z" />
    <glyph glyph-name="seveneighths" unicode="&#x215e;" horiz-adv-x="850" 
d="M560 294c0 -48 34 -75 74 -97c-61 -22 -87 -64 -87 -105c0 -51 48 -98 133 -98c68 0 140 34 140 113c0 55 -43 81 -89 103c50 22 77 58 77 91c0 61 -59 95 -119 95c-63 0 -129 -36 -129 -102zM285 678l-143 -368h-73l181 340h-150c-42 0 -47 -7 -53 -51h-17l3 101h252
v-22zM472 710h35l-240 -720h-36zM606 104c0 28 16 63 47 83c52 -26 107 -49 107 -99c0 -38 -27 -70 -75 -70c-47 0 -79 29 -79 86zM752 300c0 -30 -11 -60 -40 -81c-47 22 -91 43 -91 89c0 36 28 64 65 64c35 0 66 -21 66 -72z" />
    <glyph glyph-name="exclamdbl" unicode="&#x203c;" horiz-adv-x="512" 
d="M166 168h-22c-13 176 -36 444 -36 512c0 26 10 50 47 50s47 -24 47 -50c0 -68 -25 -336 -36 -512zM94 55c0 33 26 60 60 60c33 0 60 -27 60 -60c0 -34 -27 -60 -60 -60c-34 0 -60 26 -60 60zM370 168h-22c-13 176 -36 444 -36 512c0 26 10 50 47 50s47 -24 47 -50
c0 -68 -25 -336 -36 -512zM298 55c0 33 26 60 60 60c33 0 60 -27 60 -60c0 -34 -27 -60 -60 -60c-34 0 -60 26 -60 60z" />
    <glyph glyph-name="fraction" unicode="&#x2044;" horiz-adv-x="413" 
d="M310 710h35l-240 -720h-36z" />
    <glyph glyph-name="uni2215" unicode="&#x2215;" horiz-adv-x="413" 
d="M310 710h35l-240 -720h-36z" />
    <glyph glyph-name="uni2219" unicode="&#x2219;" horiz-adv-x="299" 
d="M96 345c0 32 23 55 53 55c31 0 54 -23 54 -55s-23 -53 -54 -53c-30 0 -53 21 -53 53z" />
    <glyph glyph-name="lessequal" unicode="&#x2264;" horiz-adv-x="560" 
d="M151 338l310 -152v-68h-362v36h334l-334 173v20l362 186v-46z" />
    <glyph glyph-name="approxequal" unicode="&#x2248;" horiz-adv-x="550" 
d="M115 335l-16 11c21 43 55 111 101 111c40 0 121 -61 160 -61c35 0 52 24 75 60l16 -10c-21 -42 -50 -101 -96 -101c-47 0 -118 60 -165 60c-36 0 -53 -31 -75 -70zM115 185l-16 11c21 43 55 111 101 111c40 0 121 -61 160 -61c35 0 52 24 75 60l16 -10
c-21 -42 -50 -101 -96 -101c-47 0 -118 60 -165 60c-36 0 -53 -31 -75 -70z" />
    <glyph glyph-name="notequal" unicode="&#x2260;" horiz-adv-x="560" 
d="M99 274h143l31 104h-174v36h184l53 179h40l-52 -179h137v-36h-148l-30 -104h178v-36h-188l-52 -180h-42l53 180h-133v36z" />
    <glyph glyph-name="estimated" unicode="&#x212e;" horiz-adv-x="698" 
d="M669 349h-500v-235c51 -52 111 -78 180 -78c102 0 183 53 239 157l44 -26c-82 -123 -153 -177 -283 -177c-192 0 -321 156 -321 359c0 207 132 361 321 361c172 0 312 -123 320 -361zM169 397h360v189c-51 51 -112 77 -181 77c-71 0 -130 -26 -179 -77v-189z" />
    <glyph glyph-name="partialdiff" unicode="&#x2202;" horiz-adv-x="555" 
d="M125 147c0 -77 40 -121 101 -121c103 0 202 139 204 364c-25 6 -68 11 -96 11c-111 0 -209 -87 -209 -254zM310 664c-68 0 -92 -41 -97 -66c-5 -22 15 -27 15 -46c0 -28 -30 -40 -51 -40c-15 0 -38 4 -38 32c0 81 87 156 177 156c138 0 200 -135 200 -326
c0 -219 -111 -384 -297 -384c-104 0 -180 68 -180 178c0 181 156 277 294 277c33 0 73 -5 101 -16c-3 89 -18 235 -124 235z" />
    <glyph glyph-name="greaterequal" unicode="&#x2265;" horiz-adv-x="560" 
d="M99 186l310 152l-310 149v46l362 -186v-20l-334 -173h334v-36h-362v68z" />
    <glyph glyph-name="percent.oldstyle" horiz-adv-x="642" 
d="M439 508h36l-266 -508h-36zM348 112c1 66 53 119 128 119c70 0 122 -53 121 -119c-3 -67 -55 -120 -129 -120c-70 0 -122 53 -120 120zM400 112c0 -70 27 -105 72 -105s71 35 71 105c0 69 -26 105 -71 105s-72 -36 -72 -105zM45 387c2 67 53 120 128 120
c70 0 122 -53 120 -120c-1 -66 -53 -119 -128 -119c-70 0 -121 53 -120 119zM97 387c0 -69 28 -105 72 -105c45 0 71 36 71 105c0 70 -26 105 -71 105c-44 0 -72 -35 -72 -105z" />
    <glyph glyph-name="perthousand.oldstyle" horiz-adv-x="926" 
d="M439 508h36l-266 -508h-36zM348 112c1 66 53 119 128 119c70 0 122 -53 121 -119c-3 -67 -55 -120 -129 -120c-70 0 -122 53 -120 120zM400 112c0 -70 27 -105 72 -105s71 35 71 105c0 69 -26 105 -71 105s-72 -36 -72 -105zM45 387c2 67 53 120 128 120
c70 0 122 -53 120 -120c-1 -66 -53 -119 -128 -119c-70 0 -121 53 -120 119zM97 387c0 -69 28 -105 72 -105c45 0 71 36 71 105c0 70 -26 105 -71 105c-44 0 -72 -35 -72 -105zM632 112c1 66 53 119 128 119c70 0 122 -53 121 -119c-3 -67 -55 -120 -129 -120
c-70 0 -122 53 -120 120zM684 112c0 -70 27 -105 72 -105s71 35 71 105c0 69 -26 105 -71 105s-72 -36 -72 -105z" />
    <glyph glyph-name="figuredash" unicode="&#x2012;" horiz-adv-x="541" 
d="M60 286h421v-37h-421v37z" />
    <glyph glyph-name="threequartersemdash" horiz-adv-x="641" 
d="M60 286h521v-37h-521v37z" />
    <glyph glyph-name="minus" unicode="&#x2212;" horiz-adv-x="560" 
d="M99 342h362v-36h-362v36z" />
    <glyph glyph-name="overscore" horiz-adv-x="474" 
d="M96 584h282v-34h-282v34z" />
    <glyph glyph-name="uni03BC" unicode="&#x3bc;" horiz-adv-x="609" 
d="M427 124v273c0 43 -9 44 -106 49v23l177 41h12v-427c0 -43 9 -44 86 -49v-23l-151 -21h-12l-1 105h-5c-49 -59 -119 -105 -192 -105c-23 0 -46 5 -65 15c-6 -139 -61 -215 -133 -215c-35 0 -51 17 -51 42c0 20 14 38 39 38c27 0 48 -16 64 -16c18 0 19 30 19 104v439
c0 43 -9 44 -86 49v23l157 41h12v-367c0 -54 27 -89 81 -89c64 0 120 36 155 70z" />
    <glyph glyph-name="onedotenleader" unicode="&#x2024;" horiz-adv-x="284" 
d="M82 55c0 33 26 60 60 60c33 0 60 -27 60 -60c0 -34 -27 -60 -60 -60c-34 0 -60 26 -60 60z" />
    <glyph glyph-name="twodotenleader" unicode="&#x2025;" horiz-adv-x="460" 
d="M82 55c0 33 26 60 60 60c33 0 60 -27 60 -60c0 -34 -27 -60 -60 -60c-34 0 -60 26 -60 60zM258 55c0 33 26 60 60 60c33 0 60 -27 60 -60c0 -34 -27 -60 -60 -60c-34 0 -60 26 -60 60z" />
    <glyph glyph-name="afii61352" unicode="&#x2116;" horiz-adv-x="1046" 
d="M607 -5h-46l-392 632v-556c0 -41 9 -42 100 -47v-24h-233v24c83 5 92 6 92 47v558c0 41 -9 42 -92 47v24h189l341 -551v480c0 41 -9 42 -100 47v24h233v-24c-83 -5 -92 -6 -92 -47v-634zM696 354h314v-33h-314v33zM854 394c-88 0 -144 69 -144 156s56 156 144 156
s145 -69 145 -156s-57 -156 -145 -156zM854 684c-51 0 -81 -44 -81 -134s30 -134 81 -134s82 44 82 134s-31 134 -82 134z" />
    <glyph glyph-name="product" unicode="&#x220f;" horiz-adv-x="738" 
d="M527 668h-316v-857c0 -41 9 -42 86 -47v-24h-257v24c77 5 86 6 86 47v818c0 41 -9 42 -86 47v24h658v-24c-77 -5 -86 -6 -86 -47v-818c0 -41 9 -42 86 -47v-24h-257v24c77 5 86 6 86 47v857z" />
    <glyph glyph-name="summation" unicode="&#x2211;" horiz-adv-x="575" 
d="M519 700l5 -163h-24c-20 87 -49 129 -128 129h-224l192 -315l-192 -317h216c79 0 124 30 147 129h24l-10 -163h-485v24l201 326l-201 326v24h479z" />
    <glyph glyph-name="radical" unicode="&#x221a;" horiz-adv-x="760" 
d="M786 900h874v-43h-852l-363 -957h-59l-158 485h-168v39h266l122 -411z" />
    <glyph glyph-name="infinity" unicode="&#x221e;" horiz-adv-x="956" 
d="M258 190c-115 0 -160 70 -160 155s45 155 160 155c98 0 165 -61 225 -125c60 64 123 125 215 125c114 0 160 -70 160 -155s-46 -155 -160 -155c-92 0 -155 60 -215 125c-60 -65 -127 -125 -225 -125zM258 464c-97 0 -124 -61 -124 -119s27 -119 124 -119
c82 0 140 57 198 119c-58 62 -116 119 -198 119zM698 464c-76 0 -131 -57 -188 -119c57 -62 112 -119 188 -119c97 0 124 61 124 119s-27 119 -124 119z" />
    <glyph glyph-name="integral" unicode="&#x222b;" horiz-adv-x="340" 
d="M257 536l-54 -506c-16 -155 -102 -240 -179 -240c-32 0 -47 15 -47 37s17 43 43 43c27 0 47 -16 62 -16c18 0 23 30 31 104l60 576c10 94 74 196 199 196c60 0 106 -31 106 -75c0 -39 -24 -55 -50 -55c-18 0 -35 8 -35 27s17 23 17 43c0 21 -19 32 -44 32
c-78 0 -100 -80 -109 -166z" />
    <glyph glyph-name="lozenge" unicode="&#x25ca;" horiz-adv-x="612" 
d="M295 -30l-195 374l195 374h22l195 -374l-195 -374h-22zM137 344l169 -326l169 326l-169 326z" />
    <glyph glyph-name="uni037E" unicode="&#x37e;" horiz-adv-x="299" 
d="M96 345c0 32 23 55 53 55c31 0 54 -23 54 -55s-23 -53 -54 -53c-30 0 -53 21 -53 53z" />
    <glyph glyph-name="litre" unicode="&#x2113;" horiz-adv-x="426" 
d="M40 156l-12 11l90 99v243c0 67 12 118 38 151c25 32 56 50 94 50c56 0 92 -39 92 -99c0 -34 -10 -71 -30 -112c-19 -41 -60 -100 -122 -176v-168c0 -51 7 -86 21 -106c15 -20 34 -29 57 -29c21 0 42 9 61 29c20 19 37 53 52 103h16c-13 -55 -33 -97 -64 -127
c-23 -23 -52 -35 -85 -35c-54 0 -101 35 -120 90c-6 21 -10 56 -10 107v52zM190 543v-193c84 103 127 183 127 242c0 57 -29 89 -64 89c-18 0 -33 -9 -45 -28c-13 -19 -18 -55 -18 -110z" />
    <glyph glyph-name="Delta" unicode="&#x394;" horiz-adv-x="690" 
d="M127 36h388l-194 556h-2zM622 0h-554l249 705h49z" />
    <glyph glyph-name="Delta" unicode="&#x2206;" horiz-adv-x="690" 
d="M127 36h388l-194 556h-2zM622 0h-554l249 705h49z" />
    <glyph glyph-name="Omega" unicode="&#x3a9;" horiz-adv-x="784" 
d="M392 674c-139 0 -228 -95 -228 -264c0 -138 61 -221 169 -250v-160h-273l-10 163h28c10 -81 53 -97 128 -97h96v62c-138 30 -232 132 -232 282c0 180 134 300 322 300s322 -120 322 -300c0 -150 -94 -252 -232 -282v-62h96c75 0 118 16 128 97h28l-10 -163h-273v160
c108 29 169 112 169 250c0 169 -89 264 -228 264z" />
    <glyph glyph-name="Omega" unicode="&#x2126;" horiz-adv-x="784" 
d="M392 674c-139 0 -228 -95 -228 -264c0 -138 61 -221 169 -250v-160h-273l-10 163h28c10 -81 53 -97 128 -97h96v62c-138 30 -232 132 -232 282c0 180 134 300 322 300s322 -120 322 -300c0 -150 -94 -252 -232 -282v-62h96c75 0 118 16 128 97h28l-10 -163h-273v160
c108 29 169 112 169 250c0 169 -89 264 -228 264z" />
    <glyph glyph-name="pi" unicode="&#x3c0;" horiz-adv-x="626" 
d="M442 468h-240v-397c0 -41 9 -42 86 -47v-24h-257v24c77 5 86 6 86 47v358c0 41 -9 42 -86 47v24h582v-24c-77 -5 -86 -6 -86 -47v-358c0 -41 9 -42 86 -47v-24h-257v24c77 5 86 6 86 47v397z" />
    <glyph glyph-name="uni0259" unicode="&#x259;" horiz-adv-x="497" 
d="M212 -10c-83 0 -173 39 -173 156c0 18 4 42 9 60h326c0 8 1 16 1 24c0 146 -81 221 -189 221c-62 0 -100 -18 -129 -37l-10 21c20 18 78 75 175 75c155 0 236 -120 236 -255c0 -170 -121 -265 -246 -265zM217 22c77 0 135 57 152 147h-239c-5 -19 -6 -38 -6 -53
c2 -66 41 -94 93 -94z" />
    <glyph glyph-name="uni018F" unicode="&#x18f;" horiz-adv-x="670" 
d="M283 -10c-110 0 -233 53 -233 213c0 26 6 60 13 84h467c1 11 1 21 1 33c0 211 -115 321 -273 321c-90 0 -142 -26 -183 -53l-11 22c28 27 109 100 233 100c210 0 323 -167 323 -355c0 -237 -163 -365 -337 -365zM290 27c120 0 209 85 234 216h-367c-6 -28 -8 -53 -8 -76
c3 -96 61 -140 141 -140z" />
    <glyph glyph-name="Germandbls" horiz-adv-x="643" 
d="M489 593c0 -79 -105 -122 -105 -193c0 -88 218 -112 218 -260c0 -95 -74 -150 -174 -150c-45 0 -84 11 -128 35l-12 135h24c26 -117 66 -139 115 -139c61 0 96 40 96 91c0 134 -201 134 -201 239c0 74 92 127 92 235c0 61 -29 96 -75 96c-79 0 -128 -60 -128 -190v-492
h-171v23c77 5 86 6 86 47v373h-86v29l86 8v10c0 112 99 220 220 220c87 0 143 -48 143 -117z" />
    <glyph glyph-name="Dotlessi" horiz-adv-x="337" 
d="M126 71v558c0 41 -9 42 -86 47v24h257v-24c-77 -5 -86 -6 -86 -47v-558c0 -41 9 -42 86 -47v-24h-257v24c77 5 86 6 86 47z" />
    <glyph glyph-name="Dotlessj" horiz-adv-x="379" 
d="M178 216v413c0 41 -9 42 -86 47v24h257v-24c-77 -5 -86 -6 -86 -47v-413c0 -138 -93 -226 -191 -226c-46 0 -62 19 -62 41s16 34 42 34s42 -21 75 -21c45 0 51 60 51 172z" />
    <glyph glyph-name="AT" horiz-adv-x="861" 
d="M503 295l38 191c-18 19 -43 30 -69 30c-90 0 -130 -137 -130 -230c0 -56 17 -97 59 -97c39 0 89 40 102 106zM573 507l42 28h8l-48 -258c-8 -42 -13 -87 37 -87c57 0 141 85 141 231c0 179 -134 256 -281 256c-177 0 -329 -163 -329 -358c0 -189 119 -294 297 -294
c79 0 170 26 236 79l9 -19c-72 -60 -169 -96 -272 -96c-207 0 -337 138 -337 326c0 236 197 394 396 394c168 0 313 -96 313 -284c0 -165 -105 -273 -205 -273c-57 0 -81 35 -84 74c-28 -52 -77 -76 -121 -76c-73 0 -111 61 -111 136c0 126 88 260 206 260
c37 0 75 -13 103 -39z" />
    <glyph glyph-name="Ampersand" horiz-adv-x="738" 
d="M152 195c0 -87 44 -163 139 -163c46 0 110 18 154 72l-210 254c-45 -33 -83 -103 -83 -163zM408 577c0 49 -23 97 -95 97c-68 0 -100 -58 -100 -102c0 -45 22 -88 72 -151c92 53 123 104 123 156zM533 0l-66 78c-76 -74 -155 -88 -204 -88c-118 0 -195 68 -195 179
c0 101 82 166 148 212c-48 62 -83 111 -83 174c0 95 80 155 176 155c88 0 152 -48 152 -132c0 -56 -46 -124 -158 -180l193 -233c20 32 49 83 66 134c19 53 -3 68 -83 78v23h221v-23c-80 -10 -80 -25 -100 -78c-27 -68 -57 -119 -83 -157l66 -74c30 -35 48 -40 86 -45v-23
h-136z" />
    <glyph glyph-name="Asciicircum" horiz-adv-x="464" 
d="M232 834l-114 -94h-22l124 180h23l125 -180h-22z" />
    <glyph glyph-name="Commaaccent" horiz-adv-x="322" 
d="M156 -30c54 0 70 -42 70 -82c0 -54 -38 -103 -101 -131l-13 24c35 20 57 41 57 61c0 6 -3 13 -15 13c-35 0 -58 26 -58 57c0 35 29 58 60 58z" />
    <glyph glyph-name="uni02C9.uc" horiz-adv-x="503" 
d="M96 796h311v-37h-311v37z" />
    <glyph glyph-name="Asciitilde" horiz-adv-x="544" 
d="M112 759l-16 11c22 45 56 111 101 111c36 0 121 -40 171 -40c25 0 44 10 64 40l16 -11c-24 -47 -51 -101 -96 -101c-42 0 -121 40 -168 40c-33 0 -46 -16 -72 -50z" />
    <glyph glyph-name="Undercommaaccent" horiz-adv-x="322" 
d="M156 -30c54 0 70 -42 70 -82c0 -54 -38 -103 -101 -131l-13 24c35 20 57 41 57 61c0 6 -3 13 -15 13c-35 0 -58 26 -58 57c0 35 29 58 60 58z" />
    <glyph glyph-name="idotaccent" horiz-adv-x="299" 
d="M94 629c0 33 27 57 62 57c34 0 61 -24 61 -57c0 -35 -27 -57 -61 -57c-35 0 -62 22 -62 57zM200 510v-440c0 -41 9 -42 86 -47v-23h-255v23c77 5 86 6 86 47v327c0 43 -9 44 -86 49v23l157 41h12z" />
    <glyph glyph-name="egravesuperior" horiz-adv-x="300" 
d="M172 706c51 0 106 -24 106 -95c0 -11 -2 -25 -5 -36h-192v-13c0 -86 49 -128 110 -128c36 0 59 11 76 22l7 -15c-11 -11 -46 -47 -108 -47c-94 0 -144 72 -144 153c0 102 75 159 150 159zM169 684c-44 0 -75 -32 -85 -84h133c3 10 3 22 3 31c-1 39 -23 53 -51 53z
M175 735l-83 61c-9 6 -12 14 -12 21c0 13 12 25 26 24c7 0 15 -6 20 -13l56 -87z" />
    <glyph glyph-name="hsuperior" unicode="&#x2b0;" horiz-adv-x="375" 
d="M18 400v15c44 3 48 4 48 27v339c0 25 -4 26 -48 29v15l100 13h8l-3 -195h3c29 35 70 63 114 63c41 0 77 -24 77 -90v-174c0 -23 5 -24 49 -27v-15h-147v15c33 3 39 4 39 27v170c0 31 -16 51 -46 51c-36 0 -67 -20 -86 -39v-182c0 -23 5 -24 48 -27v-15h-156z" />
    <glyph glyph-name="uaccutesuperior" horiz-adv-x="370" 
d="M253 476v161c0 25 -6 26 -61 29v15l112 25h8v-255c0 -25 5 -26 49 -29v-15l-97 -13h-8v63h-3c-30 -35 -70 -63 -114 -63c-42 0 -78 24 -78 90v153c0 25 -4 26 -48 29v15l100 25h8v-218c0 -31 15 -51 45 -51c37 0 67 20 87 39zM253 796l-82 -61l-7 6l56 87
c4 7 13 13 20 13c14 1 26 -11 26 -24c0 -7 -3 -15 -13 -21z" />
    <glyph glyph-name="Periodcentered" horiz-adv-x="356" 
d="M119 338c0 34 26 60 60 60c33 0 60 -26 60 -60c0 -33 -27 -60 -60 -60c-34 0 -60 27 -60 60z" />
    <glyph glyph-name="Hyphen" horiz-adv-x="441" 
d="M60 376h321v-37h-321v37z" />
    <glyph glyph-name="Endash" horiz-adv-x="541" 
d="M60 376h421v-37h-421v37z" />
    <glyph glyph-name="Emdash" horiz-adv-x="641" 
d="M60 376h521v-37h-521v37z" />
    <glyph glyph-name="Questiondown" horiz-adv-x="491" 
d="M283 26c79 0 107 41 107 66s-25 27 -25 53c0 23 24 33 42 33s46 -5 46 -43c0 -81 -82 -145 -190 -145c-101 0 -191 59 -191 186c0 123 136 190 193 218l7 158h22l10 -168c-53 -35 -143 -93 -143 -207c0 -76 36 -151 122 -151zM340 665c0 -33 -26 -60 -60 -60
c-33 0 -60 27 -60 60c0 34 27 60 60 60c34 0 60 -26 60 -60z" />
    <glyph glyph-name="Exclamdown" horiz-adv-x="308" 
d="M144 552h22c11 -176 36 -444 36 -512c0 -26 -10 -50 -47 -50s-47 24 -47 50c0 68 23 336 36 512zM94 665c0 34 26 60 60 60c33 0 60 -26 60 -60c0 -33 -27 -60 -60 -60c-34 0 -60 27 -60 60z" />
    <glyph glyph-name="Guilsinglleft" horiz-adv-x="475" 
d="M378 512l-172 -153l172 -156v-41l-281 186v21l281 185v-42z" />
    <glyph glyph-name="Guilsinglright" horiz-adv-x="475" 
d="M269 359l-172 153v42l281 -185v-21l-281 -186v41z" />
    <glyph glyph-name="Guillemotleft" horiz-adv-x="725" 
d="M378 512l-172 -153l172 -156v-41l-281 186v21l281 185v-42zM628 512l-172 -153l172 -156v-41l-281 186v21l281 185v-42z" />
    <glyph glyph-name="Guillemotright" horiz-adv-x="725" 
d="M519 359l-172 153v42l281 -185v-21l-281 -186v41zM269 359l-172 153v42l281 -185v-21l-281 -186v41z" />
    <glyph glyph-name="Parenleft" horiz-adv-x="338" 
d="M98 340c0 185 85 355 189 460h31c-95 -141 -137 -291 -137 -460s42 -319 137 -460h-31c-104 105 -189 275 -189 460z" />
    <glyph glyph-name="Parenright" horiz-adv-x="338" 
d="M240 340c0 -185 -85 -355 -189 -460h-31c95 141 137 291 137 460s-42 319 -137 460h31c104 -105 189 -275 189 -460z" />
    <glyph glyph-name="Bracketleft" horiz-adv-x="328" 
d="M308 -64v-36h-218v900h218v-36h-138v-828h138z" />
    <glyph glyph-name="Bracketright" horiz-adv-x="328" 
d="M20 764v36h218v-900h-218v36h138v828h-138z" />
    <glyph glyph-name="Braceleft" horiz-adv-x="371" 
d="M97 348c64 -18 131 -45 132 -128c1 -55 -13 -143 -13 -181c0 -94 58 -111 135 -113v-26c-136 0 -230 37 -230 141c0 69 24 117 24 188c0 75 -44 92 -125 102v36c81 9 125 28 125 101c0 69 -24 122 -24 191c0 104 94 141 230 141v-26c-77 -2 -135 -22 -135 -113
c0 -38 14 -129 13 -184c-1 -83 -68 -111 -132 -129z" />
    <glyph glyph-name="Braceright" horiz-adv-x="371" 
d="M274 348c-64 18 -130 46 -132 129c-1 55 13 146 13 184c0 91 -58 111 -135 113v26c136 0 230 -37 230 -141c0 -69 -23 -122 -23 -191c0 -73 44 -92 124 -101v-36c-80 -10 -124 -27 -124 -102c0 -71 23 -119 23 -188c0 -104 -94 -141 -230 -141v26c77 2 135 19 135 113
c0 38 -14 126 -13 181c2 83 68 110 132 128z" />
    <glyph glyph-name="zeroslash" horiz-adv-x="594" 
d="M58 325c0 171 90 335 239 335s239 -164 239 -335s-90 -335 -239 -335s-239 164 -239 335zM445 325c0 114 -19 196 -52 245l-175 -512c22 -21 48 -32 79 -32c93 0 148 101 148 299zM297 624c-93 0 -148 -101 -148 -299c0 -110 17 -190 48 -240l174 511
c-21 18 -46 28 -74 28z" />
    <glyph glyph-name="zero.tab" 
d="M61 325c0 171 90 335 239 335s239 -164 239 -335s-90 -335 -239 -335s-239 164 -239 335zM448 325c0 198 -55 299 -148 299s-148 -101 -148 -299s55 -299 148 -299s148 101 148 299z" />
    <glyph glyph-name="zeroslash.tab" 
d="M61 325c0 171 90 335 239 335s239 -164 239 -335s-90 -335 -239 -335s-239 164 -239 335zM448 325c0 114 -19 196 -52 245l-175 -512c22 -21 48 -32 79 -32c93 0 148 101 148 299zM300 624c-93 0 -148 -101 -148 -299c0 -110 17 -190 48 -240l174 511
c-21 18 -46 28 -74 28z" />
    <glyph glyph-name="zeroslash.taboldstyle" 
d="M61 250c0 162 105 260 239 260s239 -98 239 -260s-105 -260 -239 -260s-239 98 -239 260zM152 250c0 -97 26 -162 68 -196l138 406c-18 9 -37 14 -58 14c-85 0 -148 -74 -148 -224zM300 26c85 0 148 74 148 224c0 94 -25 158 -65 193l-138 -405c17 -8 35 -12 55 -12z" />
    <glyph glyph-name="one.tab" 
d="M263 71v524l-184 -44l-6 23l247 86h28v-589c0 -41 21 -42 178 -47v-24h-442v24c157 5 179 6 179 47z" />
    <glyph glyph-name="two.tab" 
d="M284 624c-79 0 -107 -41 -107 -66s25 -27 25 -53c0 -23 -24 -33 -42 -33s-46 5 -46 43c0 81 82 145 190 145c101 0 191 -59 191 -186c0 -135 -97 -245 -315 -401h327v-73h-414v44c204 160 313 268 313 429c0 76 -36 151 -122 151z" />
    <glyph glyph-name="three.tab" 
d="M510 184c0 -127 -106 -194 -223 -194c-108 0 -198 64 -198 145c0 38 28 43 46 43s42 -10 42 -33c0 -26 -25 -28 -25 -53s36 -65 115 -66c86 -1 154 55 154 142c0 135 -74 154 -182 154v40c73 -4 158 21 158 141c0 68 -32 121 -114 121c-79 0 -107 -41 -107 -66
s25 -27 25 -53c0 -23 -24 -33 -42 -33s-46 5 -46 43c0 81 82 145 190 145c117 0 179 -65 179 -156c0 -73 -53 -133 -127 -157v-2c91 -15 155 -75 155 -161z" />
    <glyph glyph-name="four.tab" 
d="M445 0h-85v183h-304v26l331 451h58v-440h99v-37h-99v-183zM360 220v341l-255 -341h255z" />
    <glyph glyph-name="five.tab" 
d="M156 650h333v-73h-295l-5 -158c253 0 321 -124 321 -220c0 -124 -87 -209 -240 -209c-117 0 -181 62 -181 128c0 37 25 60 47 60s41 -12 41 -33c0 -25 -25 -25 -25 -53c0 -51 67 -66 108 -66c102 0 163 72 163 149c0 86 -56 178 -262 178h-15z" />
    <glyph glyph-name="six.tab" 
d="M434 200c0 98 -50 165 -129 165c-47 0 -102 -25 -135 -58c-18 -150 40 -281 134 -281c74 0 130 60 130 174zM525 212c0 -137 -102 -222 -222 -222c-151 0 -228 119 -228 264c0 213 147 380 354 416l11 -29c-175 -50 -247 -162 -271 -294c57 47 115 62 171 62
c114 0 185 -87 185 -197z" />
    <glyph glyph-name="seven.tab" 
d="M511 621l-249 -621h-105l302 577h-250c-74 0 -84 -10 -94 -89h-26l5 162h417v-29z" />
    <glyph glyph-name="eight.tab" 
d="M98 490c0 110 111 170 212 170c100 0 194 -58 194 -161c0 -54 -43 -114 -129 -154c77 -36 148 -80 148 -168c0 -129 -120 -187 -230 -187c-136 0 -217 78 -217 161c0 71 43 142 148 182c-68 36 -126 79 -126 157zM159 176c0 -100 59 -150 145 -150c85 0 135 56 135 122
c0 87 -97 125 -187 170c-61 -35 -93 -94 -93 -142zM423 496c0 87 -54 128 -121 128c-68 0 -118 -50 -118 -112c0 -80 80 -116 162 -153c57 35 77 84 77 137z" />
    <glyph glyph-name="nine.tab" 
d="M166 450c0 -98 50 -165 129 -165c47 0 102 25 135 58c18 150 -40 281 -134 281c-74 0 -130 -60 -130 -174zM75 438c0 137 102 222 222 222c151 0 228 -119 228 -264c0 -213 -147 -380 -354 -416l-11 29c175 50 247 162 271 294c-57 -47 -115 -62 -171 -62
c-114 0 -185 87 -185 197z" />
    <glyph glyph-name="zero.oldstyle" horiz-adv-x="598" 
d="M151 250c0 -150 63 -224 148 -224s148 74 148 224s-63 224 -148 224s-148 -74 -148 -224zM60 250c0 162 105 260 239 260s239 -98 239 -260s-105 -260 -239 -260s-239 98 -239 260z" />
    <glyph glyph-name="zeroslash.oldstyle" horiz-adv-x="598" 
d="M60 250c0 162 105 260 239 260s239 -98 239 -260s-105 -260 -239 -260s-239 98 -239 260zM151 250c0 -97 26 -162 68 -196l138 406c-18 9 -37 14 -58 14c-85 0 -148 -74 -148 -224zM299 26c85 0 148 74 148 224c0 94 -25 158 -65 193l-138 -405c17 -8 35 -12 55 -12z" />
    <glyph glyph-name="one.oldstyle" horiz-adv-x="415" 
d="M182 71v372l-128 -44l-12 25l197 86h28v-439c0 -41 51 -42 128 -47v-24h-342v24c77 5 129 6 129 47z" />
    <glyph glyph-name="two.oldstyle" horiz-adv-x="504" 
d="M230 474c-79 0 -108 -41 -108 -66s25 -27 25 -53c0 -23 -24 -33 -42 -33s-46 5 -46 43c0 81 83 145 191 145c101 0 190 -48 190 -154c0 -101 -116 -179 -307 -283h319v-73h-414v44c104 74 313 179 313 316c0 67 -36 114 -121 114z" />
    <glyph glyph-name="three.oldstyle" horiz-adv-x="531" 
d="M469 34c0 -127 -106 -194 -223 -194c-108 0 -198 64 -198 145c0 38 28 43 46 43s42 -10 42 -33c0 -26 -25 -28 -25 -53s36 -65 115 -66c86 -1 154 55 154 142c0 135 -74 154 -182 154v40c72 -4 158 21 158 141c0 68 -32 121 -114 121c-79 0 -107 -41 -107 -66
s25 -27 25 -53c0 -23 -24 -33 -42 -33s-46 5 -46 43c0 81 82 145 190 145c117 0 179 -65 179 -156c0 -73 -54 -133 -127 -157v-2c91 -15 155 -75 155 -161z" />
    <glyph glyph-name="four.oldstyle" horiz-adv-x="546" 
d="M417 -150h-85v150h-304v26l331 484h58v-473h99v-37h-99v-150zM332 37v374l-255 -374h255z" />
    <glyph glyph-name="five.oldstyle" horiz-adv-x="531" 
d="M114 500h334v-73h-295l-5 -158c253 0 321 -124 321 -220c0 -124 -87 -209 -240 -209c-117 0 -181 62 -181 128c0 37 24 60 47 60c21 0 41 -12 41 -33c0 -25 -25 -25 -25 -53c0 -51 67 -66 108 -66c101 0 163 72 163 149c0 86 -57 178 -262 178h-15z" />
    <glyph glyph-name="six.oldstyle" horiz-adv-x="565" 
d="M416 200c0 98 -50 165 -129 165c-47 0 -102 -25 -134 -58c-18 -150 39 -281 133 -281c75 0 130 60 130 174zM507 212c0 -137 -101 -222 -221 -222c-151 0 -228 119 -228 264c0 213 147 380 353 416l11 -29c-175 -50 -246 -162 -270 -294c56 47 115 62 170 62
c114 0 185 -87 185 -197z" />
    <glyph glyph-name="seven.oldstyle" horiz-adv-x="486" 
d="M458 471l-249 -621h-105l302 577h-250c-73 0 -83 -10 -93 -89h-26l5 162h416v-29z" />
    <glyph glyph-name="eight.oldstyle" horiz-adv-x="546" 
d="M72 490c0 110 110 170 211 170s195 -58 195 -161c0 -54 -43 -114 -129 -154c77 -36 148 -80 148 -168c0 -129 -121 -187 -231 -187c-136 0 -217 78 -217 161c0 71 44 142 149 182c-68 36 -126 79 -126 157zM133 176c0 -100 58 -150 144 -150c85 0 136 56 136 122
c0 88 -97 126 -187 170c-62 -35 -93 -93 -93 -142zM397 496c0 87 -54 128 -121 128c-68 0 -118 -50 -118 -112c0 -80 80 -116 162 -153c57 35 77 84 77 137z" />
    <glyph glyph-name="nine.oldstyle" horiz-adv-x="565" 
d="M149 300c0 -98 50 -165 129 -165c47 0 102 25 134 58c18 150 -39 281 -133 281c-75 0 -130 -60 -130 -174zM58 288c0 137 101 222 221 222c151 0 228 -119 228 -264c0 -213 -147 -380 -353 -416l-11 29c175 50 246 162 270 294c-56 -47 -115 -62 -170 -62
c-114 0 -185 87 -185 197z" />
    <glyph glyph-name="currency.oldstyle" horiz-adv-x="546" 
d="M124 249c0 45 17 85 46 114l-74 90l8 8l74 -90c26 22 60 36 96 36c35 0 68 -14 93 -36l74 90l9 -8l-74 -89c29 -29 47 -70 47 -115s-18 -86 -47 -114l73 -86l-9 -9l-73 87c-25 -22 -58 -35 -93 -35c-36 0 -70 13 -96 35l-71 -87l-9 9l72 86c-29 29 -46 69 -46 114z
M136 249c0 -79 62 -145 138 -145c74 0 137 66 137 145s-63 146 -137 146c-76 0 -138 -67 -138 -146z" />
    <glyph glyph-name="dollar.oldstyle" horiz-adv-x="478" 
d="M402 359h-21c-20 77 -60 114 -115 120l-11 -178c76 -34 163 -67 163 -161c0 -91 -76 -147 -181 -150l-4 -70h-27l4 71c-52 3 -101 16 -140 36l-8 129h20c21 -100 75 -130 130 -135l12 207c-74 32 -155 63 -155 150c0 75 67 129 171 132l4 70h28l-4 -71
c42 -2 86 -13 125 -31zM340 116c0 50 -40 77 -90 100l-11 -195c61 3 101 40 101 95zM148 404c0 -44 35 -69 81 -91l9 167c-51 -3 -90 -28 -90 -76z" />
    <glyph glyph-name="cent.oldstyle" horiz-adv-x="572" 
d="M318 -78v69c-147 7 -258 112 -258 258s111 253 258 260v76h28v-75c72 -3 126 -25 156 -42l7 -103h-20c-16 59 -57 110 -143 114v-459c96 5 129 60 145 116h21l-10 -103c-30 -17 -84 -40 -156 -43v-68h-28zM146 249c0 -139 75 -221 172 -229v459
c-97 -7 -172 -90 -172 -230z" />
    <glyph glyph-name="sigma" unicode="&#x3c3;" horiz-adv-x="546" 
d="M124 249c0 45 17 85 46 114l-74 90l8 8l74 -90c26 22 60 36 96 36c35 0 68 -14 93 -36l74 90l9 -8l-74 -89c29 -29 47 -70 47 -115s-18 -86 -47 -114l73 -86l-9 -9l-73 87c-25 -22 -58 -35 -93 -35c-36 0 -70 13 -96 35l-71 -87l-9 9l72 86c-29 29 -46 69 -46 114z
M136 249c0 -79 62 -145 138 -145c74 0 137 66 137 145s-63 146 -137 146c-76 0 -138 -67 -138 -146z" />
    <glyph glyph-name="uni03C2" unicode="&#x3c2;" horiz-adv-x="546" 
d="M124 249c0 45 17 85 46 114l-74 90l8 8l74 -90c26 22 60 36 96 36c35 0 68 -14 93 -36l74 90l9 -8l-74 -89c29 -29 47 -70 47 -115s-18 -86 -47 -114l73 -86l-9 -9l-73 87c-25 -22 -58 -35 -93 -35c-36 0 -70 13 -96 35l-71 -87l-9 9l72 86c-29 29 -46 69 -46 114z
M136 249c0 -79 62 -145 138 -145c74 0 137 66 137 145s-63 146 -137 146c-76 0 -138 -67 -138 -146z" />
    <glyph glyph-name="Euro.oldstyle" 
d="M51 317h54c30 115 135 193 265 193c79 0 137 -24 169 -42l7 -103h-20c-17 62 -61 115 -156 115c-87 0 -159 -59 -180 -163h157l-11 -30h-151c-2 -12 -2 -25 -2 -38c0 -14 1 -28 2 -40h162l-11 -30h-146c22 -103 94 -159 180 -159c106 0 142 58 158 116h21l-10 -103
c-32 -18 -90 -43 -169 -43c-129 0 -234 75 -264 189h-55v30h49c-2 13 -3 26 -3 40c0 13 1 25 2 38h-48v30z" />
    <glyph glyph-name="franc.oldstyle" 
d="M51 317h54c30 115 135 193 265 193c79 0 137 -24 169 -42l7 -103h-20c-17 62 -61 115 -156 115c-87 0 -159 -59 -180 -163h157l-11 -30h-151c-2 -12 -2 -25 -2 -38c0 -14 1 -28 2 -40h162l-11 -30h-146c22 -103 94 -159 180 -159c106 0 142 58 158 116h21l-10 -103
c-32 -18 -90 -43 -169 -43c-129 0 -234 75 -264 189h-55v30h49c-2 13 -3 26 -3 40c0 13 1 25 2 38h-48v30z" />
    <glyph glyph-name="lira.oldstyle" 
d="M51 317h54c30 115 135 193 265 193c79 0 137 -24 169 -42l7 -103h-20c-17 62 -61 115 -156 115c-87 0 -159 -59 -180 -163h157l-11 -30h-151c-2 -12 -2 -25 -2 -38c0 -14 1 -28 2 -40h162l-11 -30h-146c22 -103 94 -159 180 -159c106 0 142 58 158 116h21l-10 -103
c-32 -18 -90 -43 -169 -43c-129 0 -234 75 -264 189h-55v30h49c-2 13 -3 26 -3 40c0 13 1 25 2 38h-48v30z" />
    <glyph glyph-name="peseta.oldstyle" 
d="M51 317h54c30 115 135 193 265 193c79 0 137 -24 169 -42l7 -103h-20c-17 62 -61 115 -156 115c-87 0 -159 -59 -180 -163h157l-11 -30h-151c-2 -12 -2 -25 -2 -38c0 -14 1 -28 2 -40h162l-11 -30h-146c22 -103 94 -159 180 -159c106 0 142 58 158 116h21l-10 -103
c-32 -18 -90 -43 -169 -43c-129 0 -234 75 -264 189h-55v30h49c-2 13 -3 26 -3 40c0 13 1 25 2 38h-48v30z" />
    <glyph glyph-name="rupiah.oldstyle" horiz-adv-x="1219" 
d="M803 439h5c37 40 97 71 157 71c129 0 205 -110 205 -260c0 -164 -111 -260 -233 -260c-35 0 -95 9 -129 36v-156c0 -41 9 -42 86 -47v-23h-255v23c77 5 86 6 86 47v130h-204c-25 26 -57 68 -74 98l-59 90c-28 43 -61 91 -98 116h-70v-233c0 -41 9 -42 86 -47v-24h-257v24
c77 5 86 6 86 47v558c0 41 -9 42 -86 47v24h291c150 0 233 -80 233 -190c0 -88 -54 -181 -206 -202c44 -27 75 -64 99 -98l87 -124c35 -49 66 -56 172 -61v372c0 43 -9 44 -86 49v23l157 41h12zM927 458c-49 0 -90 -25 -119 -50v-243c0 -113 67 -143 116 -143
c108 0 157 95 157 226c0 143 -71 210 -154 210zM319 666h-99v-326h73c147 0 189 72 189 160c0 80 -36 166 -163 166z" />
    <glyph glyph-name="sterling.oldstyle" 
d="M99 263h83c-23 37 -49 72 -49 115c0 77 65 132 173 132c49 0 104 -10 148 -32l8 -120h-21c-22 83 -63 122 -130 122c-55 0 -99 -28 -99 -79s35 -87 53 -138h124v-31h-117c1 -8 2 -16 2 -24c0 -44 -21 -96 -50 -138c73 -3 140 -23 182 -23c34 0 63 14 80 78h24
c-10 -43 -30 -142 -125 -142c-65 0 -106 40 -189 52c-26 -27 -56 -45 -82 -45c-12 0 -24 9 -24 23c0 38 58 51 93 55c22 34 32 68 32 103c0 22 -6 42 -16 61h-100v31z" />
    <glyph glyph-name="yen.oldstyle" 
d="M155 199h105l-142 244c-13 22 -26 33 -71 37v20h210v-20c-59 -6 -69 -13 -51 -44l123 -216h2l103 203c21 41 14 50 -50 57v20h168v-20c-44 -7 -62 -11 -76 -39l-123 -242h116v-31h-118v-117c0 -27 7 -27 64 -31v-20h-209v20c57 4 65 4 65 31v117h-116v31z" />
    <glyph glyph-name="florin.oldstyle" 
d="M322 463l-46 -433c-17 -155 -103 -240 -179 -240c-32 0 -48 15 -48 37s17 43 44 43c26 0 46 -16 62 -16c18 0 22 30 30 104l54 505h-139l3 29l140 8l3 34c9 94 74 196 199 196c60 0 106 -31 106 -75c0 -39 -25 -55 -51 -55c-18 0 -34 8 -34 27s17 23 17 43
c0 21 -19 32 -44 32c-78 0 -101 -80 -110 -166l-3 -36h173l-5 -37h-172z" />
    <glyph glyph-name="numbersign.oldstyle" 
d="M59 265h142v123h-142v37h142v143h37v-143h123v143h37v-143h143v-37h-143v-123h143v-37h-143v-142h-37v142h-123v-142h-37v142h-142v37zM238 388v-123h123v123h-123z" />
    <glyph glyph-name="rupiah.taboldstyle" horiz-adv-x="1219" 
d="M803 439h5c37 40 97 71 157 71c129 0 205 -110 205 -260c0 -164 -111 -260 -233 -260c-35 0 -95 9 -129 36v-156c0 -41 9 -42 86 -47v-23h-255v23c77 5 86 6 86 47v130h-204c-25 26 -57 68 -74 98l-59 90c-28 43 -61 91 -98 116h-70v-233c0 -41 9 -42 86 -47v-24h-257v24
c77 5 86 6 86 47v558c0 41 -9 42 -86 47v24h291c150 0 233 -80 233 -190c0 -88 -54 -181 -206 -202c44 -27 75 -64 99 -98l87 -124c35 -49 66 -56 172 -61v372c0 43 -9 44 -86 49v23l157 41h12zM927 458c-49 0 -90 -25 -119 -50v-243c0 -113 67 -143 116 -143
c108 0 157 95 157 226c0 143 -71 210 -154 210zM319 666h-99v-326h73c147 0 189 72 189 160c0 80 -36 166 -163 166z" />
    <glyph glyph-name="colonmonetary.oldstyle" 
d="M347 20c105 0 142 58 158 116h21l-11 -103c-31 -18 -89 -43 -168 -43c-154 0 -273 108 -273 259s119 261 273 261c79 0 137 -24 168 -42l8 -103h-20c-7 25 -18 49 -36 68l-219 -384c28 -19 62 -29 99 -29zM160 249c0 -53 10 -97 29 -133l204 359c-14 3 -29 5 -46 5
c-105 0 -187 -84 -187 -231zM201 96c9 -13 19 -24 30 -34l220 386c-10 9 -22 15 -36 21z" />
    <glyph glyph-name="cent.tab" horiz-adv-x="443" 
d="M245 190v40c-111 5 -196 94 -196 216s85 208 196 214v40h26v-41c53 -3 94 -22 116 -35l6 -85h-16c-11 48 -44 90 -106 96v-380c69 6 97 51 108 96h15l-7 -85c-22 -14 -63 -33 -116 -36v-40h-26zM114 446c0 -117 57 -186 131 -192v381c-74 -6 -131 -73 -131 -189z" />
    <glyph glyph-name="sterling.tab" horiz-adv-x="590" 
d="M60 342h102c-27 51 -60 99 -60 155c0 95 74 164 201 164c57 0 121 -14 172 -42l10 -153h-23c-26 108 -77 158 -156 158c-69 0 -120 -35 -120 -102c0 -65 41 -115 62 -180h150v-36h-141c2 -13 4 -26 4 -40c0 -59 -26 -128 -62 -182c87 -3 169 -30 221 -30
c38 0 73 16 95 106h26c-11 -51 -34 -180 -146 -180c-75 0 -126 51 -225 66c-30 -34 -64 -56 -94 -56c-14 0 -27 11 -27 27c0 45 67 61 107 65c30 49 41 97 41 145c0 28 -7 54 -18 79h-119v36z" />
    <glyph glyph-name="yen.tab" horiz-adv-x="688" 
d="M175 252h128l-169 324c-15 29 -31 46 -85 51v23h241v-23c-72 -8 -82 -18 -61 -57l147 -293h2l125 274c24 53 16 67 -59 76v23h195v-23c-51 -9 -72 -16 -89 -53l-148 -322h140v-36h-142v-150c0 -37 8 -38 79 -43v-23h-243v23c70 5 79 6 79 43v150h-140v36z" />
    <glyph glyph-name="Euro.tab" horiz-adv-x="683" 
d="M49 414h66c35 148 157 247 307 247c93 0 162 -32 199 -55l9 -131h-23c-19 82 -73 150 -185 150c-105 0 -192 -77 -218 -211h190l-12 -36h-183c-2 -17 -3 -34 -3 -52s1 -36 3 -52h195l-12 -36h-178c26 -135 113 -212 218 -212c126 0 170 75 188 150h24l-13 -130
c-37 -24 -106 -56 -199 -56c-150 0 -272 99 -307 248h-66v36h59c-2 17 -3 34 -3 52s1 35 3 52h-59v36z" />
    <glyph glyph-name="franc.tab" horiz-adv-x="683" 
d="M49 414h66c35 148 157 247 307 247c93 0 162 -32 199 -55l9 -131h-23c-19 82 -73 150 -185 150c-105 0 -192 -77 -218 -211h190l-12 -36h-183c-2 -17 -3 -34 -3 -52s1 -36 3 -52h195l-12 -36h-178c26 -135 113 -212 218 -212c126 0 170 75 188 150h24l-13 -130
c-37 -24 -106 -56 -199 -56c-150 0 -272 99 -307 248h-66v36h59c-2 17 -3 34 -3 52s1 35 3 52h-59v36z" />
    <glyph glyph-name="lira.tab" horiz-adv-x="683" 
d="M49 414h66c35 148 157 247 307 247c93 0 162 -32 199 -55l9 -131h-23c-19 82 -73 150 -185 150c-105 0 -192 -77 -218 -211h190l-12 -36h-183c-2 -17 -3 -34 -3 -52s1 -36 3 -52h195l-12 -36h-178c26 -135 113 -212 218 -212c126 0 170 75 188 150h24l-13 -130
c-37 -24 -106 -56 -199 -56c-150 0 -272 99 -307 248h-66v36h59c-2 17 -3 34 -3 52s1 35 3 52h-59v36z" />
    <glyph glyph-name="peseta.tab" horiz-adv-x="683" 
d="M49 414h66c35 148 157 247 307 247c93 0 162 -32 199 -55l9 -131h-23c-19 82 -73 150 -185 150c-105 0 -192 -77 -218 -211h190l-12 -36h-183c-2 -17 -3 -34 -3 -52s1 -36 3 -52h195l-12 -36h-178c26 -135 113 -212 218 -212c126 0 170 75 188 150h24l-13 -130
c-37 -24 -106 -56 -199 -56c-150 0 -272 99 -307 248h-66v36h59c-2 17 -3 34 -3 52s1 35 3 52h-59v36z" />
    <glyph glyph-name="colonmonetary.tab" horiz-adv-x="627" 
d="M366 26c126 0 170 75 188 150h24l-13 -130c-37 -24 -106 -56 -199 -56c-178 0 -317 140 -317 336s139 335 317 335c93 0 162 -32 199 -55l9 -131h-23c-7 30 -19 57 -36 81l-251 -502c30 -18 65 -28 102 -28zM140 326c0 -80 18 -147 48 -197l243 487c-19 6 -41 9 -65 9
c-126 0 -226 -111 -226 -299zM205 106c11 -15 24 -27 38 -38l254 509c-12 12 -26 22 -42 29z" />
    <glyph glyph-name="rupiah.tab" horiz-adv-x="1219" 
d="M803 439h5c37 40 97 71 157 71c129 0 205 -110 205 -260c0 -164 -111 -260 -233 -260c-35 0 -95 9 -129 36v-156c0 -41 9 -42 86 -47v-23h-255v23c77 5 86 6 86 47v130h-204c-25 26 -57 68 -74 98l-59 90c-28 43 -61 91 -98 116h-70v-233c0 -41 9 -42 86 -47v-24h-257v24
c77 5 86 6 86 47v558c0 41 -9 42 -86 47v24h291c150 0 233 -80 233 -190c0 -88 -54 -181 -206 -202c44 -27 75 -64 99 -98l87 -124c35 -49 66 -56 172 -61v372c0 43 -9 44 -86 49v23l157 41h12zM927 458c-49 0 -90 -25 -119 -50v-243c0 -113 67 -143 116 -143
c108 0 157 95 157 226c0 143 -71 210 -154 210zM319 666h-99v-326h73c147 0 189 72 189 160c0 80 -36 166 -163 166z" />
    <glyph glyph-name="florin.tab" horiz-adv-x="340" 
d="M249 463l-46 -433c-16 -155 -102 -240 -179 -240c-32 0 -47 15 -47 37s17 43 43 43c27 0 47 -16 62 -16c18 0 23 30 31 104l53 505h-87l4 29l87 8l3 34c10 94 74 196 199 196c60 0 106 -31 106 -75c0 -39 -24 -55 -50 -55c-18 0 -35 8 -35 27s17 23 17 43
c0 21 -19 32 -44 32c-78 0 -101 -80 -109 -166l-4 -36h119l-5 -37h-118z" />
    <glyph glyph-name="numbersign.tab" 
d="M59 265h142v123h-142v37h142v143h37v-143h123v143h37v-143h143v-37h-143v-123h143v-37h-143v-142h-37v142h-123v-142h-37v142h-142v37zM238 388v-123h123v123h-123z" />
    <glyph glyph-name="zeroslashsuperior" horiz-adv-x="344" 
d="M30 605c0 103 56 201 147 201c90 0 146 -98 146 -201s-56 -201 -146 -201c-91 0 -147 98 -147 201zM177 782c-52 0 -82 -59 -82 -177c0 -53 6 -95 17 -124l116 271c-13 20 -30 30 -51 30zM258 605c0 51 -6 91 -16 120l-115 -271c13 -17 30 -26 50 -26c51 0 81 59 81 177z
" />
    <glyph glyph-name="zeroslashinferior" horiz-adv-x="353" 
d="M30 95c0 103 56 201 147 201c90 0 146 -98 146 -201s-56 -201 -146 -201c-91 0 -147 98 -147 201zM177 272c-52 0 -82 -59 -82 -177c0 -53 6 -95 17 -123l116 270c-13 20 -30 30 -51 30zM258 95c0 51 -6 91 -16 120l-115 -270c13 -18 30 -27 50 -27c51 0 81 59 81 177z
" />
    <glyph glyph-name="zeroslash.denominator" horiz-adv-x="353" 
d="M30 195c0 103 56 201 147 201c90 0 146 -98 146 -201s-56 -201 -146 -201c-91 0 -147 98 -147 201zM177 372c-52 0 -82 -59 -82 -177c0 -53 6 -95 17 -124l116 271c-13 20 -30 30 -51 30zM258 195c0 51 -6 91 -16 120l-115 -271c13 -17 30 -26 50 -26c51 0 81 59 81 177z
" />
    <glyph glyph-name="zeroslash.numerator" horiz-adv-x="353" 
d="M30 505c0 103 56 201 147 201c90 0 146 -98 146 -201s-56 -201 -146 -201c-91 0 -147 98 -147 201zM177 682c-52 0 -82 -59 -82 -177c0 -53 6 -95 17 -124l116 271c-13 20 -30 30 -51 30zM258 505c0 51 -6 91 -16 120l-115 -271c13 -17 30 -26 50 -26c51 0 81 59 81 177z
" />
    </font>
</defs>
</svg>
